<?xml version="1.0" standalone="no"?>
<!DOCTYPE svg PUBLIC "-//W3C//DTD SVG 1.1//EN" "http://www.w3.org/Graphics/SVG/1.1/DTD/svg11.dtd" >
<svg xmlns="http://www.w3.org/2000/svg" xmlns:xlink="http://www.w3.org/1999/xlink" version="1.1">
<metadata>
Created by FontForge 20170910 at Thu Nov 24 03:17:23 2011
 By Jimmy Wärting
Copyright (c) 2010-11 by Jonathan Hill, The Northern Block. All rights reserved.
</metadata>
<defs>
<font id="Planer-Italic" horiz-adv-x="656" >
  <font-face 
    font-family="Planer"
    font-weight="400"
    font-style="italic"
    font-stretch="normal"
    units-per-em="1000"
    panose-1="0 0 5 0 0 0 0 0 0 0"
    ascent="800"
    descent="-200"
    x-height="508"
    cap-height="700"
    bbox="-59 -226 1092 999"
    underline-thickness="50"
    underline-position="-100"
    slope="-12"
    unicode-range="U+000D-FB02"
  />
<missing-glyph horiz-adv-x="500" 
d="M80 130h340v340h-340v-340zM50 500h400v-400h-400v400z" />
    <glyph glyph-name="fi" unicode="fi" horiz-adv-x="535" 
d="M160 509h46q27 94 82.5 141.5t139.5 60.5q13 2 20.5 -4.5t7.5 -16.5v-6q-5 -22 -28 -27q-125 -18 -162 -148h125q11 0 17 -6t6 -15v-6q-3 -12 -12.5 -19.5t-21.5 -7.5h-125l-91 -426q-3 -13 -13.5 -21t-23.5 -8q-11 0 -17.5 6t-6.5 16q0 3 1 7l91 426h-47q-10 0 -16.5 6
t-6.5 15q0 3 1 6q2 12 11.5 19.5t22.5 7.5zM415 28l97 452q2 13 12 21t23 8q11 0 18 -6t7 -16q0 -4 -1 -7l-96 -452q-3 -13 -13 -20.5t-23 -7.5q-24 0 -24 21v7zM547 647l4 19q3 13 12.5 21t22.5 8q12 0 18.5 -6t6.5 -16v-7l-5 -19q-2 -12 -12 -20t-24 -8q-24 0 -24 22
q0 3 1 6z" />
    <glyph glyph-name="fl" unicode="fl" horiz-adv-x="527" 
d="M160 509h46q27 94 82.5 141.5t139.5 60.5q13 2 20.5 -4.5t7.5 -16.5v-6q-5 -22 -28 -27q-125 -18 -162 -148h125q11 0 17 -6t6 -15v-6q-3 -12 -12.5 -19.5t-21.5 -7.5h-125l-91 -426q-3 -13 -13.5 -21t-23.5 -8q-11 0 -17.5 6t-6.5 16q0 3 1 7l91 426h-47q-10 0 -16.5 6
t-6.5 15q0 3 1 6q2 12 11.5 19.5t22.5 7.5zM416 29l136 642q3 13 13 21t23 8q12 0 18.5 -6.5t6.5 -16.5q0 -4 -1 -8l-136 -639q-3 -13 -13 -21.5t-23 -8.5q-12 0 -18.5 6t-6.5 16q0 3 1 7z" />
    <glyph glyph-name=".notdef" horiz-adv-x="500" 
d="M80 130h340v340h-340v-340zM50 500h400v-400h-400v400z" />
    <glyph glyph-name="NULL" horiz-adv-x="0" 
 />
    <glyph glyph-name="NULL" horiz-adv-x="0" 
 />
    <glyph glyph-name="nonmarkingreturn" unicode="&#xd;" horiz-adv-x="333" 
 />
    <glyph glyph-name="space" unicode=" " horiz-adv-x="340" 
 />
    <glyph glyph-name="exclam" unicode="!" horiz-adv-x="152" 
d="M94 229l94 443q3 12 13 20t23 8q12 0 19 -6t7 -16q0 -3 -1 -6l-94 -443q-2 -13 -13 -21t-24 -8q-12 0 -18.5 6t-6.5 16q0 3 1 7zM52 29l9 43q3 13 12.5 21t23.5 8q12 0 19 -6.5t7 -16.5q0 -3 -1 -6l-9 -43q-3 -13 -13.5 -21t-23.5 -8q-25 0 -25 22q0 3 1 7z" />
    <glyph glyph-name="quotedbl" unicode="&#x22;" horiz-adv-x="308" 
d="M312 519l33 157q3 13 13 21t23 8q12 0 19 -6t7 -17q0 -3 -1 -6l-33 -157q-3 -12 -13.5 -20t-23.5 -8q-25 0 -25 21q0 4 1 7zM157 519l33 157q3 13 13 21t23 8q12 0 19 -6t7 -16q0 -4 -1 -7l-34 -157q-2 -12 -12.5 -20t-23.5 -8q-12 0 -18.5 6t-6.5 16q0 3 1 6z" />
    <glyph glyph-name="numbersign" unicode="#" horiz-adv-x="601" 
d="M510 485l77 182q12 26 39 26q11 0 17.5 -6t6.5 -15q0 -6 -3 -13l-75 -174h61q13 0 20 -6.5t7 -16.5q0 -3 -1 -7q-3 -12 -13 -20.5t-24 -8.5h-75l-80 -188h105q13 0 20 -6t7 -16q0 -4 -1 -7q-3 -13 -13 -21.5t-24 -8.5h-119l-65 -153q-5 -11 -15.5 -18.5t-22.5 -7.5
q-11 0 -17.5 5.5t-6.5 15.5q0 5 3 12l62 146h-153l-65 -153q-5 -12 -16 -19t-22 -7t-17.5 6.5t-6.5 15.5q0 5 2 11l63 146h-56q-11 0 -18 6.5t-7 17.5v6q3 13 14 21t26 8h65l81 188h-101q-12 0 -19 6.5t-7 16.5q0 3 1 6q3 13 14 21.5t25 8.5h111l78 182q13 26 39 26
q24 0 24 -20q0 -7 -3 -14l-75 -174h153zM404 238l81 188h-153l-80 -188h152z" />
    <glyph glyph-name="dollar" unicode="$" horiz-adv-x="527" 
d="M390 699l8 35q2 9 10.5 16t18.5 7t15 -5.5t5 -13.5v-6l-7 -32h144q13 0 20 -6.5t7 -16.5q0 -3 -1 -6q-2 -11 -13 -19.5t-23 -8.5h-146l-54 -256q81 -16 120.5 -44.5t39.5 -86.5q0 -21 -6 -47q-22 -103 -81 -153t-156 -55l-7 -33q-2 -11 -10.5 -18t-18.5 -7t-15.5 5.5
t-5.5 13.5q0 2 1 4l7 34h-167q-10 0 -17 7t-7 16q0 3 1 6q2 11 12.5 19.5t23.5 8.5h166l60 280q-32 7 -52 13t-43.5 16.5t-36.5 24t-22 34.5t-9 48q0 22 6 50q18 88 77 129.5t156 46.5zM361 327l-57 -268q134 9 164 150q4 18 4 32q0 37 -26 55t-85 31zM326 397l52 243
q-138 -6 -161 -117q-4 -20 -4 -35q0 -42 27 -60.5t86 -30.5z" />
    <glyph glyph-name="percent" unicode="%" horiz-adv-x="622" 
d="M64 40l611 652q10 11 24 11q9 0 15 -5q8 -6 8 -16t-10 -21l-613 -653q-10 -12 -23 -12q-9 0 -14 5q-9 6 -9 16q0 12 11 23zM312 695q43 0 64.5 -19.5t21.5 -60.5q0 -24 -7 -55q-15 -72 -49 -105.5t-88 -33.5q-84 0 -84 83q0 24 7 57q15 71 47.5 102.5t87.5 31.5zM304 656
q-36 0 -56 -23.5t-30 -71.5q-6 -27 -6 -47q0 -55 50 -55q36 0 56.5 25.5t30.5 75.5q6 26 6 43q0 53 -51 53zM520 273q43 0 64 -19t21 -61q0 -23 -6 -55q-16 -72 -49.5 -105.5t-88.5 -33.5q-84 0 -84 83q0 25 7 57q15 71 47.5 102.5t88.5 31.5zM511 234q-36 0 -55.5 -23
t-29.5 -72q-6 -27 -6 -46q0 -55 50 -55q36 0 56 25.5t31 74.5q5 26 5 44q0 52 -51 52z" />
    <glyph glyph-name="ampersand" unicode="&#x26;" horiz-adv-x="604" 
d="M435 700h32q54 0 88.5 -28.5t34.5 -80.5q0 -18 -4 -37q-2 -10 -6.5 -20t-9 -18t-13 -18t-14 -16t-17.5 -15.5t-17.5 -14.5t-20 -14.5t-19.5 -13t-20.5 -13.5t-18.5 -12l-46 -31l105 -180l23 75q8 27 33 25q20 -2 20 -18q0 -6 -3 -16l-42 -120l50 -85q5 -9 5 -16
q0 -15 -18 -26q-11 -8 -20 -8q-11 0 -19 14l-37 63q-18 -28 -44 -47q-38 -29 -98 -29h-160q-52 0 -85 33.5t-33 88.5q0 19 5 40q5 23 16.5 43t33 39t34.5 29t43 29t36 23l77 52l-34 58q-21 34 -21 78q0 21 5 41q13 64 65.5 105t113.5 41zM358 412l54 36q4 3 11 8
q34 22 50.5 34t33.5 30t20 34q4 15 4 27q0 63 -76 63h-32q-39 0 -69.5 -24.5t-39.5 -65.5q-3 -16 -3 -31q0 -30 14 -53zM454 122l-123 211l-75 -51q-9 -6 -35 -23t-36 -24t-26.5 -20.5t-24 -26t-10.5 -26.5q-3 -16 -3 -31q0 -35 19 -55t50 -20h161q37 0 56 15q31 21 47 51z
" />
    <glyph glyph-name="quotesingle" unicode="'" horiz-adv-x="152" 
d="M156 519l33 157q3 13 13 21.5t24 8.5q11 0 18 -6.5t7 -17.5q0 -3 -1 -6l-33 -157q-3 -12 -13.5 -20t-23.5 -8q-25 0 -25 21q0 4 1 7z" />
    <glyph glyph-name="parenleft" unicode="(" horiz-adv-x="239" 
d="M325 700q12 -6 12 -17q0 -8 -6 -19q-131 -236 -158 -365q-13 -61 -13 -155q0 -78 15 -222v-5q0 -21 -20 -29q-8 -4 -15 -4q-20 0 -23 18q-1 4 -5.5 36.5t-9.5 97t-5 119.5q0 87 13 144q12 61 56 158t74.5 153t41.5 74q9 18 31 18q6 0 12 -2z" />
    <glyph glyph-name="parenright" unicode=")" horiz-adv-x="239" 
d="M212 700q7 2 13 2q21 0 23 -18q2 -9 6.5 -41t9 -93.5t4.5 -115.5q0 -81 -11 -135q-14 -64 -59.5 -165.5t-77.5 -161.5t-39 -70q-11 -18 -31 -18q-7 0 -13 4q-11 5 -11 17q0 8 5 17q26 41 80 156q65 138 83 221q12 59 12 147q0 98 -15 218q-1 3 -1 6q0 22 22 30z" />
    <glyph glyph-name="asterisk" unicode="*" horiz-adv-x="411" 
d="M304 585l19 91q3 11 13 18.5t20.5 7.5t16 -6t5.5 -15v-5l-20 -92l90 27q6 2 11 2q20 0 21 -19q0 -10 -6.5 -19t-18.5 -13l-93 -27l39 -78q1 -4 1 -8q0 -15 -14 -24q-9 -6 -18 -6q-14 0 -20 11l-38 74l-68 -72q-10 -11 -25 -11q-9 0 -15 4q-7 6 -7 15q0 12 10 22l71 75
l-81 29q-14 5 -14 18q0 6 3 13q9 19 30 19q4 0 8 -2z" />
    <glyph glyph-name="plus" unicode="+" horiz-adv-x="586" 
d="M322 280l40 187q2 12 13 20t24 8q11 0 17.5 -6t6.5 -15v-6l-40 -188h186q11 0 18 -6t7 -16q0 -4 -1 -7q-3 -12 -13 -20t-23 -8h-186l-40 -189q-3 -12 -13.5 -19.5t-23.5 -7.5q-11 0 -18 6.5t-7 16.5q0 3 1 6l40 187h-186q-11 0 -17.5 6.5t-6.5 16.5q0 3 1 6
q2 11 12.5 19.5t24.5 8.5h184z" />
    <glyph glyph-name="comma" unicode="," horiz-adv-x="192" 
d="M89 21l13 60q2 13 12.5 21.5t24.5 8.5q11 0 18.5 -7t7.5 -18q0 -2 -1 -5l-14 -68q-6 -28 -30.5 -48.5t-49.5 -26.5q-13 -1 -20 5t-7 16v4q0 15 18 23q23 11 28 35z" />
    <glyph glyph-name="hyphen" unicode="-" horiz-adv-x="425" 
d="M398 232h-271q-26 1 -26 21q0 4 1 9q3 11 13.5 19.5t23.5 8.5h272q11 0 17.5 -6t6.5 -16q0 -4 -1 -7q-3 -13 -12.5 -21t-23.5 -8z" />
    <glyph glyph-name="period" unicode="." horiz-adv-x="156" 
d="M51 24l8 38q3 13 14 22t25 9q12 0 19.5 -7t7.5 -18q0 -3 -1 -6l-7 -36q-3 -15 -15 -24.5t-25 -9.5t-20 7t-7 18q0 3 1 7z" />
    <glyph glyph-name="slash" unicode="/" horiz-adv-x="435" 
d="M56 35l427 649q11 17 29 17q7 0 12 -3q10 -5 10 -16q0 -10 -7 -20l-425 -647q-11 -16 -29 -16q-7 0 -12 3q-10 7 -10 17q0 8 5 16z" />
    <glyph glyph-name="zero" unicode="0" horiz-adv-x="569" 
d="M96 231l39 181q27 126 103.5 189.5t187.5 63.5q94 0 143.5 -44t49.5 -130q0 -36 -9 -79l-38 -181q-25 -117 -101.5 -178.5t-187.5 -61.5q-92 0 -143 44t-51 128q0 32 7 68zM510 231l39 181q7 35 7 65q0 65 -36 98t-106 33q-86 0 -141.5 -49t-76.5 -147l-38 -181
q-6 -28 -6 -53q0 -63 38 -96.5t106 -33.5q81 0 138 47.5t76 135.5z" />
    <glyph glyph-name="one" unicode="1" horiz-adv-x="342" 
d="M177 547l192 112q12 7 26 7q16 0 25.5 -8.5t9.5 -23.5q0 -5 -1 -11l-126 -592q-3 -14 -14 -23t-24 -9q-11 0 -18.5 6.5t-7.5 17.5q0 3 1 6l120 563l-159 -94q-9 -6 -19 -6q-15 0 -22 11q-4 6 -4 13q0 21 21 31z" />
    <glyph glyph-name="two" unicode="2" horiz-adv-x="529" 
d="M74 64l289 225q53 42 86 81.5t44 90.5l6 29q3 13 3 25q0 44 -34 68.5t-87 24.5h-167q-11 0 -18 7t-7 17v4q3 12 14 20.5t23 8.5h168q76 0 122.5 -36t46.5 -99q0 -19 -5 -40l-6 -28q-14 -66 -51 -113t-101 -98l-249 -194h312q13 0 20 -6.5t7 -16.5q0 -3 -1 -5
q-2 -12 -13 -20.5t-23 -8.5h-369q-13 0 -21.5 8.5t-8.5 21.5q0 3 1 6q3 16 19 28z" />
    <glyph glyph-name="three" unicode="3" horiz-adv-x="500" 
d="M349 314h-125q-12 0 -19.5 6.5t-7.5 16.5q0 2 1 5q2 11 13 19.5t23 8.5h133q45 0 82 32.5t48 82.5q3 15 3 29q0 42 -24 68t-64 26h-204q-12 0 -19 7t-7 16v5q3 12 14 20.5t23 8.5h205q62 0 100 -38.5t38 -99.5q0 -21 -5 -42q-10 -50 -41 -87.5t-75 -56.5q56 -35 56 -115
q0 -22 -5 -46q-17 -79 -76.5 -129.5t-132.5 -50.5h-206q-10 0 -17 7t-7 16v6q2 11 13 19.5t23 8.5h206q47 0 86.5 34t50.5 89q4 18 4 35q0 44 -24 71.5t-63 27.5z" />
    <glyph glyph-name="four" unicode="4" horiz-adv-x="569" 
d="M102 232l255 415q11 17 31 17q9 0 16 -4q11 -6 11 -19q0 -8 -5 -16l-250 -409q-8 -13 -8 -17q0 -1 1 -2q1 -6 18 -6h225l31 143q3 14 13.5 22.5t23.5 8.5q12 0 19 -6.5t7 -16.5q0 -3 -1 -6l-31 -145h75q11 0 18 -6.5t7 -16.5q0 -3 -1 -6q-3 -13 -13 -21.5t-24 -8.5h-74
l-22 -101q-3 -14 -13.5 -23t-23.5 -9q-12 0 -19 6.5t-7 16.5q0 4 1 7l22 103h-235q-27 0 -43.5 16t-16.5 41q0 8 2 16q2 11 11 27z" />
    <glyph glyph-name="five" unicode="5" horiz-adv-x="507" 
d="M243 0h-166q-11 0 -18 6t-7 16q0 3 1 7q3 12 13 20.5t24 8.5h164q69 0 120 29t64 91l14 68q3 13 3 25q0 42 -33.5 63.5t-88.5 21.5h-164q-18 0 -28 9t-10 25q0 5 1 10l45 210q4 20 19.5 33t36.5 13h316q12 0 19 -6.5t7 -16.5q0 -3 -1 -6q-3 -13 -13.5 -20.5t-23.5 -7.5
h-302l-39 -188h149q78 0 125.5 -32t47.5 -94q0 -18 -5 -39l-14 -68q-20 -91 -89 -134.5t-167 -43.5z" />
    <glyph glyph-name="six" unicode="6" horiz-adv-x="535" 
d="M432 664h144q13 0 20 -6.5t7 -16.5q0 -3 -1 -5q-2 -11 -12.5 -20t-23.5 -9h-146q-83 0 -138 -42t-76 -126l-7 -25h165q181 -1 181 -129q0 -22 -6 -48l-8 -41q-19 -89 -87 -143t-174 -54q-92 0 -137.5 36.5t-45.5 115.5q0 35 9 79l41 194q26 120 102 180t193 60zM467 196
l9 41q3 17 3 32q0 88 -129 88h-164l-26 -125q-9 -40 -9 -69q0 -58 32 -82.5t99 -24.5q79 0 125 37t60 103z" />
    <glyph glyph-name="seven" unicode="7" horiz-adv-x="506" 
d="M218 664h315q24 0 39.5 -15t15.5 -38q0 -7 -1 -13q-3 -14 -10 -25l-364 -560q-9 -13 -29 -13q-9 0 -15 3q-11 7 -11 20q0 7 4 13l353 541q10 16 10 22q0 8 -19 8h-298q-12 0 -19 7t-7 17v5q3 11 13.5 19.5t22.5 8.5z" />
    <glyph glyph-name="eight" unicode="8" horiz-adv-x="565" 
d="M347 -1h-129q-62 0 -99.5 37.5t-37.5 99.5q0 21 4 44q12 54 46 97.5t82 62.5q-32 13 -49.5 41.5t-17.5 66.5q0 18 4 37q16 76 76 127.5t134 51.5h129q62 0 99.5 -38.5t37.5 -99.5q0 -20 -4 -42q-11 -50 -45 -89.5t-79 -53.5q31 -14 47.5 -45t16.5 -72q0 -22 -5 -45
q-17 -79 -77 -129.5t-133 -50.5zM294 370h138q45 0 82 32t48 82q3 15 3 30q0 41 -24.5 67t-63.5 26h-129q-47 0 -87 -35t-51 -87q-3 -15 -3 -28q0 -39 24 -63t63 -24zM230 56h130q47 0 86.5 34.5t50.5 88.5q4 18 4 35q0 44 -24 71.5t-63 27.5h-129q-47 0 -87.5 -38
t-52.5 -95q-3 -17 -3 -32q0 -42 24.5 -67t63.5 -25z" />
    <glyph glyph-name="nine" unicode="9" horiz-adv-x="535" 
d="M138 426l8 42q19 89 87 142.5t174 53.5q92 0 137.5 -36.5t45.5 -114.5q0 -35 -9 -79l-41 -194q-26 -121 -102 -181t-193 -60h-145q-12 0 -19 6.5t-7 16.5q0 3 1 6q2 11 12.5 19.5t23.5 8.5h146q83 0 138 42.5t76 126.5l6 25h-164q-181 0 -181 129q0 22 6 47zM491 307
l26 125q9 39 9 69q0 57 -32 81.5t-99 24.5q-79 0 -125 -37t-60 -102l-9 -42q-4 -17 -4 -31q0 -88 130 -88h164z" />
    <glyph glyph-name="colon" unicode=":" horiz-adv-x="156" 
d="M122 359l8 38q3 13 14 22t25 9q12 0 19.5 -7t7.5 -18v-6l-8 -36q-3 -15 -14.5 -24.5t-25.5 -9.5q-12 0 -19.5 7t-7.5 18q0 3 1 7zM52 28l8 38q2 13 13.5 22t25.5 9q12 0 19.5 -7t7.5 -18q0 -3 -1 -6l-7 -36q-4 -15 -15.5 -24t-24.5 -9t-20 6.5t-7 17.5q0 3 1 7z" />
    <glyph glyph-name="semicolon" unicode=";" horiz-adv-x="194" 
d="M88 19l13 59q3 12 13.5 21.5t23.5 9.5q12 0 19 -7.5t7 -17.5q0 -3 -1 -6l-14 -67q-6 -29 -30 -49t-50 -27q-12 -1 -19.5 5.5t-7.5 16.5v3q1 16 19 23q22 11 27 36zM160 359l8 38q3 12 14 21.5t25 9.5q12 0 19.5 -7t7.5 -18q0 -3 -1 -6l-8 -36q-3 -15 -14 -24.5t-25 -9.5
q-13 0 -20 7t-7 18q0 3 1 7z" />
    <glyph glyph-name="less" unicode="&#x3c;" horiz-adv-x="456" 
d="M143 347l334 191q7 4 16 4q15 0 21 -11q3 -5 3 -11q0 -19 -17 -28l-298 -170q-7 -4 -9 -11v-4q0 -4 4 -8l221 -177q9 -7 9 -19t-10 -22q-11 -11 -24 -11q-9 0 -18 6l-250 197q-12 10 -12 27q0 5 1 10q5 23 29 37z" />
    <glyph glyph-name="equal" unicode="=" horiz-adv-x="586" 
d="M161 390l431 1q12 0 18.5 -6.5t6.5 -16.5q0 -4 -1 -7q-2 -13 -12.5 -20.5t-23.5 -7.5h-433q-23 3 -23 23v6q3 11 13.5 19.5t23.5 8.5zM124 216h431q12 0 18.5 -6t6.5 -16q0 -4 -1 -7q-2 -12 -12.5 -20t-23.5 -8h-432q-24 3 -24 23v6q3 11 13.5 19.5t23.5 8.5z" />
    <glyph glyph-name="greater" unicode="&#x3e;" horiz-adv-x="456" 
d="M392 322l-225 170q-7 6 -7 16q0 13 9 23q11 11 26 11q9 0 14 -4l253 -191q14 -11 14 -29q0 -4 -1 -8q-5 -24 -26 -37l-334 -197q-11 -6 -21 -6q-13 0 -19 11q-3 5 -3 11q0 18 20 30l296 177q7 5 9 12v2q0 5 -5 9z" />
    <glyph glyph-name="question" unicode="?" horiz-adv-x="455" 
d="M215 226l5 24q8 37 27 60t58 53l74 57q66 50 78 108q4 18 4 32q0 83 -112 83h-134q-26 0 -26 22q0 3 1 7q2 11 12 19.5t23 8.5h136q79 0 122 -32.5t43 -94.5q0 -21 -5 -45q-9 -43 -35.5 -78.5t-73.5 -70.5l-78 -59q-46 -35 -53 -70l-5 -22q-3 -14 -13 -22t-24 -8
q-11 0 -18 6t-7 16q0 3 1 6zM171 27l8 41q3 12 14.5 21t25.5 9q11 0 18.5 -7t7.5 -17q0 -3 -1 -6l-8 -39q-3 -14 -14.5 -23t-23.5 -9q-13 0 -20.5 7t-7.5 17q0 3 1 6z" />
    <glyph glyph-name="at" unicode="@" horiz-adv-x="590" 
d="M95 228l40 185q27 129 104.5 191.5t196.5 62.5q205 0 205 -174q0 -37 -10 -83q-20 -96 -84 -158.5t-130 -62.5h-111q-34 0 -56 21.5t-22 53.5q0 10 2 19q8 38 42 65.5t74 27.5h94l7 35q2 7 2 14q0 17 -9.5 27.5t-26.5 10.5h-102q-21 0 -21 17v5q2 10 10.5 17t20.5 7h107
q33 0 53 -20.5t20 -52.5q0 -11 -3 -23l-36 -170q91 48 117 170q8 38 8 69q0 138 -160 138q-196 0 -240 -207l-39 -185q-7 -29 -7 -55q0 -67 40.5 -102t111.5 -35q39 0 83 12h7q18 0 18 -21v-4q-3 -18 -23 -23q-39 -12 -95 -12q-93 0 -144.5 44t-51.5 128q0 32 8 68zM410 235
l20 94h-94q-19 0 -35.5 -13.5t-20.5 -32.5q-1 -5 -1 -10q0 -16 10.5 -27t26.5 -11h94z" />
    <glyph glyph-name="A" unicode="A" horiz-adv-x="605" 
d="M46 38l310 602q14 27 40.5 43.5t55.5 16.5t48 -16.5t22 -43.5l54 -605q1 -12 -9.5 -22.5t-26.5 -11.5q-11 -2 -18.5 4.5t-8.5 16.5l-19 185h-294l-97 -184q-5 -11 -15.5 -17.5t-21.5 -5.5q-24 1 -24 22q0 8 4 16zM489 265l-32 360q-1 17 -17 17t-25 -17l-186 -360h260z
" />
    <glyph glyph-name="B" unicode="B" horiz-adv-x="624" 
d="M291 700h224q66 0 108 -42t42 -105q0 -18 -4 -37q-10 -48 -42.5 -87.5t-78.5 -62.5q39 -17 61.5 -52.5t22.5 -80.5q0 -19 -4 -39q-17 -80 -87 -137t-151 -57h-240q-18 0 -29 10t-11 26q0 5 1 11l129 606q5 20 21.5 33.5t37.5 13.5zM239 390h210q51 0 95.5 37t55.5 89
q3 13 3 26q0 43 -28.5 72t-72.5 29h-210zM452 333h-226l-58 -276h226q55 0 104 40.5t61 96.5q3 15 3 29q0 47 -31 78.5t-79 31.5z" />
    <glyph glyph-name="C" unicode="C" horiz-adv-x="553" 
d="M455 700h170q11 0 18 -7t7 -17v-5q-3 -11 -14 -19.5t-23 -8.5h-170q-175 0 -215 -186l-46 -220q-6 -25 -6 -48q0 -61 36.5 -96.5t105.5 -35.5h169q12 0 19.5 -6.5t7.5 -16.5q0 -3 -1 -5q-2 -12 -13 -20.5t-23 -8.5h-171q-94 0 -144 46.5t-50 127.5q0 30 7 63l47 220
q51 243 289 243z" />
    <glyph glyph-name="D" unicode="D" horiz-adv-x="640" 
d="M103 47l129 606q5 20 21.5 33.5t37.5 13.5h193q195 0 195 -164q0 -35 -9 -79l-47 -220q-23 -107 -99.5 -172t-188.5 -65h-193q-18 0 -29 10t-11 26q0 5 1 11zM560 237l46 220q8 34 8 62q0 124 -142 124h-180l-124 -586h179q82 0 139 50t74 130z" />
    <glyph glyph-name="E" unicode="E" horiz-adv-x="562" 
d="M103 47l129 606q5 20 21.5 33.5t37.5 13.5h340q14 0 21 -6.5t7 -16.5q0 -3 -1 -7q-3 -12 -13 -20.5t-24 -8.5h-329l-52 -248h268q13 0 20.5 -6.5t7.5 -16.5q0 -3 -1 -6q-2 -13 -13 -21.5t-24 -8.5h-271l-58 -275h326q28 0 28 -23q0 -3 -1 -6q-3 -13 -13.5 -21.5
t-24.5 -8.5h-342q-18 0 -29 10t-11 27q0 5 1 10z" />
    <glyph glyph-name="F" unicode="F" horiz-adv-x="562" 
d="M498 334h-271l-64 -302q-3 -14 -14 -23t-24 -9q-12 0 -19 6.5t-7 16.5q0 3 1 7l132 623q5 20 21.5 33.5t37.5 13.5h340q14 0 21 -6.5t7 -16.5q0 -3 -1 -7q-3 -12 -13 -20.5t-24 -8.5h-329l-52 -248h268q13 0 20.5 -6.5t7.5 -16.5q0 -3 -1 -6q-2 -13 -13 -21.5t-24 -8.5z
" />
    <glyph glyph-name="G" unicode="G" horiz-adv-x="643" 
d="M562 302h-113q-13 0 -20 6.5t-7 16.5v6q3 11 14 20t23 9h129q18 0 29 -10.5t11 -26.5q0 -5 -1 -11l-57 -265q-4 -20 -20.5 -33.5t-37.5 -13.5h-206q-94 0 -144 46.5t-50 127.5q0 30 7 63l47 220q51 243 289 243h189q11 0 18 -7t7 -17q0 -2 -1 -5q-2 -11 -13 -19.5
t-23 -8.5h-189q-175 0 -214 -186l-47 -220q-5 -25 -5 -48q0 -61 36 -96.5t105 -35.5h192z" />
    <glyph glyph-name="H" unicode="H" horiz-adv-x="687" 
d="M612 380l62 290q3 13 13.5 21.5t24.5 8.5q11 0 18 -6.5t7 -17.5q0 -4 -1 -8l-135 -636q-3 -14 -13.5 -23t-24.5 -9q-12 0 -19 6.5t-7 16.5q0 3 1 7l62 292h-376l-61 -290q-3 -14 -14 -23t-24 -9q-12 0 -19 6.5t-7 16.5q0 3 1 7l136 640q3 13 13.5 21.5t24.5 8.5
q11 0 18 -6.5t7 -17.5q0 -4 -1 -8l-61 -288h375z" />
    <glyph glyph-name="I" unicode="I" horiz-adv-x="248" 
d="M100 30l136 640q3 13 13.5 21.5t24.5 8.5q11 0 18 -6.5t7 -17.5q0 -4 -1 -8l-135 -636q-3 -14 -14 -23t-24 -9q-12 0 -19 6.5t-7 16.5q0 3 1 7z" />
    <glyph glyph-name="J" unicode="J" horiz-adv-x="324" 
d="M373 668l-102 -484q-8 -37 -17.5 -65.5t-19 -48t-24 -32.5t-27 -20.5t-33 -11.5t-37 -5t-44.5 -1q-13 0 -20 6.5t-7 16.5q0 3 1 6q2 11 13 19.5t23 8.5q26 0 38.5 1t27.5 5.5t21.5 12t15 24t14.5 37.5t14 56l101 477q3 13 13.5 21.5t24.5 8.5q12 0 18.5 -6.5t6.5 -17.5
q0 -4 -1 -8z" />
    <glyph glyph-name="K" unicode="K" horiz-adv-x="566" 
d="M349 414l260 275q11 11 27 11q12 0 19 -6.5t7 -16.5q0 -3 -1 -7q-2 -9 -12 -19l-292 -304l177 -299q3 -6 3 -13q0 -3 -1 -5q-2 -13 -13 -21.5t-24 -8.5q-16 0 -22 11l-161 282q-12 23 -22 23h-71l-61 -284q-3 -14 -13.5 -23t-24.5 -9q-12 0 -18.5 6.5t-6.5 16.5q0 3 1 7
l136 640q3 13 13 21.5t24 8.5q12 0 19 -6.5t7 -16.5q0 -3 -1 -7l-62 -293h65q3 0 6.5 1t7.5 4t7 5.5t7.5 6.5t7 7t6.5 7z" />
    <glyph glyph-name="L" unicode="L" horiz-adv-x="521" 
d="M103 47l133 623q3 13 13.5 21.5t24.5 8.5q11 0 18 -6.5t7 -16.5v-7l-130 -611h296q12 0 19.5 -6.5t7.5 -16.5v-6q-3 -13 -14 -21.5t-24 -8.5h-311q-19 0 -30 10t-11 27q0 5 1 10z" />
    <glyph glyph-name="M" unicode="M" horiz-adv-x="802" 
d="M415 112l285 539q11 22 34.5 35.5t48.5 13.5q27 0 44 -17t17 -42q0 -8 -2 -15l-126 -596q-3 -13 -13.5 -21.5t-24.5 -8.5q-12 0 -18.5 6.5t-6.5 16.5v7l126 591q1 6 1 10q0 10 -7 11q-10 1 -20 -17l-318 -597q-14 -28 -45 -28t-33 28l-51 597q-2 19 -13 17t-15 -21
l-126 -591q-3 -13 -13.5 -21.5t-23.5 -8.5q-12 0 -19 6.5t-7 16.5q0 3 1 7l126 596q7 30 34 52t58 22q26 0 42.5 -14t18.5 -37z" />
    <glyph glyph-name="N" unicode="N" horiz-adv-x="676" 
d="M548 79l126 591q3 13 13.5 21.5t23.5 8.5q12 0 19 -6.5t7 -16.5q0 -3 -1 -7l-126 -593q-7 -33 -34 -55t-61 -22q-23 0 -40 12.5t-22 32.5l-141 581q-4 18 -17 16q-13 -1 -17 -21l-126 -591q-2 -13 -13 -21.5t-24 -8.5q-12 0 -19 6.5t-7 16.5q0 3 1 7l126 593
q7 33 34.5 55t60.5 22q23 0 40 -12.5t22 -32.5l142 -581q4 -18 16 -16q13 2 17 21z" />
    <glyph glyph-name="O" unicode="O" 
d="M455 700h45q196 0 196 -164q0 -35 -10 -79l-46 -220q-23 -107 -99.5 -172t-188.5 -65h-46q-94 0 -144 47t-50 127q0 30 7 63l47 220q51 243 289 243zM229 457l-46 -220q-6 -25 -6 -48q0 -61 36.5 -96.5t104.5 -35.5h46q82 0 138.5 50t73.5 130l47 220q7 34 7 62
q0 124 -142 124h-45q-174 0 -214 -186z" />
    <glyph glyph-name="P" unicode="P" horiz-adv-x="596" 
d="M100 30l132 623q5 20 21 33.5t37 13.5h225q66 0 108 -42t42 -104q0 -19 -4 -37q-16 -76 -82 -130t-143 -54h-210l-64 -301q-3 -14 -13.5 -23t-24.5 -9q-12 0 -18.5 6.5t-6.5 16.5q0 3 1 7zM239 390h210q51 0 96 37.5t56 89.5q2 13 2 25q0 43 -28.5 72t-72.5 29h-210z" />
    <glyph glyph-name="Q" unicode="Q" 
d="M454 699h46q195 0 195 -164q0 -36 -9 -79l-47 -220q-15 -70 -54 -122.5t-97 -81.5l71 -89q6 -6 6 -17v-6q-3 -13 -14 -22t-25 -9t-21 10l-86 107q-32 -7 -68 -7h-45q-94 0 -144.5 46.5t-50.5 127.5q0 30 7 63l47 220q52 243 289 243zM576 236l47 220q7 34 7 62
q0 123 -142 123h-46q-173 0 -213 -185l-47 -220q-5 -26 -5 -49q0 -60 36 -95.5t105 -35.5h45q83 0 139.5 50t73.5 130z" />
    <glyph glyph-name="R" unicode="R" horiz-adv-x="609" 
d="M290 700h225q66 0 108 -42t42 -104q0 -19 -4 -37q-14 -67 -69.5 -117.5t-122.5 -59.5l-19 -2l96 -294q1 -4 1 -8q0 -3 -1 -6q-3 -13 -13.5 -21.5t-23.5 -8.5q-20 0 -25 17l-104 316h-154l-64 -303q-3 -13 -13.5 -21.5t-24.5 -8.5q-12 0 -18.5 6.5t-6.5 16.5q0 3 1 7
l132 623q5 20 21 33.5t37 13.5zM239 390h210q50 0 95.5 37.5t56.5 89.5q2 13 2 25q0 43 -28.5 72t-72.5 29h-210z" />
    <glyph glyph-name="S" unicode="S" horiz-adv-x="531" 
d="M269 0h-192q-11 0 -18 6.5t-7 16.5q0 3 1 6q2 11 13 19.5t23 8.5h193q78 0 124 36t63 116q4 18 4 33q0 40 -30.5 58t-105.5 33q-27 5 -41.5 8.5t-37.5 10t-35.5 13t-28 17t-23.5 23t-13.5 30t-5.5 38.5q0 22 6 50q38 177 259 177h169q12 0 19 -6.5t7 -16.5q0 -3 -1 -6
q-2 -11 -13 -19.5t-23 -8.5h-170q-81 0 -127 -28t-60 -92q-4 -20 -4 -36q0 -20 7.5 -35t18 -24t32.5 -16.5t39 -11.5t50 -10q89 -16 131.5 -44.5t42.5 -89.5q0 -21 -5 -47q-23 -109 -88 -159t-173 -50z" />
    <glyph glyph-name="T" unicode="T" horiz-adv-x="583" 
d="M216 700h448q12 0 19 -7t7 -16v-6q-3 -11 -13.5 -19.5t-23.5 -8.5h-193l-130 -614q-2 -11 -13.5 -20t-23.5 -9q-11 0 -18 7t-7 16v6l131 613h-195q-11 0 -18 7t-7 17v5q3 11 14 20t23 9z" />
    <glyph glyph-name="U" unicode="U" horiz-adv-x="660" 
d="M136 206l99 465q2 11 13.5 20t23.5 9q11 0 18 -7t7 -17q0 -2 -1 -5l-98 -465q-5 -21 -5 -41q0 -51 28 -80t70 -29h121q55 0 94.5 41t54.5 109l98 463q3 13 14 22t23 9q11 0 18.5 -7t7.5 -17q0 -3 -1 -5l-98 -465q-20 -93 -80.5 -150.5t-143.5 -57.5h-121q-65 0 -107 39.5
t-42 111.5q0 27 7 57z" />
    <glyph glyph-name="V" unicode="V" horiz-adv-x="579" 
d="M329 76l295 598q13 27 41 26q21 -1 21 -22q0 -8 -3 -15l-295 -602q-13 -26 -40.5 -43.5t-57.5 -17.5q-32 0 -51.5 18t-21.5 46l-38 599q-1 13 9.5 24.5t25.5 12.5q27 1 28 -26l40 -598q1 -18 20 -18t27 18z" />
    <glyph glyph-name="W" unicode="W" horiz-adv-x="750" 
d="M132 62l47 605q1 15 13 24t25 9t20 -7.5t6 -18.5l-48 -596q-1 -3 -1 -5q0 -14 9 -15t20 16l201 319q14 22 40 22q25 0 30 -20l65 -321q2 -8 5 -12t8 -4q11 1 17 20l207 598q3 10 13.5 17t22.5 7q11 0 18.5 -6t7.5 -17q0 -5 -2 -10l-211 -605q-10 -28 -33.5 -45t-51.5 -17
q-24 0 -40.5 12.5t-20.5 32.5l-55 275l-174 -276q-12 -19 -33.5 -31.5t-45.5 -12.5q-27 0 -43 15.5t-16 40.5v6z" />
    <glyph glyph-name="X" unicode="X" horiz-adv-x="554" 
d="M363 397l245 289q11 14 28 14q12 0 18.5 -6.5t6.5 -16.5v-7q-2 -8 -10 -17l-258 -306l130 -302q3 -6 3 -12q0 -2 -1 -3q-3 -13 -13.5 -21.5t-23.5 -8.5q-18 0 -24 14l-121 285l-245 -285q-12 -14 -30 -14q-12 0 -19 6.5t-7 16.5q0 3 1 7q2 8 9 16l260 301l-132 312
q-1 3 -1 7v4q3 13 13.5 21.5t24.5 8.5q17 0 23 -16z" />
    <glyph glyph-name="Y" unicode="Y" horiz-adv-x="547" 
d="M358 389l240 295q12 15 29 15h4q23 -2 23 -23q0 -11 -8 -20l-272 -337l-61 -289q-3 -13 -13.5 -21.5t-24.5 -8.5q-11 0 -18 6.5t-7 16.5v7l62 289l-132 335q-2 4 -2 9q0 13 10 23.5t25 12.5h6q16 0 21 -14z" />
    <glyph glyph-name="Z" unicode="Z" horiz-adv-x="544" 
d="M225 700h352q26 0 41.5 -15t15.5 -39q0 -7 -2 -14q-4 -22 -25 -43l-472 -503q-12 -14 -12 -20q0 -8 19 -8h335q13 0 20.5 -6.5t7.5 -16.5q0 -3 -1 -6q-2 -13 -13 -21t-24 -8h-351q-25 0 -40.5 15t-15.5 38q0 8 1 15q5 23 20 38l476 508q13 14 13 20q0 8 -19 8h-338
q-11 0 -17.5 7t-6.5 17v5q3 11 13.5 20t22.5 9z" />
    <glyph glyph-name="bracketleft" unicode="[" horiz-adv-x="293" 
d="M30 -77l164 773q4 19 19 31t35 12h126q26 0 26 -21q0 -3 -1 -7q-2 -11 -12 -19t-23 -8h-112l-159 -749h110q26 0 26 -21q0 -3 -1 -6q-2 -12 -12 -20t-23 -8h-128q-17 0 -26.5 9t-9.5 24q0 5 1 10z" />
    <glyph glyph-name="backslash" unicode="\" horiz-adv-x="435" 
d="M340 15l-150 647q-1 4 -1 8q0 21 20 28q7 3 13 3q18 0 22 -17l151 -649v-6q0 -17 -19 -27q-7 -3 -14 -3q-18 0 -22 16z" />
    <glyph glyph-name="bracketright" unicode="]" horiz-adv-x="293" 
d="M396 696l-165 -773q-4 -19 -18.5 -31t-34.5 -12h-128q-11 0 -17.5 6t-6.5 16q0 3 1 6q2 11 12.5 19t24.5 8h109l159 749h-111q-11 0 -17.5 6t-6.5 16v5q3 13 13.5 20.5t24.5 7.5h126q16 0 26 -9t10 -24q0 -5 -1 -10z" />
    <glyph glyph-name="asciicircum" unicode="^" horiz-adv-x="574" 
d="M140 398l252 293q18 20 43 20q26 0 34 -19l134 -291q2 -4 2 -9q0 -17 -17 -27q-8 -5 -17 -5q-17 0 -23 13l-121 255q-3 6 -9 6t-11 -7l-225 -257q-9 -11 -24 -11q-10 0 -16 5q-8 6 -8 17q0 10 6 17z" />
    <glyph glyph-name="underscore" unicode="_" horiz-adv-x="529" 
d="M427 -122h-377q-23 3 -23 23v6q3 11 13 19.5t24 8.5h375q25 0 25 -22q0 -3 -1 -7q-3 -12 -12.5 -20t-23.5 -8z" />
    <glyph glyph-name="grave" unicode="`" horiz-adv-x="268" 
d="M322 593l-133 69q-14 7 -14 20q0 9 6 17q11 16 28 16q7 0 13 -3l136 -72q12 -7 12 -20q0 -9 -6 -16q-10 -14 -26 -14q-8 0 -16 3z" />
    <glyph glyph-name="a" unicode="a" horiz-adv-x="472" 
d="M369 455h-175q-25 0 -25 21q0 3 1 6q2 11 11.5 19t22.5 8h180q51 0 81 -31t30 -80q0 -17 -4 -35l-68 -321q-4 -18 -19 -30t-34 -12h-185q-52 0 -85.5 32.5t-33.5 81.5q0 15 3 30q13 60 65 102.5t113 42.5h169l15 70q2 14 2 26q0 32 -17 51t-47 19zM197 56h169l38 178
h-169q-35 0 -67 -27t-40 -63q-2 -9 -2 -18q0 -30 20 -50t51 -20z" />
    <glyph glyph-name="b" unicode="b" horiz-adv-x="497" 
d="M76 44l133 627q3 13 13.5 21t22.5 8q11 0 18 -6.5t7 -15.5q0 -3 -1 -7l-34 -162h161q56 0 92 -34t36 -92q0 -20 -4 -41l-33 -153q-6 -30 -21.5 -61t-39.5 -60.5t-61 -48.5t-79 -19h-174q-16 0 -26.5 10.5t-10.5 25.5q0 4 1 8zM223 455l-84 -398h159q43 0 80.5 38t49.5 97
l32 150q3 14 3 28q0 38 -22.5 61.5t-56.5 23.5h-161z" />
    <glyph glyph-name="c" unicode="c" horiz-adv-x="429" 
d="M355 509h113q11 0 17 -6t6 -15q0 -3 -1 -6q-2 -12 -11.5 -19.5t-22.5 -7.5h-112q-72 0 -113 -37.5t-57 -112.5l-20 -95q-7 -31 -7 -56q0 -100 112 -100h112q11 0 17 -6t6 -15q0 -3 -1 -6q-2 -12 -11.5 -19.5t-21.5 -7.5h-113q-161 0 -161 139q0 32 9 72l20 94
q43 204 240 204z" />
    <glyph glyph-name="d" unicode="d" horiz-adv-x="497" 
d="M573 671l-133 -627q-4 -18 -20 -31t-35 -13h-174q-34 0 -59.5 12.5t-39.5 33.5t-20.5 44.5t-6.5 50.5q0 25 5 48l33 153q16 75 72 121t123 46h161l34 162q3 13 13 21t23 8q11 0 18 -6.5t7 -16.5q0 -3 -1 -6zM383 57l84 398h-161q-40 0 -76.5 -32t-46.5 -81l-32 -150
q-5 -21 -5 -40q0 -43 21.5 -69t55.5 -26h160z" />
    <glyph glyph-name="e" unicode="e" horiz-adv-x="476" 
d="M100 237l17 78q19 89 84 141.5t147 52.5q78 0 119 -35.5t41 -101.5q0 -27 -7 -57l-10 -47q-3 -18 -18.5 -30t-33.5 -12h-280q-10 -50 -10 -82q0 -47 23 -68.5t77 -21.5h151q25 0 25 -21q0 -3 -1 -6q-2 -12 -11.5 -19.5t-22.5 -7.5h-154q-80 0 -114.5 31.5t-34.5 98.5
q0 42 13 107zM433 276l9 43q4 23 4 41q0 95 -110 95q-59 0 -101.5 -37t-56.5 -98l-9 -44h264z" />
    <glyph glyph-name="f" unicode="f" horiz-adv-x="334" 
d="M160 509h46q27 94 82.5 141.5t139.5 60.5q13 2 20.5 -4.5t7.5 -16.5v-6q-5 -22 -28 -27q-125 -18 -162 -148h125q11 0 17 -6t6 -15v-6q-3 -12 -12.5 -19.5t-21.5 -7.5h-125l-91 -426q-3 -13 -13.5 -21t-23.5 -8q-11 0 -17.5 6t-6.5 16q0 3 1 7l91 426h-47q-10 0 -16.5 6
t-6.5 15q0 3 1 6q2 12 11.5 19.5t22.5 7.5z" />
    <glyph glyph-name="g" unicode="g" horiz-adv-x="497" 
d="M319 509h176q17 0 26.5 -9t9.5 -24q0 -5 -1 -9l-99 -463q-25 -120 -77.5 -175t-157.5 -55h-152q-25 0 -25 21q0 3 1 6q2 11 11.5 19t22.5 8h153q71 0 106 39t57 133h-161q-56 0 -92 33.5t-36 91.5q0 20 5 42l32 152q6 30 21.5 61.5t39.5 61t61 48.5t79 19zM383 56l84 396
h-160q-43 0 -80 -38t-50 -97l-32 -150q-3 -14 -3 -28q0 -37 22.5 -60t56.5 -23h162z" />
    <glyph glyph-name="h" unicode="h" horiz-adv-x="515" 
d="M79 28l137 643q2 13 12.5 21t23.5 8q11 0 17.5 -6.5t6.5 -15.5v-7l-35 -162h163q57 0 93 -34t36 -92q0 -20 -5 -41l-66 -314q-3 -13 -13.5 -20.5t-23.5 -7.5q-24 0 -24 21q0 3 1 7l66 312q3 15 3 29q0 39 -22 62.5t-56 23.5h-163l-91 -427q-3 -13 -13 -20.5t-23 -7.5
q-25 0 -25 21q0 3 1 7z" />
    <glyph glyph-name="i" unicode="i" horiz-adv-x="200" 
d="M213 647l4 19q2 13 12 21t23 8q11 0 18 -6t7 -16q0 -3 -1 -7l-4 -19q-3 -12 -13 -20t-23 -8q-24 0 -24 22q0 3 1 6zM81 28l96 452q3 13 12.5 21t22.5 8q12 0 18.5 -6t6.5 -16q0 -4 -1 -7l-96 -452q-2 -13 -12 -20.5t-24 -7.5q-24 0 -24 21q0 3 1 7z" />
    <glyph glyph-name="j" unicode="j" horiz-adv-x="198" 
d="M87 68l88 412q3 12 13 20.5t23 8.5q11 0 18 -6t7 -17q0 -3 -1 -6l-88 -413q-10 -47 -27 -82t-52 -74l-74 -82q-10 -11 -25 -11q-11 0 -17 6q-8 7 -8 18q0 12 10 22l68 75q50 57 65 129zM210 647l5 20q2 12 12.5 20t23.5 8q11 0 17.5 -6t6.5 -16v-6l-5 -20
q-2 -12 -12 -19.5t-23 -7.5q-12 0 -18.5 5.5t-6.5 15.5v6z" />
    <glyph glyph-name="k" unicode="k" horiz-adv-x="459" 
d="M81 29l137 642q2 13 12 21t24 8q11 0 17.5 -6t6.5 -16v-7l-79 -368h69q8 0 18 9l184 177q11 11 26 11q11 0 18 -7t7 -16q0 -12 -13 -24l-189 -180l122 -228q2 -5 2 -10q0 -16 -15 -27q-10 -8 -22 -8q-16 0 -22 12l-108 209l-6 11q-1 3 -5 6.5t-9 3.5h-70l-45 -212
q-2 -13 -12.5 -21.5t-23.5 -8.5q-11 0 -18 6t-7 16q0 3 1 7z" />
    <glyph glyph-name="l" unicode="l" horiz-adv-x="193" 
d="M81 29l137 642q2 13 12.5 21t23.5 8q11 0 17.5 -6.5t6.5 -16.5v-8l-136 -639q-3 -13 -13.5 -21.5t-23.5 -8.5q-11 0 -18 6t-7 16q0 3 1 7z" />
    <glyph glyph-name="m" unicode="m" horiz-adv-x="780" 
d="M462 455h-240l-90 -425q-3 -13 -13 -21.5t-23 -8.5q-12 0 -18 6.5t-6 16.5q0 3 1 6l93 436q3 17 18.5 30.5t35.5 13.5h452q56 0 92 -34t36 -92q0 -20 -5 -41l-66 -313q-3 -12 -13.5 -20.5t-22.5 -8.5t-18 6.5t-6 16.5q0 3 1 6l66 313q3 14 3 27q0 39 -22.5 62.5
t-56.5 23.5h-139l-91 -425q-2 -13 -12.5 -21.5t-23.5 -8.5q-11 0 -17 6.5t-6 16.5v6z" />
    <glyph glyph-name="n" unicode="n" horiz-adv-x="507" 
d="M221 509h177q56 0 92 -34t36 -92q0 -20 -4 -41l-67 -313q-2 -12 -13 -20.5t-24 -8.5q-11 0 -17 6.5t-6 16.5v6l67 313q3 16 3 31q0 37 -21 59.5t-58 22.5h-163l-90 -425q-3 -13 -13.5 -21.5t-22.5 -8.5t-18.5 6.5t-6.5 16.5q0 3 1 6l92 436q4 18 19.5 31t36.5 13z" />
    <glyph glyph-name="o" unicode="o" horiz-adv-x="498" 
d="M279 -4h-61q-62 0 -99 35.5t-37 96.5q0 20 4 42l33 154q17 79 76 131.5t132 52.5h61q61 0 97.5 -38.5t36.5 -100.5q0 -22 -5 -45l-33 -154q-16 -77 -74.5 -125.5t-130.5 -48.5zM229 48h61q48 0 85.5 34t48.5 85l35 162q3 16 3 32q0 42 -23 69t-62 27h-61
q-48 0 -86.5 -37.5t-49.5 -90.5l-35 -162q-3 -16 -3 -30q0 -40 23.5 -64.5t63.5 -24.5z" />
    <glyph glyph-name="p" unicode="p" horiz-adv-x="505" 
d="M41 -161l133 626q4 17 20 30.5t35 13.5h173q35 0 60.5 -12.5t39.5 -33.5t20 -45t6 -51q0 -25 -4 -48l-33 -152q-16 -76 -72 -121.5t-123 -45.5h-161l-34 -161q-3 -12 -13 -20t-23 -8q-11 0 -18 6t-7 16q0 3 1 6zM231 452l-84 -398h161q40 0 76.5 32t46.5 81l32 150
q4 21 4 40q0 43 -21 69t-56 26h-159z" />
    <glyph glyph-name="q" unicode="q" horiz-adv-x="497" 
d="M529 465l-132 -625q-3 -12 -13.5 -20.5t-23.5 -8.5q-11 0 -17.5 6.5t-6.5 16.5q0 3 1 6l34 160h-162q-56 0 -92 33.5t-36 91.5q0 20 5 42l32 152q6 30 21.5 61.5t39.5 61t61 48.5t79 19h174q16 0 26.5 -10.5t10.5 -25.5q0 -4 -1 -8zM382 54l85 398h-160q-43 0 -80 -38
t-50 -97l-32 -150q-3 -14 -3 -28q0 -38 22.5 -61.5t56.5 -23.5h161z" />
    <glyph glyph-name="r" unicode="r" horiz-adv-x="348" 
d="M374 519h31q12 0 18.5 -6t6.5 -15v-6q-3 -12 -12.5 -19.5t-22.5 -7.5h-32q-69 0 -111.5 -37.5t-56.5 -105.5l-63 -294q-2 -13 -12.5 -20.5t-23.5 -7.5q-24 0 -24 21q0 3 1 7l99 465q5 26 30 26q20 0 20 -18v-8l-8 -41q56 67 160 67z" />
    <glyph glyph-name="s" unicode="s" horiz-adv-x="457" 
d="M323 509h151q12 0 18.5 -6t6.5 -16v-5q-3 -12 -12.5 -20t-21.5 -8h-154q-51 0 -86.5 -20t-44.5 -63q-2 -11 -2 -20q0 -28 24.5 -41.5t81.5 -20.5l34 -6q132 -18 132 -106q0 -15 -3 -31q-17 -80 -74 -113t-148 -33h-140q-10 0 -16.5 6t-6.5 15q0 3 1 6q2 11 12 19t22 8
h140q130 0 149 91q2 8 2 16q0 27 -23 45t-67 23l-42 5q-68 8 -103.5 32t-35.5 71q0 15 3 32q15 71 71 105.5t132 34.5z" />
    <glyph glyph-name="t" unicode="t" horiz-adv-x="362" 
d="M214 509l18 84q3 12 13 20.5t23 8.5q11 0 18 -6.5t7 -16.5q0 -3 -1 -6l-18 -84h128q13 0 19.5 -6t6.5 -16v-7q-3 -12 -12.5 -19.5t-23.5 -7.5h-130l-63 -296q-6 -27 -6 -47q0 -32 18 -47.5t58 -15.5h37q11 0 17.5 -6.5t6.5 -16.5q0 -3 -1 -6q-2 -12 -12 -20t-23 -8h-37
q-125 0 -125 107q0 27 7 60l63 296h-53q-11 0 -17.5 5.5t-6.5 15.5v6q3 13 13 21t23 8h53z" />
    <glyph glyph-name="u" unicode="u" horiz-adv-x="499" 
d="M392 54l91 424q2 12 12.5 21.5t23.5 9.5q11 0 17.5 -7t6.5 -17v-5l-93 -436q-4 -18 -19 -31t-36 -13h-177q-56 0 -92.5 33.5t-36.5 91.5q0 20 5 42l66 313q3 11 13.5 20t23.5 9q11 0 17.5 -7t6.5 -17q0 -2 -1 -5l-66 -313q-3 -14 -3 -28q0 -38 22 -61.5t56 -23.5h163z
" />
    <glyph glyph-name="v" unicode="v" horiz-adv-x="445" 
d="M264 74l204 413q11 23 35 22q23 -1 23 -22q0 -9 -5 -18l-211 -416q-12 -23 -36 -38t-51 -15t-44.5 15t-19.5 38l-34 423q0 13 10.5 23t24.5 10q11 1 18 -5t8 -16l30 -414q2 -18 21 -18q18 0 27 18z" />
    <glyph glyph-name="w" unicode="w" horiz-adv-x="731" 
d="M565 74l187 407q14 29 37 28q22 -1 22 -22q0 -8 -5 -18l-188 -412q-12 -25 -37 -41t-54 -16q-28 0 -45 15.5t-19 40.5l-19 315l-154 -315q-12 -25 -36.5 -40.5t-53.5 -15.5q-28 0 -45.5 16t-18.5 41l-11 419q0 14 11 23.5t25 9.5q11 0 17 -6.5t6 -15.5l13 -413
q1 -18 16.5 -18t24.5 18l190 391q12 23 40.5 23t29.5 -23l25 -391q2 -18 17.5 -18t24.5 18z" />
    <glyph glyph-name="x" unicode="x" horiz-adv-x="418" 
d="M274 305l168 190q12 14 28 14q10 0 17 -6t7 -15q0 -12 -12 -26l-183 -206l98 -211q3 -7 3 -13q0 -15 -14 -25q-10 -7 -20 -7q-17 0 -23 13l-89 195l-173 -195q-11 -13 -27 -13q-10 0 -16 6q-7 6 -7 16q0 11 9 22l188 212l-96 209q-2 5 -2 12q0 18 18 27q8 5 16 5
q16 0 22 -13z" />
    <glyph glyph-name="y" unicode="y" horiz-adv-x="440" 
d="M239 63l223 423q13 24 37 23q22 -1 22 -20q0 -8 -4 -16l-357 -677q-11 -20 -33 -19q-11 1 -16.5 7t-5.5 15q0 6 2 12l102 193l-12 2q-27 7 -30 34l-42 433v2q0 12 9.5 22t23.5 11q12 2 19 -4.5t8 -16.5l41 -424q1 -7 5 -7t8 7z" />
    <glyph glyph-name="z" unicode="z" horiz-adv-x="457" 
d="M199 509h286q15 0 24 -7.5t9 -18.5q0 -4 -1 -7q-3 -14 -16 -28l-369 -393h262q26 0 26 -21q0 -3 -1 -7q-2 -12 -11.5 -19.5t-22.5 -7.5h-305q-15 0 -23.5 7t-8.5 19q0 3 1 7q3 16 15 28l373 393h-250q-11 0 -17 6t-6 15q0 3 1 6q2 12 11.5 20t22.5 8z" />
    <glyph glyph-name="braceleft" unicode="{" horiz-adv-x="430" 
d="M280 168l-50 -233h110q25 0 25 -21v-6q-3 -12 -12.5 -20t-22.5 -8h-129q-16 0 -25.5 9t-9.5 24q0 5 1 10l52 245q3 14 3 27q0 39 -24 63t-62 24q-10 0 -17 6.5t-7 16.5q0 3 1 5q2 11 12.5 19.5t23.5 8.5q45 0 82.5 32.5t47.5 81.5l52 244q4 19 19 31t34 12h127
q25 0 25 -21v-7q-3 -11 -12.5 -19t-22.5 -8h-112l-49 -232q-10 -50 -41.5 -87t-76.5 -54q62 -31 62 -105q0 -19 -4 -38z" />
    <glyph glyph-name="bar" unicode="|" horiz-adv-x="153" 
d="M37 -43l152 719q3 13 13.5 21.5t24.5 8.5q11 0 18 -6.5t7 -17.5q0 -3 -1 -8l-152 -715q-3 -13 -13.5 -22t-24.5 -9q-12 0 -18.5 6.5t-6.5 16.5q0 3 1 6z" />
    <glyph glyph-name="braceright" unicode="}" horiz-adv-x="430" 
d="M173 -65l49 233q11 50 42.5 87t76.5 56q-62 29 -62 104q0 18 4 37l49 232h-111q-11 0 -17.5 6t-6.5 15q0 3 1 7q2 11 12 19t24 8h126q17 0 27 -9t10 -24q0 -5 -1 -10l-52 -244q-3 -14 -3 -27q0 -39 23.5 -63t61.5 -24q11 0 18 -6.5t7 -15.5q0 -3 -1 -6
q-2 -11 -12.5 -19.5t-23.5 -8.5q-45 0 -82.5 -32.5t-48.5 -81.5l-52 -245q-4 -19 -19 -31t-34 -12h-128q-11 0 -17.5 6t-6.5 16q0 3 1 6q3 12 12.5 19.5t23.5 7.5h110z" />
    <glyph glyph-name="asciitilde" unicode="~" horiz-adv-x="589" 
d="M577 303q10 0 17 -6.5t7 -16.5v-5q-13 -59 -66 -102t-112 -43q-39 0 -69.5 20t-42.5 52q-7 20 -24.5 32t-40.5 12q-35 0 -66 -26t-39 -62q-3 -11 -13.5 -19.5t-22.5 -8.5q-11 0 -18 6.5t-7 16.5q0 2 1 5q13 60 65 102.5t112 42.5q40 0 70 -20t42 -52q7 -21 24.5 -32.5
t40.5 -11.5q35 0 65.5 25t40.5 63q10 28 36 28z" />
    <glyph glyph-name="nonbreakingspace" unicode="&#xa0;" horiz-adv-x="340" 
 />
    <glyph glyph-name="exclamdown" unicode="&#xa1;" horiz-adv-x="152" 
d="M17 -137l94 442q2 13 12 21.5t24 8.5q11 0 18 -6.5t7 -16.5v-7l-95 -442q-2 -13 -12.5 -21t-24.5 -8q-24 0 -24 22q0 3 1 7zM144 462l9 43q3 13 13 21.5t23 8.5q12 0 19 -6.5t7 -17.5q0 -3 -1 -6l-9 -43q-3 -12 -13.5 -20t-23.5 -8q-25 0 -25 21q0 3 1 7z" />
    <glyph glyph-name="cent" unicode="&#xa2;" horiz-adv-x="432" 
d="M336 508l12 55q2 10 9.5 16.5t18.5 6.5q9 0 14 -5t5 -12v-5l-12 -55h80q11 0 17 -6t6 -15q0 -3 -1 -6q-2 -12 -11.5 -19.5t-22.5 -7.5h-79l-86 -401h80q11 0 17 -6t6 -15v-6q-3 -12 -12.5 -19.5t-21.5 -7.5h-80l-12 -55q-2 -9 -10 -15.5t-18 -6.5q-19 0 -19 17q0 4 1 7
l11 53q-146 6 -146 139q0 32 8 72l20 94q42 196 226 203zM239 54l85 400q-124 -7 -155 -149l-20 -95q-6 -29 -6 -53q0 -96 96 -103z" />
    <glyph glyph-name="sterling" unicode="&#xa3;" horiz-adv-x="493" 
d="M428 700h97q12 0 19 -6t7 -16v-5q-3 -12 -13 -20t-23 -8h-99q-44 0 -69.5 -27t-41.5 -101l-22 -105h143q12 0 19 -5.5t7 -15.5q0 -3 -1 -6q-2 -12 -12 -19.5t-22 -7.5h-146l-64 -303h220q26 0 26 -21q0 -3 -1 -6q-2 -12 -11.5 -20t-22.5 -8h-342q-11 0 -17.5 6t-6.5 16v6
q3 11 13 19t22 8h59l65 303h-46q-12 0 -19 6t-7 15q0 3 1 6q3 12 13 19.5t22 7.5h47l22 105q23 106 65.5 144.5t118.5 38.5z" />
    <glyph glyph-name="yen" unicode="&#xa5;" horiz-adv-x="551" 
d="M360 389l240 295q12 16 30 16q11 0 18 -6q8 -7 8 -18t-8 -20l-177 -220h96q11 0 17.5 -6.5t6.5 -16.5v-7q-3 -12 -13.5 -20t-23.5 -8h-130l-48 -59l-9 -44h165q12 0 18.5 -6t6.5 -16q0 -4 -1 -7q-2 -12 -12.5 -20t-23.5 -8h-165l-40 -188q-3 -13 -13.5 -21.5t-24.5 -8.5
q-11 0 -18 6.5t-7 16.5v7l40 188h-168q-24 3 -24 23v6q3 11 13.5 19.5t23.5 8.5h168l9 44l-23 59h-133q-24 3 -24 23v6q3 11 13.5 20t24.5 9h96l-86 218q-1 4 -1 9q0 20 18 31q10 6 20 6q17 0 23 -15z" />
    <glyph glyph-name="brokenbar" unicode="&#xa6;" horiz-adv-x="152" 
d="M133 410l64 302q3 12 13 20t24 8q11 0 18 -6t7 -16q0 -3 -1 -6l-64 -303q-5 -13 -15 -21t-23 -8q-10 0 -17 6.5t-7 17.5q0 3 1 6zM37 -40l64 302q3 12 13 20.5t24 8.5q12 0 18.5 -6t6.5 -16q0 -3 -1 -7l-64 -301q-7 -31 -37 -31q-11 0 -18 6.5t-7 17.5q0 3 1 6z" />
    <glyph glyph-name="section" unicode="&#xa7;" horiz-adv-x="468" 
d="M350 611h151q11 0 18 -6t7 -16q0 -2 -1 -5q-2 -12 -12 -19.5t-22 -7.5h-152q-111 0 -126 -75q-3 -10 -3 -18q0 -28 24.5 -42.5t78.5 -21.5l35 -4q131 -20 131 -106q0 -15 -4 -31q-16 -78 -82 -112q40 -27 40 -72q0 -13 -3 -28q-17 -79 -73 -112t-147 -33h-139
q-10 0 -16.5 6t-6.5 16v5q3 11 12.5 18.5t22.5 7.5h138q128 0 147 91q2 9 2 16q0 57 -88 67l-41 5q-68 8 -103.5 32t-35.5 71q0 15 4 32q17 78 98 105q-57 25 -57 76q0 14 4 30q28 131 199 131zM328 341l-41 5q-103 0 -119 -75q-2 -10 -2 -18q0 -29 25 -43t77 -21l40 -6
q17 -2 33 -7q59 20 72 82q2 8 2 16q0 57 -87 67z" />
    <glyph glyph-name="dieresis" unicode="&#xa8;" horiz-adv-x="269" 
d="M322 657l6 28q2 12 11.5 20t22.5 8q11 0 17.5 -6t6.5 -16q0 -3 -1 -6l-6 -28q-2 -11 -11.5 -19t-22.5 -8q-24 0 -24 21q0 3 1 6zM170 657l5 28q3 12 12.5 20t22.5 8q11 0 17.5 -6t6.5 -16q0 -3 -1 -6l-6 -28q-2 -11 -11.5 -19t-23.5 -8q-23 0 -23 21q0 3 1 6z" />
    <glyph glyph-name="copyright" unicode="&#xa9;" horiz-adv-x="611" 
d="M454 699q95 0 153 -60.5t58 -152.5q0 -29 -7 -60q-23 -113 -116 -192t-204 -79q-95 0 -153 59.5t-58 151.5q0 29 7 60q24 113 116.5 193t203.5 80zM444 656q-93 0 -170.5 -67.5t-97.5 -162.5q-5 -26 -5 -51q0 -77 48 -127.5t128 -50.5q93 0 171 67t98 162q6 26 6 50
q0 78 -49 129t-129 51zM427 579h55q16 0 16 -16v-4q-2 -9 -9 -15t-16 -6h-55q-43 0 -61.5 -26.5t-31.5 -86.5q-7 -34 -7 -56q0 -27 12 -40.5t41 -13.5h55q16 0 16 -16v-5q-2 -8 -9 -14t-16 -6h-55q-46 0 -66 21t-20 62q0 27 9 68q16 77 47 115.5t95 38.5z" />
    <glyph glyph-name="ordfeminine" unicode="&#xaa;" horiz-adv-x="335" 
d="M230 659h107q32 0 51 -19.5t19 -51.5q0 -11 -3 -23l-39 -185q-4 -16 -16.5 -27t-28.5 -11h-104q-33 0 -54 21t-21 53q0 9 2 19q8 38 41 65t71 27h97l8 36q1 8 1 15q0 17 -8.5 28t-24.5 11h-107q-19 0 -19 15q0 2 1 5q5 22 27 22zM322 385l21 97h-98q-19 0 -36.5 -14
t-21.5 -33q-1 -5 -1 -10q0 -16 11 -28t28 -12h97z" />
    <glyph glyph-name="guillemotleft" unicode="&#xab;" horiz-adv-x="504" 
d="M137 312l131 88q9 6 20 6q15 0 21 -11q2 -5 2 -11q0 -16 -16 -27l-113 -77q-7 -5 -8 -10v-3q0 -4 3 -8l78 -78q9 -8 9 -18q0 -13 -11 -23t-24 -10q-10 0 -17 7l-96 97q-12 13 -12 29v7q5 24 33 42zM357 310l133 89q10 6 21 6q14 0 20 -9q4 -5 4 -12q0 -16 -17 -27
l-112 -77q-7 -4 -9 -10v-3q0 -4 4 -7l78 -80q8 -8 8 -18q0 -12 -11 -22q-11 -9 -23 -9t-19 7l-94 96q-13 13 -13 29q0 3 1 7q5 24 29 40z" />
    <glyph glyph-name="registered" unicode="&#xae;" horiz-adv-x="611" 
d="M454 699q95 0 152.5 -60t57.5 -152q0 -30 -6 -61q-24 -113 -116.5 -192.5t-203.5 -79.5q-95 0 -152.5 59.5t-57.5 151.5q0 30 6 61q24 114 116 193.5t204 79.5zM444 655q-93 0 -169.5 -66.5t-97.5 -162.5q-6 -27 -6 -52q0 -77 48 -126.5t128 -49.5q94 0 171 66t97 162
q6 26 6 52q0 77 -48.5 127t-128.5 50zM361 582h69q90 0 90 -64q0 -12 -2 -26q-16 -71 -79 -87l30 -106v-5q0 -11 -10 -18q-6 -3 -12 -3q-13 0 -16 10l-36 118h-66l-24 -110q-1 -8 -8 -13.5t-15 -5.5q-16 0 -16 15q0 2 1 4l55 259q3 13 14 22.5t25 9.5zM337 438h77
q54 0 65 54q2 8 2 15q0 37 -57 37h-65z" />
    <glyph glyph-name="macron" unicode="&#xaf;" horiz-adv-x="316" 
d="M214 736h203q22 0 22 -21q0 -4 -1 -8q-3 -13 -12 -21t-21 -8h-203q-10 0 -16 6t-6 16v7q3 13 12.5 21t21.5 8z" />
    <glyph glyph-name="degree" unicode="&#xb0;" horiz-adv-x="380" 
d="M338 696q55 0 87 -29.5t32 -79.5q0 -16 -4 -35q-14 -63 -62.5 -102.5t-113.5 -39.5q-55 0 -86.5 29t-31.5 79q0 16 3 34q14 64 63 104t113 40zM327 644q-39 0 -69 -25.5t-38 -66.5q-3 -12 -3 -23q0 -31 19 -49t52 -18q40 0 70.5 25t39.5 65q2 12 2 23q0 32 -19.5 50.5
t-53.5 18.5z" />
    <glyph glyph-name="plusminus" unicode="&#xb1;" horiz-adv-x="529" 
d="M313 384l22 105q3 11 14 19t24 8q11 0 17 -6t6 -16v-6l-22 -104h161q24 0 24 -22q0 -4 -1 -7q-2 -13 -12 -21t-23 -8h-162l-23 -108q-2 -12 -13 -20t-24 -8q-10 0 -17 6.5t-7 16.5q0 3 1 6l22 107h-155q-11 0 -17 6.5t-6 16.5q0 3 1 7q2 11 12.5 19.5t23.5 8.5h154z
M102 113h375q12 0 18.5 -6t6.5 -16q0 -3 -1 -7q-3 -13 -12.5 -20.5t-23.5 -7.5h-365q-36 0 -36 22q0 3 1 7q3 11 13 19.5t24 8.5z" />
    <glyph glyph-name="twosuperior" unicode="&#xb2;" horiz-adv-x="333" 
d="M213 636l83 -1q40 0 64 -18.5t24 -52.5q0 -11 -2 -23l-3 -14q-8 -35 -26 -58.5t-53 -51.5l-104 -82h135q7 0 12.5 -6t5.5 -13v-3q-2 -9 -10.5 -15.5t-16.5 -6.5h-182q-9 0 -15.5 6t-6.5 15q0 2 1 5q2 10 12 17l144 114q16 13 26.5 22.5t21 25t13.5 31.5l3 14q1 5 1 10
q0 20 -15 30t-38 10h-84q-7 0 -12 5.5t-5 12.5v4q2 8 10.5 15.5t16.5 7.5z" />
    <glyph glyph-name="threesuperior" unicode="&#xb3;" horiz-adv-x="320" 
d="M210 636h101q33 0 53.5 -21t20.5 -54q0 -11 -3 -22q-9 -46 -52 -70q23 -21 23 -58q0 -11 -2 -22q-9 -42 -42 -69.5t-72 -27.5h-101q-8 0 -13 5t-5 13v5q2 7 10.5 14t17.5 7h101q20 0 37.5 15t22.5 38q1 8 1 15q0 19 -10 31t-28 12h-61q-19 0 -19 16q0 3 1 7q1 8 8.5 14.5
t17.5 6.5h66q19 0 35 13.5t21 34.5q1 7 1 13q0 18 -10.5 29t-28.5 11h-101q-8 0 -13.5 5t-5.5 13q0 3 1 6q2 6 10 13t18 7z" />
    <glyph glyph-name="acute" unicode="&#xb4;" horiz-adv-x="268" 
d="M183 640l166 72q8 3 14 3q17 0 22 -16q1 -4 1 -7q0 -20 -28 -31l-159 -68q-9 -3 -17 -3q-16 0 -21 14q-1 3 -1 6q0 20 23 30z" />
    <glyph glyph-name="paragraph" unicode="&#xb6;" horiz-adv-x="596" 
d="M359 700h305q13 0 20 -6.5t7 -16.5v-6q-3 -13 -13.5 -21.5t-23.5 -8.5h-55l-153 -718q-3 -14 -13.5 -23t-23.5 -9q-12 0 -18.5 6.5t-6.5 16.5v7l153 720h-85l-153 -720q-2 -13 -13 -21.5t-23 -8.5t-18.5 6.5t-6.5 16.5q0 3 1 7l88 417h-51q-55 0 -90 33.5t-35 92.5
q0 20 5 43q7 32 22.5 63.5t39.5 61.5t61 49t80 19z" />
    <glyph glyph-name="periodcentered" unicode="&#xb7;" horiz-adv-x="156" 
d="M108 291l8 39q2 12 13.5 21.5t25.5 9.5q12 0 19.5 -7.5t7.5 -17.5q0 -3 -1 -6l-7 -37q-3 -14 -15 -23.5t-25 -9.5t-20 7t-7 18q0 3 1 6z" />
    <glyph glyph-name="cedilla" unicode="&#xb8;" horiz-adv-x="191" 
d="M57 18h41l-11 -54q31 0 44 -9t13 -31q0 -12 -3 -28q-9 -40 -32 -57.5t-64 -17.5h-32q-16 0 -16 14v4q2 8 7.5 13.5t13.5 5.5h33q20 0 27.5 9t12.5 29q2 10 2 16q0 19 -26 19q-22 1 -22 22q0 5 1 10z" />
    <glyph glyph-name="onesuperior" unicode="&#xb9;" horiz-adv-x="243" 
d="M189 580l87 53q8 5 20 5q25 0 25 -22q0 -4 -1 -8l-62 -291q-2 -10 -10 -16.5t-18 -6.5q-7 0 -12.5 5t-5.5 13q0 2 1 4l55 265l-58 -33q-10 -6 -18 -6q-10 0 -14 8q-2 4 -2 9q0 12 13 21z" />
    <glyph glyph-name="ordmasculine" unicode="&#xba;" horiz-adv-x="369" 
d="M326 659q55 0 81 -21t26 -70q0 -28 -8 -66q-19 -88 -58 -124t-108 -36q-55 0 -81.5 22t-26.5 73q0 28 8 65q18 87 58 122t109 35zM316 614q-47 0 -71.5 -22.5t-38.5 -89.5q-7 -33 -7 -55q0 -35 16.5 -48t52.5 -13q46 0 70.5 24.5t39.5 91.5q7 33 7 55q0 33 -16.5 45
t-52.5 12z" />
    <glyph glyph-name="guillemotright" unicode="&#xbb;" horiz-adv-x="504" 
d="M441 280l-80 77q-7 6 -7 16q0 12 9 22q11 11 26 11q10 0 17 -6l94 -88q16 -14 16 -33q0 -4 -1 -9q-5 -20 -27 -36l-138 -97q-10 -7 -20 -7q-13 0 -19 10q-4 6 -4 12q0 17 19 29l111 78q7 5 8 11v2q0 4 -4 8zM218 280l-80 77q-8 7 -8 17q0 12 11 21.5t25 9.5q11 0 18 -6
l95 -89q13 -12 13 -31q0 -4 -1 -9q-4 -20 -28 -36l-134 -96q-11 -7 -22 -7q-13 0 -19 9q-4 6 -4 12q0 16 18 28l112 80q6 4 7 10q1 1 1 2q0 4 -4 8z" />
    <glyph glyph-name="onequarter" unicode="&#xbc;" horiz-adv-x="653" 
d="M155 32l393 596q10 15 26 15q4 0 9 -1q11 -4 11 -15q0 -8 -5 -16l-395 -600q-8 -13 -21 -13q-7 0 -13 4q-10 5 -10 15q0 8 5 15zM387 124l123 199q10 17 25 17q6 0 10 -2q8 -4 8 -14q0 -7 -5 -15l-118 -191q-1 -3 -1 -5v-1q0 -3 5 -3h100l13 64q2 9 10 15.5t16.5 6.5
t14 -5t5.5 -12v-4l-14 -65h34q8 0 13 -4.5t5 -12.5q0 -2 -1 -5q-2 -9 -9.5 -15.5t-17.5 -6.5h-33l-10 -43q-2 -10 -10 -16.5t-18 -6.5q-7 0 -12 5t-5 13v4l9 44h-109q-18 0 -27 9.5t-9 23.5t8 26zM179 580l86 53q9 5 20 5q25 0 25 -22q0 -4 -1 -8l-62 -291
q-2 -10 -9.5 -16.5t-17.5 -6.5q-8 0 -13.5 5t-5.5 13q0 2 1 4l56 265l-58 -33q-11 -6 -19 -6q-10 0 -14 8q-2 4 -2 9q0 12 14 21z" />
    <glyph glyph-name="onehalf" unicode="&#xbd;" horiz-adv-x="694" 
d="M156 32l394 596q9 15 25 15q5 0 9 -1q12 -4 12 -15q0 -8 -6 -16l-394 -600q-9 -13 -22 -13q-7 0 -13 4q-9 5 -9 15q0 8 4 15zM520 345h83q41 0 65 -19t24 -53q0 -11 -3 -23l-2 -14q-8 -35 -26.5 -58.5t-52.5 -51.5l-104 -82h135q7 0 12.5 -6t5.5 -13q0 -1 -1 -3
q-2 -8 -10.5 -15t-16.5 -7h-182q-9 0 -15 6t-6 15v5q3 10 12 18l144 114q17 13 27 22t20.5 24.5t14.5 31.5l3 14q1 6 1 11q0 19 -15.5 29.5t-38.5 10.5h-83q-7 0 -12.5 5t-5.5 13q0 1 1 3q1 9 9.5 16t16.5 7zM180 580l87 53q8 5 20 5q24 0 24 -22q0 -4 -1 -8l-61 -291
q-3 -10 -10.5 -16.5t-17.5 -6.5q-8 0 -13 5t-5 13v4l56 265l-58 -33q-10 -6 -19 -6q-10 0 -13 8q-2 4 -2 9q0 12 13 21z" />
    <glyph glyph-name="threequarters" unicode="&#xbe;" horiz-adv-x="712" 
d="M214 32l394 596q10 15 25 15q5 0 9 -1q12 -4 12 -15q0 -8 -6 -16l-394 -600q-9 -13 -22 -13q-7 0 -13 4q-9 5 -9 15q0 8 4 15zM204 638h101q33 0 53.5 -21t20.5 -54q0 -11 -2 -22q-10 -46 -52 -71q22 -20 22 -57q0 -11 -2 -22q-9 -42 -41.5 -69.5t-72.5 -27.5h-101
q-8 0 -13 5t-5 13v5q2 7 10.5 14t17.5 7h101q20 0 37.5 15t22.5 38q1 8 1 15q0 19 -10 31t-28 12h-61q-19 0 -19 16q0 3 1 6q1 9 8.5 15.5t17.5 6.5h66q19 0 35 13.5t21 34.5q1 7 1 13q0 18 -10.5 29t-28.5 11h-101q-8 0 -13 5t-5 13v6q2 6 10 13t18 7zM446 124l123 199
q10 17 26 17q5 0 9 -2q9 -4 9 -14q0 -7 -5 -15l-118 -191q-2 -3 -2 -5v-1q1 -3 5 -3h100l14 64q2 9 10 15.5t16.5 6.5t14 -5t5.5 -12q0 -2 -1 -4l-14 -65h34q8 0 13 -4.5t5 -12.5v-5q-2 -9 -9.5 -15.5t-17.5 -6.5h-34l-9 -43q-2 -10 -10.5 -16.5t-17.5 -6.5q-8 0 -13 5
t-5 13v4l10 44h-110q-17 0 -26 9.5t-9 23.5t7 26z" />
    <glyph glyph-name="questiondown" unicode="&#xbf;" horiz-adv-x="455" 
d="M353 305l-5 -24q-8 -37 -27 -60t-58 -53l-74 -57q-66 -50 -78 -108q-4 -17 -4 -32q0 -83 112 -83h134q26 0 26 -22v-7q-3 -11 -13 -19.5t-23 -8.5h-136q-79 0 -122 32.5t-43 94.5q0 21 5 45q10 43 36 78.5t73 70.5l78 59q46 35 53 70l5 22q3 14 13 22t24 8q11 0 18 -6
t7 -16q0 -3 -1 -6zM397 504l-8 -41q-3 -12 -14.5 -21t-25.5 -9q-11 0 -18.5 7t-7.5 17q0 3 1 6l8 39q3 14 14.5 23t24.5 9q12 0 19.5 -7t7.5 -17q0 -3 -1 -6z" />
    <glyph glyph-name="Agrave" unicode="&#xc0;" horiz-adv-x="605" 
d="M531 784l-133 69q-13 7 -13 20q0 9 6 17q10 16 28 16q6 0 12 -3l136 -72q12 -7 12 -20q0 -9 -5 -16q-11 -14 -27 -14q-8 0 -16 3zM46 38l310 602q14 27 40.5 43.5t55.5 16.5t48 -16.5t22 -43.5l54 -605q1 -12 -9.5 -22.5t-26.5 -11.5q-11 -2 -18.5 4.5t-8.5 16.5l-19 185
h-294l-97 -184q-5 -11 -15.5 -17.5t-21.5 -5.5q-24 1 -24 22q0 8 4 16zM489 265l-32 360q-1 17 -17 17t-25 -17l-186 -360h260z" />
    <glyph glyph-name="Aacute" unicode="&#xc1;" horiz-adv-x="605" 
d="M393 831l166 72q7 3 13 3q17 0 22 -16q1 -4 1 -7q0 -20 -28 -31l-159 -68q-9 -3 -17 -3q-16 0 -21 14q-1 3 -1 6q0 20 24 30zM46 38l310 602q14 27 40.5 43.5t55.5 16.5t48 -16.5t22 -43.5l54 -605q1 -12 -9.5 -22.5t-26.5 -11.5q-11 -2 -18.5 4.5t-8.5 16.5l-19 185
h-294l-97 -184q-5 -11 -15.5 -17.5t-21.5 -5.5q-24 1 -24 22q0 8 4 16zM489 265l-32 360q-1 17 -17 17t-25 -17l-186 -360h260z" />
    <glyph glyph-name="Acircumflex" unicode="&#xc2;" horiz-adv-x="605" 
d="M351 804l101 91q20 20 46 20q21 0 32 -18l65 -91q4 -7 4 -14q0 -12 -11 -21q-10 -8 -21 -8q-13 0 -20 10l-53 74q-4 5 -9.5 5t-12.5 -5l-85 -74q-11 -10 -24 -10q-11 0 -17 7q-5 5 -5 13q0 12 10 21zM46 38l310 602q14 27 40.5 43.5t55.5 16.5t48 -16.5t22 -43.5l54 -605
q1 -12 -9.5 -22.5t-26.5 -11.5q-11 -2 -18.5 4.5t-8.5 16.5l-19 185h-294l-97 -184q-5 -11 -15.5 -17.5t-21.5 -5.5q-24 1 -24 22q0 8 4 16zM489 265l-32 360q-1 17 -17 17t-25 -17l-186 -360h260z" />
    <glyph glyph-name="Atilde" unicode="&#xc3;" horiz-adv-x="605" 
d="M46 38l310 602q14 27 40.5 43.5t55.5 16.5t48 -16.5t22 -43.5l54 -605q1 -12 -9.5 -22.5t-26.5 -11.5q-11 -2 -18.5 4.5t-8.5 16.5l-19 185h-294l-97 -184q-5 -11 -15.5 -17.5t-21.5 -5.5q-24 1 -24 22q0 8 4 16zM489 265l-32 360q-1 17 -17 17t-25 -17l-186 -360h260z
M431 884q17 1 30.5 -3.5t19.5 -9.5t15 -14l3 -3q9 -8 14 -12.5t14.5 -8t20.5 -2.5q16 1 52 28q7 6 17 6q13 0 19 -9q4 -4 4 -11q0 -14 -12 -24q-55 -44 -91 -46q-17 -1 -31.5 4.5t-19.5 10t-18 17.5q-24 23 -43 23h-6q-24 -4 -59 -30q-9 -6 -18 -6q-11 0 -18 8q-5 6 -5 13
q0 14 16 26q56 41 96 43z" />
    <glyph glyph-name="Adieresis" unicode="&#xc4;" horiz-adv-x="605" 
d="M531 848l6 28q2 12 11.5 20t22.5 8q11 0 17.5 -6t6.5 -16q0 -3 -1 -6l-6 -28q-2 -11 -12 -19t-23 -8q-23 0 -23 21q0 3 1 6zM379 848l5 28q3 12 12.5 20t22.5 8q11 0 17.5 -6t6.5 -16q0 -3 -1 -6l-6 -28q-2 -11 -12 -19t-23 -8q-23 0 -23 21q0 3 1 6zM46 38l310 602
q14 27 40.5 43.5t55.5 16.5t48 -16.5t22 -43.5l54 -605q1 -12 -9.5 -22.5t-26.5 -11.5q-11 -2 -18.5 4.5t-8.5 16.5l-19 185h-294l-97 -184q-5 -11 -15.5 -17.5t-21.5 -5.5q-24 1 -24 22q0 8 4 16zM489 265l-32 360q-1 17 -17 17t-25 -17l-186 -360h260z" />
    <glyph glyph-name="Aring" unicode="&#xc5;" horiz-adv-x="605" 
d="M499 924q36 0 59 -23t23 -57q0 -10 -2 -20q-8 -40 -44.5 -69.5t-77.5 -29.5q-36 0 -59 22.5t-23 56.5q0 10 2 20q9 41 45 70.5t77 29.5zM490 878q-22 0 -40.5 -16t-22.5 -38q-2 -6 -2 -11q0 -19 11.5 -30.5t30.5 -11.5q21 0 39.5 15.5t23.5 37.5q1 6 1 11q0 19 -11.5 31
t-29.5 12zM46 38l310 602q14 27 40.5 43.5t55.5 16.5t48 -16.5t22 -43.5l54 -605q1 -12 -9.5 -22.5t-26.5 -11.5q-11 -2 -18.5 4.5t-8.5 16.5l-19 185h-294l-97 -184q-5 -11 -15.5 -17.5t-21.5 -5.5q-24 1 -24 22q0 8 4 16zM489 265l-32 360q-1 17 -17 17t-25 -17l-186 -360
h260z" />
    <glyph glyph-name="AE" unicode="&#xc6;" horiz-adv-x="775" 
d="M505 700h340q13 0 20.5 -6.5t7.5 -16.5q0 -3 -1 -7q-3 -12 -13 -20.5t-24 -8.5h-329l-53 -248h269q13 0 20.5 -6.5t7.5 -16.5q0 -3 -1 -6q-2 -13 -13 -21.5t-24 -8.5h-271l-59 -275h327q28 0 28 -23q0 -3 -1 -6q-3 -13 -13.5 -21.5t-24.5 -8.5h-342q-18 0 -29 10t-11 27
q0 5 1 10l34 160h-151l-97 -184q-5 -11 -15.5 -17.5t-21.5 -5.5q-24 1 -24 22q0 8 4 16l310 602q14 27 40.5 43.5t55.5 16.5q16 0 29 -5q11 5 24 5zM364 265l79 374q-1 2 -5 2q-14 1 -23 -17l-186 -359h135z" />
    <glyph glyph-name="Ccedilla" unicode="&#xc7;" horiz-adv-x="553" 
d="M455 700h170q11 0 18 -7t7 -17v-5q-3 -11 -14 -19.5t-23 -8.5h-170q-175 0 -215 -186l-46 -220q-6 -25 -6 -48q0 -61 36.5 -96.5t105.5 -35.5h169q12 0 19 -6.5t7 -16.5v-5q-2 -12 -13 -20.5t-23 -8.5h-171q-18 0 -31 2l-9 -40q31 0 44.5 -9t13.5 -31q0 -11 -4 -27
q-8 -41 -31 -58t-65 -17h-32q-16 0 -16 13v5q2 8 8 13t13 5h33q20 0 28 9t12 29q2 10 2 16q0 19 -26 19q-22 1 -22 22q0 5 1 10l10 48q-60 15 -91.5 58t-31.5 107q0 30 7 63l47 220q51 243 289 243z" />
    <glyph glyph-name="Egrave" unicode="&#xc8;" horiz-adv-x="562" 
d="M523 788l-134 69q-13 7 -13 20q0 9 6 17q11 16 28 16q7 0 12 -3l136 -72q12 -7 12 -20q0 -9 -5 -16q-11 -14 -27 -14q-8 0 -15 3zM103 47l129 606q5 20 21.5 33.5t37.5 13.5h340q14 0 21 -6.5t7 -16.5q0 -3 -1 -7q-3 -12 -13 -20.5t-24 -8.5h-329l-52 -248h268
q13 0 20.5 -6.5t7.5 -16.5q0 -3 -1 -6q-2 -13 -13 -21.5t-24 -8.5h-271l-58 -275h326q28 0 28 -23q0 -3 -1 -6q-3 -13 -13.5 -21.5t-24.5 -8.5h-342q-18 0 -29 10t-11 27q0 5 1 10z" />
    <glyph glyph-name="Eacute" unicode="&#xc9;" horiz-adv-x="562" 
d="M384 835l166 72q7 3 13 3q17 0 22 -16q1 -4 1 -7q0 -20 -28 -31l-159 -68q-9 -3 -17 -3q-16 0 -20 14q-1 3 -1 6q0 20 23 30zM103 47l129 606q5 20 21.5 33.5t37.5 13.5h340q14 0 21 -6.5t7 -16.5q0 -3 -1 -7q-3 -12 -13 -20.5t-24 -8.5h-329l-52 -248h268
q13 0 20.5 -6.5t7.5 -16.5q0 -3 -1 -6q-2 -13 -13 -21.5t-24 -8.5h-271l-58 -275h326q28 0 28 -23q0 -3 -1 -6q-3 -13 -13.5 -21.5t-24.5 -8.5h-342q-18 0 -29 10t-11 27q0 5 1 10z" />
    <glyph glyph-name="Ecircumflex" unicode="&#xca;" horiz-adv-x="562" 
d="M464 851l-86 -74q-10 -10 -24 -10q-10 0 -17 7q-5 5 -5 13q0 12 10 21l101 91q20 20 46 20q21 0 32 -18l66 -91q4 -7 4 -14q0 -12 -12 -21q-10 -8 -21 -8q-13 0 -20 10l-53 74q-4 5 -9.5 5t-11.5 -5zM103 47l129 606q5 20 21.5 33.5t37.5 13.5h340q14 0 21 -6.5t7 -16.5
q0 -3 -1 -7q-3 -12 -13 -20.5t-24 -8.5h-329l-52 -248h268q13 0 20.5 -6.5t7.5 -16.5q0 -3 -1 -6q-2 -13 -13 -21.5t-24 -8.5h-271l-58 -275h326q28 0 28 -23q0 -3 -1 -6q-3 -13 -13 -21.5t-25 -8.5h-342q-18 0 -29 10t-11 27q0 5 1 10z" />
    <glyph glyph-name="Edieresis" unicode="&#xcb;" horiz-adv-x="562" 
d="M522 852l6 28q2 12 11.5 20t22.5 8q11 0 17.5 -6t6.5 -16q0 -3 -1 -6l-6 -28q-2 -11 -11.5 -19t-22.5 -8q-24 0 -24 21q0 3 1 6zM370 852l5 28q3 12 12.5 20t22.5 8q11 0 17.5 -6t6.5 -16q0 -3 -1 -6l-6 -28q-2 -11 -11.5 -19t-23.5 -8q-23 0 -23 21q0 3 1 6zM103 47
l129 606q5 20 21.5 33.5t37.5 13.5h340q14 0 21 -6.5t7 -16.5q0 -3 -1 -7q-3 -12 -13 -20.5t-24 -8.5h-329l-52 -248h268q13 0 20.5 -6.5t7.5 -16.5q0 -3 -1 -6q-2 -13 -13 -21.5t-24 -8.5h-271l-58 -275h326q28 0 28 -23q0 -3 -1 -6q-3 -13 -13.5 -21.5t-24.5 -8.5h-342
q-18 0 -29 10t-11 27q0 5 1 10z" />
    <glyph glyph-name="Igrave" unicode="&#xcc;" horiz-adv-x="248" 
d="M354 788l-134 69q-13 7 -13 20q0 8 6 17q11 16 28 16q7 0 13 -3l135 -72q13 -7 13 -20q0 -9 -6 -16q-10 -14 -26 -14q-8 0 -16 3zM100 30l136 640q3 13 13.5 21.5t23.5 8.5q12 0 19 -6.5t7 -17.5q0 -4 -1 -8l-135 -636q-3 -14 -14 -23t-24 -9q-12 0 -19 6.5t-7 16.5
q0 3 1 7z" />
    <glyph glyph-name="Iacute" unicode="&#xcd;" horiz-adv-x="248" 
d="M215 835l166 72q7 3 14 3q17 0 21 -16q1 -4 1 -7q0 -20 -28 -31l-158 -68q-9 -3 -17 -3q-17 0 -21 14q-1 3 -1 6q0 20 23 30zM100 30l136 640q3 13 13.5 21.5t23.5 8.5q12 0 19 -6.5t7 -17.5q0 -4 -1 -8l-135 -636q-3 -14 -14 -23t-24 -9q-12 0 -19 6.5t-7 16.5q0 3 1 7z
" />
    <glyph glyph-name="Icircumflex" unicode="&#xce;" horiz-adv-x="248" 
d="M295 851l-85 -74q-11 -10 -24 -10q-11 0 -17 7q-5 5 -5 13q0 12 9 21l102 91q19 20 45 20q21 0 32 -18l66 -91q4 -7 4 -14q0 -12 -12 -21q-10 -8 -21 -8q-13 0 -20 10l-53 74q-4 5 -9.5 5t-11.5 -5zM100 30l136 640q3 13 13.5 21.5t23.5 8.5q12 0 19 -6.5t7 -17.5
q0 -4 -1 -8l-135 -636q-3 -14 -14 -23t-24 -9q-12 0 -19 6.5t-7 16.5q0 3 1 7z" />
    <glyph glyph-name="Idieresis" unicode="&#xcf;" horiz-adv-x="248" 
d="M100 30l136 640q3 13 13.5 21.5t24.5 8.5q11 0 18 -6.5t7 -17.5q0 -4 -1 -8l-135 -636q-3 -14 -14 -23t-24 -9q-12 0 -19 6.5t-7 16.5q0 3 1 7zM201 852l6 28q2 12 11.5 20t22.5 8q11 0 17.5 -6t6.5 -16v-6l-6 -28q-3 -11 -12.5 -19t-22.5 -8q-24 0 -24 21q0 3 1 6z
M353 852l6 28q3 12 12 20t22 8q11 0 17.5 -6t6.5 -16v-6l-6 -28q-3 -11 -12.5 -19t-22.5 -8q-24 0 -24 21q0 3 1 6z" />
    <glyph glyph-name="Eth" unicode="&#xd0;" horiz-adv-x="651" 
d="M303 700h193q195 0 195 -164q0 -35 -9 -79l-47 -220q-23 -107 -99.5 -172t-188.5 -65h-193q-18 0 -29 10t-11 26q0 5 1 11l57 265h-54q-10 0 -17 6.5t-7 17.5v6q3 11 13.5 19.5t23.5 8.5h53l60 283q5 20 21.5 33.5t37.5 13.5zM572 237l46 220q8 34 8 62q0 124 -142 124
h-180l-58 -273h157q11 0 17.5 -6.5t6.5 -15.5q0 -4 -1 -7q-3 -13 -12.5 -21t-23.5 -8h-156l-54 -255h179q82 0 139 50t74 130z" />
    <glyph glyph-name="Ntilde" unicode="&#xd1;" horiz-adv-x="676" 
d="M548 79l126 591q3 13 13.5 21.5t23.5 8.5q12 0 19 -6.5t7 -16.5q0 -3 -1 -7l-126 -593q-7 -33 -34 -55t-61 -22q-23 0 -40 12.5t-22 32.5l-141 581q-4 18 -17 16q-13 -1 -17 -21l-126 -591q-2 -13 -13 -21.5t-24 -8.5q-12 0 -19 6.5t-7 16.5q0 3 1 7l126 593
q7 33 34.5 55t60.5 22q23 0 40 -12.5t22 -32.5l142 -581q4 -18 16 -16q13 2 17 21zM467 884q17 1 30.5 -3.5t19.5 -9.5t15 -14l3 -3q8 -8 13 -12.5t15 -8t21 -2.5q16 1 52 28q7 6 17 6q12 0 19 -9q3 -4 3 -11q0 -14 -11 -24q-55 -44 -91 -46q-17 -1 -31.5 4.5t-20 10
t-18.5 17.5q-24 23 -42 23h-7q-23 -4 -59 -30q-9 -6 -18 -6q-11 0 -17 8q-5 6 -5 13q0 14 16 26q55 41 96 43z" />
    <glyph glyph-name="Ograve" unicode="&#xd2;" 
d="M558 788l-134 69q-13 7 -13 20q0 8 6 16q10 16 28 16q6 0 12 -3l136 -71q12 -7 12 -20q0 -9 -5 -17q-11 -14 -27 -14q-8 0 -15 4zM455 700h45q196 0 196 -164q0 -35 -10 -79l-46 -220q-23 -107 -99.5 -172t-188.5 -65h-46q-94 0 -144 47t-50 127q0 30 7 63l47 220
q51 243 289 243zM229 457l-46 -220q-6 -25 -6 -48q0 -61 36 -96.5t105 -35.5h46q82 0 138.5 50t73.5 130l47 220q7 34 7 62q0 124 -142 124h-45q-174 0 -214 -186z" />
    <glyph glyph-name="Oacute" unicode="&#xd3;" 
d="M419 835l166 71q7 3 13 3q17 0 22 -16q1 -3 1 -6q0 -20 -28 -32l-159 -67q-9 -4 -17 -4q-16 0 -21 14q-1 4 -1 7q0 20 24 30zM455 700h45q196 0 196 -164q0 -35 -10 -79l-46 -220q-23 -107 -99.5 -172t-188.5 -65h-46q-94 0 -144 47t-50 127q0 30 7 63l47 220
q51 243 289 243zM229 457l-46 -220q-6 -25 -6 -48q0 -61 36 -96.5t105 -35.5h46q82 0 138.5 50t73.5 130l47 220q7 34 7 62q0 124 -142 124h-45q-174 0 -214 -186z" />
    <glyph glyph-name="Ocircumflex" unicode="&#xd4;" 
d="M499 850l-86 -74q-11 -9 -24 -9q-11 0 -17 7q-5 5 -5 13q0 12 10 20l101 92q20 19 46 19q21 0 32 -18l65 -91q5 -6 5 -13q0 -12 -12 -21q-10 -8 -21 -8q-13 0 -20 10l-53 73q-4 6 -9.5 6t-11.5 -6zM455 700h45q196 0 196 -164q0 -35 -10 -79l-46 -220
q-23 -107 -99.5 -172t-188.5 -65h-46q-94 0 -144 47t-50 127q0 30 7 63l47 220q51 243 289 243zM229 457l-46 -220q-6 -25 -6 -48q0 -61 36.5 -96.5t104.5 -35.5h46q82 0 138.5 50t73.5 130l47 220q7 34 7 62q0 124 -142 124h-45q-174 0 -214 -186z" />
    <glyph glyph-name="Otilde" unicode="&#xd5;" 
d="M455 700h45q196 0 196 -164q0 -35 -10 -79l-46 -220q-23 -107 -99.5 -172t-188.5 -65h-46q-94 0 -144 47t-50 127q0 30 7 63l47 220q51 243 289 243zM229 457l-46 -220q-6 -25 -6 -48q0 -61 36.5 -96.5t104.5 -35.5h46q82 0 138.5 50t73.5 130l47 220q7 34 7 62
q0 124 -142 124h-45q-174 0 -214 -186zM457 888q17 0 30.5 -4.5t19.5 -9t15 -13.5l3 -3q9 -9 14 -13t14.5 -7.5t20.5 -3.5q16 2 52 29q7 6 17 6q13 0 19 -9q4 -5 4 -12q0 -13 -12 -23q-55 -44 -91 -46q-17 -1 -31 4.5t-19.5 10t-18.5 16.5q-24 24 -42 24q-4 0 -7 -1
q-24 -3 -59 -29q-9 -6 -18 -6q-11 0 -18 8q-5 6 -5 13q0 13 16 26q56 41 96 43z" />
    <glyph glyph-name="Odieresis" unicode="&#xd6;" 
d="M557 852l6 27q2 13 11.5 20.5t22.5 7.5q11 0 17.5 -6t6.5 -15q0 -3 -1 -7l-6 -27q-2 -12 -11.5 -19.5t-23.5 -7.5q-23 0 -23 20q0 4 1 7zM405 852l5 27q3 13 12.5 20.5t22.5 7.5q11 0 17.5 -6t6.5 -15q0 -3 -1 -7l-6 -27q-2 -12 -12 -19.5t-23 -7.5q-23 0 -23 21q0 3 1 6
zM455 700h45q196 0 196 -164q0 -35 -10 -79l-46 -220q-23 -107 -99.5 -172t-188.5 -65h-46q-94 0 -144 47t-50 127q0 30 7 63l47 220q51 243 289 243zM229 457l-46 -220q-6 -25 -6 -48q0 -61 36.5 -96.5t104.5 -35.5h46q82 0 138.5 50t73.5 130l47 220q7 34 7 62
q0 124 -142 124h-45q-174 0 -214 -186z" />
    <glyph glyph-name="multiply" unicode="&#xd7;" horiz-adv-x="458" 
d="M291 293l154 127q10 9 23 9q16 0 22 -12q3 -6 3 -12q0 -15 -16 -28l-153 -126l101 -128q4 -6 4 -14q0 -14 -11 -24q-12 -11 -25 -11t-22 10l-98 125l-152 -125q-11 -9 -24 -9q-14 0 -20 9q-4 7 -4 14q0 15 15 27l153 126l-101 127q-5 6 -5 15q0 13 11 25q11 10 25 10
q13 0 20 -9z" />
    <glyph glyph-name="Oslash" unicode="&#xd8;" horiz-adv-x="619" 
d="M585 684l47 72q10 16 29 16q6 0 12 -2q10 -5 10 -16q0 -10 -7 -20l-49 -74q51 -41 51 -124q0 -35 -10 -79l-46 -220q-23 -107 -99.5 -172t-188.5 -65h-46q-49 0 -86 13l-50 -76q-11 -15 -29 -15q-7 0 -12 3q-10 6 -10 17q0 8 5 15l52 79q-64 46 -64 138q0 30 7 63l47 220
q51 243 289 243h45q61 0 103 -16zM195 93l353 536q-31 14 -78 14h-45q-174 0 -214 -186l-46 -220q-6 -25 -6 -48q0 -61 36 -96zM558 237l47 220q7 34 7 62q0 51 -24 81l-351 -533q28 -10 63 -10h46q82 0 138.5 50t73.5 130z" />
    <glyph glyph-name="Ugrave" unicode="&#xd9;" horiz-adv-x="660" 
d="M559 784l-134 69q-13 7 -13 20q0 9 6 17q11 16 28 16q7 0 13 -3l135 -72q13 -7 13 -20q0 -9 -6 -16q-11 -14 -27 -14q-8 0 -15 3zM136 206l99 465q2 11 13.5 20t23.5 9q11 0 18 -7t7 -17q0 -2 -1 -5l-98 -465q-5 -21 -5 -41q0 -51 28 -80t70 -29h121q55 0 94.5 41
t54.5 109l98 463q3 13 14 22t23 9q11 0 18.5 -7t7.5 -17q0 -3 -1 -5l-98 -465q-20 -93 -80.5 -150.5t-143.5 -57.5h-121q-65 0 -107 39.5t-42 111.5q0 27 7 57z" />
    <glyph glyph-name="Uacute" unicode="&#xda;" horiz-adv-x="660" 
d="M420 831l166 72q7 3 14 3q17 0 21 -16q1 -4 1 -7q0 -20 -28 -31l-159 -68q-9 -3 -17 -3q-16 0 -20 14q-1 3 -1 6q0 20 23 30zM136 206l99 465q2 11 13.5 20t23.5 9q11 0 18 -7t7 -17q0 -2 -1 -5l-98 -465q-5 -21 -5 -41q0 -51 28 -80t70 -29h121q55 0 94.5 41t54.5 109
l98 463q3 13 14 22t23 9q11 0 18.5 -7t7.5 -17q0 -3 -1 -5l-98 -465q-20 -93 -80.5 -150.5t-143.5 -57.5h-121q-65 0 -107 39.5t-42 111.5q0 27 7 57z" />
    <glyph glyph-name="Ucircumflex" unicode="&#xdb;" horiz-adv-x="660" 
d="M500 847l-86 -74q-10 -10 -24 -10q-10 0 -16 7q-5 5 -5 13q0 12 9 21l101 91q20 20 46 20q21 0 32 -18l66 -91q4 -7 4 -14q0 -12 -12 -21q-10 -8 -21 -8q-13 0 -20 10l-53 74q-4 5 -9.5 5t-11.5 -5zM136 206l99 465q2 11 13.5 20t23.5 9q11 0 18 -7t7 -17q0 -2 -1 -5
l-98 -465q-5 -21 -5 -41q0 -51 28 -80t70 -29h121q55 0 94.5 41t54.5 109l98 463q3 13 14 22t23 9q11 0 18.5 -7t7.5 -17q0 -3 -1 -5l-98 -465q-20 -93 -80.5 -150.5t-143.5 -57.5h-121q-65 0 -107 39.5t-42 111.5q0 27 7 57z" />
    <glyph glyph-name="Udieresis" unicode="&#xdc;" horiz-adv-x="660" 
d="M558 848l6 28q3 12 12 20t22 8q11 0 17.5 -6t6.5 -16q0 -3 -1 -6l-5 -28q-3 -11 -12.5 -19t-22.5 -8q-24 0 -24 21q0 3 1 6zM406 848l6 28q2 12 11.5 20t22.5 8q11 0 17.5 -6t6.5 -16q0 -3 -1 -6l-5 -28q-3 -11 -12.5 -19t-23.5 -8q-23 0 -23 21q0 3 1 6zM136 206l99 465
q2 11 13.5 20t23.5 9q11 0 18 -7t7 -17q0 -2 -1 -5l-98 -465q-5 -21 -5 -41q0 -51 28 -80t70 -29h121q55 0 94.5 41t54.5 109l98 463q3 13 14 22t23 9q11 0 18.5 -7t7.5 -17q0 -3 -1 -5l-98 -465q-20 -93 -80.5 -150.5t-143.5 -57.5h-121q-65 0 -107 39.5t-42 111.5
q0 27 7 57z" />
    <glyph glyph-name="Yacute" unicode="&#xdd;" horiz-adv-x="547" 
d="M358 389l240 295q12 15 29 15h4q23 -2 23 -23q0 -11 -8 -20l-272 -337l-61 -289q-3 -13 -13.5 -21.5t-24.5 -8.5q-11 0 -18 6.5t-7 16.5v7l62 289l-132 335q-2 4 -2 9q0 13 10 23.5t25 12.5h6q16 0 21 -14zM364 831l166 72q7 3 13 3q17 0 22 -16q1 -4 1 -7q0 -20 -28 -31
l-159 -68q-9 -3 -17 -3q-16 0 -21 14q-1 3 -1 6q0 20 24 30z" />
    <glyph glyph-name="Thorn" unicode="&#xde;" horiz-adv-x="564" 
d="M54 30l136 640q3 13 13 21.5t24 8.5q12 0 19 -6.5t7 -16.5q0 -3 -1 -7l-19 -88h208q81 0 125 -32.5t44 -94.5q0 -20 -5 -43l-20 -94q-18 -85 -79.5 -137.5t-160.5 -52.5h-208l-21 -98q-3 -13 -13.5 -21.5t-23.5 -8.5q-12 0 -19 6.5t-7 16.5q0 3 1 7zM523 318l20 93
q3 15 3 29q0 85 -117 85h-208l-72 -339h208q68 0 110.5 36.5t55.5 95.5z" />
    <glyph glyph-name="germandbls" unicode="&#xdf;" horiz-adv-x="574" 
d="M333 0h-124q-13 0 -20 6.5t-7 16.5q0 2 1 5q2 11 12.5 20t23.5 9h126q56 0 104 40t61 100q3 15 3 29q0 47 -30.5 79t-78.5 32h-17q-11 0 -17.5 6.5t-6.5 15.5q0 3 1 6q2 11 12.5 19.5t22.5 8.5q52 0 96.5 37t55.5 88q3 13 3 25q0 43 -28.5 71.5t-72.5 28.5h-33
q-173 0 -213 -184l-91 -428q-2 -14 -13.5 -22.5t-24.5 -8.5q-11 0 -18 6.5t-7 16.5v6l92 430q51 241 287 241h34q65 0 107 -41.5t42 -103.5q0 -18 -4 -37q-10 -48 -42.5 -87t-77.5 -62q38 -17 60.5 -52.5t22.5 -80.5q0 -19 -4 -39q-18 -83 -87 -140t-150 -57z" />
    <glyph glyph-name="agrave" unicode="&#xe0;" horiz-adv-x="472" 
d="M425 597l-134 69q-13 6 -13 20q0 8 6 16q11 16 28 16q7 0 13 -3l135 -72q13 -6 13 -20q0 -8 -6 -16q-10 -14 -26 -14q-8 0 -16 4zM369 455h-175q-25 0 -25 21q0 3 1 6q2 11 11.5 19t22.5 8h180q51 0 81 -31t30 -80q0 -17 -4 -35l-68 -321q-4 -18 -19 -30t-34 -12h-185
q-52 0 -85.5 32.5t-33.5 81.5q0 15 3 30q13 60 65 102.5t113 42.5h169l15 70q2 14 2 26q0 32 -17 51t-47 19zM197 56h169l38 178h-169q-35 0 -67 -27t-40 -63q-2 -9 -2 -18q0 -30 20 -50t51 -20z" />
    <glyph glyph-name="aacute" unicode="&#xe1;" horiz-adv-x="472" 
d="M369 455h-175q-25 0 -25 21q0 3 1 6q2 11 11.5 19t22.5 8h180q51 0 81 -31t30 -80q0 -17 -4 -35l-68 -321q-4 -18 -19 -30t-34 -12h-185q-52 0 -85.5 32.5t-33.5 81.5q0 15 3 30q13 60 65 103t113 43h169l15 69q2 14 2 26q0 32 -17 51t-47 19zM197 56h169l38 178h-169
q-35 0 -67 -27t-40 -63q-2 -9 -2 -18q0 -30 20 -50t51 -20zM286 643l166 72q7 3 14 3q17 0 22 -16v-7q0 -19 -27 -31l-159 -67q-9 -4 -17 -4q-16 0 -21 14q-1 3 -1 7q0 19 23 29z" />
    <glyph glyph-name="acircumflex" unicode="&#xe2;" horiz-adv-x="472" 
d="M366 659l-85 -74q-11 -9 -24 -9q-11 0 -17 6q-5 6 -5 14q0 11 9 20l102 92q20 19 45 19q21 0 33 -18l65 -91q4 -6 4 -13q0 -13 -11 -22q-10 -7 -22 -7q-13 0 -19 10l-54 73q-3 5 -9 5t-12 -5zM369 455h-175q-25 0 -25 21q0 3 1 6q2 11 11.5 19t22.5 8h180q51 0 81 -31
t30 -80q0 -17 -4 -35l-68 -321q-4 -18 -19 -30t-34 -12h-185q-52 0 -85.5 32.5t-33.5 81.5q0 15 3 30q13 60 65 102.5t113 42.5h169l15 70q2 14 2 26q0 32 -17 51t-47 19zM197 56h169l38 178h-169q-35 0 -67 -27t-40 -63q-2 -9 -2 -18q0 -30 20 -50t51 -20z" />
    <glyph glyph-name="atilde" unicode="&#xe3;" horiz-adv-x="472" 
d="M325 696q17 1 30.5 -3.5t19.5 -9t15 -14.5q1 0 3 -2q8 -9 13 -13t15 -8t21 -3q16 1 52 28q7 7 17 7q12 0 19 -9q3 -5 3 -12q0 -13 -11 -24q-55 -43 -91 -46q-17 -1 -31.5 4.5t-19.5 10t-19 17.5q-24 24 -42 24q-3 0 -7 -1q-23 -3 -59 -30q-9 -6 -17 -6q-12 0 -18 9
q-5 5 -5 12q0 14 16 26q56 42 96 43zM369 455h-175q-25 0 -25 21q0 3 1 6q2 11 11.5 19t22.5 8h180q51 0 81 -31t30 -80q0 -17 -4 -35l-68 -321q-4 -18 -19 -30t-34 -12h-185q-52 0 -85.5 32.5t-33.5 81.5q0 15 3 30q13 60 65 102.5t113 42.5h169l15 70q2 14 2 26
q0 32 -17 51t-47 19zM197 56h169l38 178h-169q-35 0 -67 -27t-40 -63q-2 -9 -2 -18q0 -30 20.5 -50t50.5 -20z" />
    <glyph glyph-name="adieresis" unicode="&#xe4;" horiz-adv-x="472" 
d="M369 455h-175q-25 0 -25 21q0 3 1 6q2 11 11.5 19t22.5 8h180q51 0 81 -31t30 -80q0 -17 -4 -35l-68 -321q-4 -18 -19 -30t-34 -12h-185q-52 0 -85.5 32.5t-33.5 81.5q0 15 3 30q13 60 65 102.5t113 42.5h169l15 70q2 14 2 26q0 32 -17 51t-47 19zM197 56h169l38 178
h-169q-35 0 -67 -27t-40 -63q-2 -9 -2 -18q0 -30 20.5 -50t50.5 -20zM272 661l6 27q3 12 12.5 20t21.5 8t18.5 -6t6.5 -16q0 -3 -1 -6l-6 -27q-2 -12 -12 -19.5t-23 -7.5q-23 0 -23 20v7zM424 661l6 27q3 12 12.5 20t22.5 8q11 0 17.5 -6t6.5 -16q0 -3 -1 -6l-6 -27
q-2 -12 -12 -19.5t-23 -7.5q-23 0 -23 20v7z" />
    <glyph glyph-name="aring" unicode="&#xe5;" horiz-adv-x="472" 
d="M393 736q36 0 59 -23t23 -57q0 -9 -2 -19q-9 -41 -45 -70.5t-77 -29.5q-36 0 -59 22.5t-23 56.5q0 10 2 21q8 40 44 69.5t78 29.5zM384 690q-22 0 -40.5 -15.5t-23.5 -37.5q-1 -6 -1 -12q0 -18 11.5 -30t30.5 -12q21 0 39.5 15.5t23.5 38.5q1 5 1 11q0 18 -11.5 30
t-29.5 12zM204 509h180q51 0 81 -31t30 -80q0 -17 -4 -35l-68 -321q-4 -18 -19 -30t-34 -12h-185q-52 0 -85.5 32.5t-33.5 81.5q0 15 3 30q13 60 65 102.5t113 42.5h169l15 70q2 14 2 26q0 32 -17 51t-47 19h-175q-25 0 -25 21q0 3 1 6q2 11 11.5 19t22.5 8zM366 56l38 178
h-169q-35 0 -67 -27t-40 -63q-2 -9 -2 -18q0 -30 20 -50t51 -20h169z" />
    <glyph glyph-name="ae" unicode="&#xe6;" horiz-adv-x="780" 
d="M204 509h180q40 0 67 -22t33 -59q31 39 75 60t93 21q78 0 119 -35.5t41 -101.5q0 -27 -6 -57l-10 -47q-4 -18 -19 -30t-34 -12h-280l-5 -28q-5 -31 -5 -54q0 -47 23.5 -68.5t76.5 -21.5h152q24 0 24 -21q0 -3 -1 -6q-2 -12 -11.5 -19.5t-21.5 -7.5h-154q-96 0 -117 61
l-16 -39q-12 -22 -38 -22h-185q-52 0 -85.5 32.5t-33.5 81.5q0 15 3 30q13 60 65 102.5t113 42.5h168l16 70q2 14 2 26q0 32 -17 51t-47 19h-175q-25 0 -25 21q0 3 1 6q2 11 11.5 19t22.5 8zM737 276l9 43q5 22 5 41q0 95 -110 95q-57 0 -98.5 -34t-57.5 -92l-12 -53h264z
M366 56l38 178h-169q-35 0 -67 -27t-40 -63q-2 -9 -2 -18q0 -30 20 -50t51 -20h169z" />
    <glyph glyph-name="ccedilla" unicode="&#xe7;" horiz-adv-x="429" 
d="M355 509h113q11 0 17 -6t6 -15q0 -3 -1 -6q-2 -12 -11.5 -19.5t-22.5 -7.5h-112q-72 0 -113 -37.5t-57 -112.5l-20 -95q-7 -31 -7 -56q0 -100 112 -100h112q11 0 17 -6t6 -15q0 -3 -1 -6q-2 -12 -11.5 -19.5t-22.5 -7.5h-112q-18 0 -34 2l-9 -40q31 0 44.5 -9t13.5 -31
q0 -11 -3 -27q-9 -41 -32 -58t-65 -17h-32q-16 0 -16 13q0 2 1 5q1 8 7 13t14 5h33q20 0 27.5 9t11.5 29q2 9 2 16q0 19 -19 19q-29 1 -29 21q0 5 1 11l11 49q-88 26 -88 129q0 32 9 72l20 94q43 204 240 204z" />
    <glyph glyph-name="egrave" unicode="&#xe8;" horiz-adv-x="476" 
d="M427 595l-134 69q-13 7 -13 20q0 9 6 17q10 16 28 16q6 0 12 -3l136 -72q12 -7 12 -20q0 -9 -5 -16q-11 -14 -27 -14q-8 0 -15 3zM100 237l17 78q19 89 84 141.5t147 52.5q78 0 119 -35.5t41 -101.5q0 -27 -7 -57l-10 -47q-3 -18 -18.5 -30t-33.5 -12h-280
q-10 -50 -10 -82q0 -47 23 -68.5t77 -21.5h151q25 0 25 -21q0 -3 -1 -6q-2 -12 -11.5 -19.5t-22.5 -7.5h-154q-80 0 -114.5 31.5t-34.5 98.5q0 42 13 107zM433 276l9 43q4 23 4 41q0 95 -110 95q-59 0 -101.5 -37t-56.5 -98l-9 -44h264z" />
    <glyph glyph-name="eacute" unicode="&#xe9;" horiz-adv-x="476" 
d="M288 642l166 72q7 3 13 3q17 0 22 -16q1 -4 1 -7q0 -20 -28 -31l-159 -68q-9 -3 -17 -3q-16 0 -20 14q-2 3 -2 6q0 20 24 30zM100 237l17 78q19 89 84 141.5t147 52.5q78 0 119 -35.5t41 -101.5q0 -27 -7 -57l-10 -47q-3 -18 -18.5 -30t-33.5 -12h-280q-10 -50 -10 -82
q0 -47 23 -68.5t77 -21.5h151q25 0 25 -21q0 -3 -1 -6q-2 -12 -11.5 -19.5t-22.5 -7.5h-154q-80 0 -114.5 31.5t-34.5 98.5q0 42 13 107zM433 276l9 44q4 22 4 40q0 95 -110 95q-59 0 -101.5 -37t-56.5 -98l-9 -44h264z" />
    <glyph glyph-name="ecircumflex" unicode="&#xea;" horiz-adv-x="476" 
d="M368 658l-86 -74q-10 -10 -24 -10q-10 0 -17 7q-5 5 -5 13q0 12 10 21l101 91q20 20 46 20q21 0 32 -18l66 -91q4 -7 4 -14q0 -12 -12 -21q-10 -8 -21 -8q-13 0 -20 10l-53 74q-4 5 -9.5 5t-11.5 -5zM100 237l17 78q19 89 84 141.5t147 52.5q78 0 119 -35.5t41 -101.5
q0 -27 -7 -57l-10 -47q-3 -18 -18.5 -30t-33.5 -12h-280q-10 -50 -10 -82q0 -47 23 -68.5t77 -21.5h151q25 0 25 -21q0 -3 -1 -6q-2 -12 -11.5 -19.5t-22.5 -7.5h-154q-80 0 -114.5 31.5t-34.5 98.5q0 42 13 107zM433 276l9 43q4 23 4 41q0 95 -110 95q-59 0 -101.5 -37
t-56.5 -98l-9 -44h264z" />
    <glyph glyph-name="edieresis" unicode="&#xeb;" horiz-adv-x="476" 
d="M426 659l6 28q2 12 11.5 20t22.5 8q11 0 17.5 -6t6.5 -16q0 -3 -1 -6l-6 -28q-2 -11 -11.5 -19t-23.5 -8q-23 0 -23 21q0 3 1 6zM274 659l5 28q3 12 12.5 20t22.5 8q11 0 17.5 -6t6.5 -16q0 -3 -1 -6l-6 -28q-2 -11 -11.5 -19t-23.5 -8q-23 0 -23 21q0 3 1 6zM100 237
l17 78q19 89 84 141.5t147 52.5q78 0 119 -35.5t41 -101.5q0 -27 -7 -57l-10 -47q-3 -18 -18.5 -30t-33.5 -12h-280q-10 -50 -10 -82q0 -47 23 -68.5t77 -21.5h151q25 0 25 -21q0 -3 -1 -6q-2 -12 -11.5 -19.5t-22.5 -7.5h-154q-80 0 -114.5 31.5t-34.5 98.5q0 42 13 107z
M433 276l9 43q4 23 4 41q0 95 -110 95q-59 0 -101.5 -37t-56.5 -98l-9 -44h264z" />
    <glyph glyph-name="igrave" unicode="&#xec;" horiz-adv-x="200" 
d="M289 593l-134 69q-13 7 -13 21q0 8 6 16q11 16 28 16q7 0 13 -3l135 -72q13 -7 13 -20q0 -9 -6 -16q-11 -14 -27 -14q-8 0 -15 3zM81 28l96 452q3 13 12.5 21t22.5 8q12 0 18.5 -6t6.5 -16q0 -4 -1 -7l-96 -452q-2 -13 -12 -20.5t-24 -7.5q-24 0 -24 21q0 3 1 7z" />
    <glyph glyph-name="iacute" unicode="&#xed;" horiz-adv-x="200" 
d="M81 28l96 452q3 13 12.5 21t22.5 8q12 0 18.5 -6t6.5 -16q0 -4 -1 -7l-96 -452q-2 -13 -12 -20.5t-24 -7.5q-24 0 -24 21q0 3 1 7zM150 640l166 72q7 3 14 3q17 0 21 -16q1 -4 1 -7q0 -20 -28 -31l-159 -68q-9 -3 -17 -3q-16 0 -21 14v5q0 21 23 31z" />
    <glyph glyph-name="icircumflex" unicode="&#xee;" horiz-adv-x="200" 
d="M230 656l-85 -74q-11 -10 -24 -10q-11 0 -17 7q-5 5 -5 14q0 11 9 20l101 91q20 20 46 20q21 0 32 -18l66 -91q4 -7 4 -14q0 -12 -12 -21q-10 -8 -21 -8q-13 0 -20 10l-53 74q-4 5 -9.5 5t-11.5 -5zM81 28l96 452q3 13 12.5 21t22.5 8q12 0 18.5 -6t6.5 -16q0 -4 -1 -7
l-96 -452q-2 -13 -12 -20.5t-24 -7.5q-24 0 -24 21q0 3 1 7z" />
    <glyph glyph-name="idieresis" unicode="&#xef;" horiz-adv-x="200" 
d="M288 657l6 28q3 12 12 20t22 8q11 0 17.5 -6t6.5 -16q0 -3 -1 -6l-5 -28q-3 -11 -12.5 -19t-22.5 -8q-24 0 -24 21q0 3 1 6zM136 657l6 28q2 12 11.5 20t22.5 8q11 0 17.5 -6t6.5 -16q0 -3 -1 -6l-5 -28q-3 -11 -12.5 -19t-23.5 -8q-23 0 -23 21q0 3 1 6zM81 28l96 452
q3 13 12.5 21t22.5 8q12 0 18.5 -6t6.5 -16q0 -4 -1 -7l-96 -452q-2 -13 -12 -20.5t-24 -7.5q-24 0 -24 21q0 3 1 7z" />
    <glyph glyph-name="eth" unicode="&#xf0;" horiz-adv-x="535" 
d="M250 700h144q108 0 158 -50l49 39q9 6 17 6q12 0 17 -9q3 -5 3 -11q0 -12 -14 -23l-48 -38q19 -34 19 -83q0 -32 -8 -71l-49 -230q-26 -120 -93 -175.5t-179 -55.5q-91 0 -137 39.5t-46 107.5q0 24 6 50l8 41q38 176 251 177h166l10 51q5 23 5 42q0 40 -19 63l-83 -68
q-9 -6 -17 -6q-12 0 -18 11q-2 4 -2 9q0 14 14 23l85 69q-34 35 -106 35h-147q-11 0 -18 7t-7 17q0 2 1 5q2 11 12.5 19.5t25.5 8.5zM475 232l26 125h-163q-151 0 -177 -120l-9 -41q-4 -21 -4 -39q0 -101 130 -101q83 0 129.5 39.5t67.5 136.5z" />
    <glyph glyph-name="ntilde" unicode="&#xf1;" horiz-adv-x="507" 
d="M221 509h177q56 0 92 -34t36 -92q0 -20 -4 -41l-67 -313q-2 -12 -13 -20.5t-24 -8.5q-11 0 -17 6.5t-6 16.5v6l67 313q3 16 3 31q0 37 -21 59.5t-58 22.5h-163l-90 -425q-3 -13 -13 -21.5t-23 -8.5q-12 0 -18.5 6.5t-6.5 16.5q0 3 1 6l93 436q3 18 18.5 31t36.5 13z
M341 693q17 1 30.5 -3.5t20 -9.5t15.5 -14q1 -1 2 -3q9 -8 14 -12.5t14.5 -8t20.5 -2.5q16 1 52 28q8 6 17 6q13 0 19 -8q4 -5 4 -12q0 -14 -11 -24q-56 -44 -91 -46q-17 -1 -31.5 4.5t-20 10t-18.5 17.5q-24 23 -42 23h-7q-23 -4 -59 -30q-9 -6 -18 -6q-11 0 -18 8
q-4 6 -4 13q0 14 16 26q55 41 95 43z" />
    <glyph glyph-name="ograve" unicode="&#xf2;" horiz-adv-x="498" 
d="M438 597l-134 69q-13 7 -13 20q0 9 6 17q11 16 28 16q7 0 12 -3l136 -72q12 -7 12 -20q0 -9 -5 -16q-11 -14 -27 -14q-8 0 -15 3zM279 -4h-61q-62 0 -99 36t-37 96q0 20 4 42l33 154q17 79 76 131.5t132 52.5h61q61 0 97.5 -38.5t36.5 -100.5q0 -22 -5 -45l-33 -154
q-16 -77 -74.5 -125.5t-130.5 -48.5zM229 48h61q48 0 85.5 34t48.5 85l35 162q3 16 3 32q0 42 -23 69t-62 27h-61q-48 0 -86.5 -37.5t-49.5 -90.5l-35 -162q-3 -16 -3 -30q0 -40 23.5 -64.5t63.5 -24.5z" />
    <glyph glyph-name="oacute" unicode="&#xf3;" horiz-adv-x="498" 
d="M299 644l166 72q7 3 14 3q17 0 21 -16q1 -4 1 -7q0 -20 -28 -31l-159 -68q-9 -3 -17 -3q-16 0 -20 14q-1 3 -1 6q0 20 23 30zM279 -4h-61q-62 0 -99 36t-37 96q0 20 4 42l33 154q17 79 76 131.5t132 52.5h61q61 0 97.5 -38.5t36.5 -100.5q0 -22 -5 -45l-33 -154
q-16 -77 -74.5 -125.5t-130.5 -48.5zM229 48h61q48 0 85.5 34t48.5 85l35 162q3 16 3 32q0 42 -23 69t-62 27h-61q-48 0 -86.5 -37.5t-49.5 -90.5l-35 -162q-3 -16 -3 -30q0 -40 23.5 -64.5t63.5 -24.5z" />
    <glyph glyph-name="ocircumflex" unicode="&#xf4;" horiz-adv-x="498" 
d="M379 660l-86 -74q-10 -10 -24 -10q-10 0 -17 7q-5 5 -5 13q0 12 10 21l101 91q20 20 46 20q21 0 32 -18l66 -91q4 -7 4 -14q0 -12 -12 -21q-10 -8 -21 -8q-13 0 -20 10l-53 74q-4 5 -9.5 5t-11.5 -5zM279 -4h-61q-62 0 -99 35.5t-37 96.5q0 20 4 42l33 154
q17 79 76 131.5t132 52.5h61q61 0 97.5 -38.5t36.5 -100.5q0 -22 -5 -45l-33 -154q-16 -77 -74.5 -125.5t-130.5 -48.5zM229 48h61q48 0 85.5 34t48.5 85l35 162q3 16 3 32q0 42 -23 69t-62 27h-61q-48 0 -86.5 -37.5t-49.5 -90.5l-35 -162q-3 -16 -3 -30q0 -40 23.5 -64.5
t63.5 -24.5z" />
    <glyph glyph-name="otilde" unicode="&#xf5;" horiz-adv-x="498" 
d="M279 -4h-61q-62 0 -99 36t-37 96q0 20 4 42l33 154q17 79 76 131.5t132 52.5h61q61 0 97.5 -38.5t36.5 -100.5q0 -22 -5 -45l-33 -154q-16 -77 -74.5 -125.5t-130.5 -48.5zM229 48h61q48 0 85.5 34t48.5 85l35 162q3 16 3 32q0 42 -23 69t-62 27h-61q-47 0 -86 -37.5
t-50 -90.5l-34 -162q-4 -16 -4 -30q0 -40 23.5 -64.5t63.5 -24.5zM337 697q17 1 30.5 -3.5t19.5 -9.5t16 -14q0 -1 2 -3q9 -8 14 -12.5t14.5 -8t20.5 -2.5q16 1 52 28q8 6 17 6q13 0 19 -9q4 -4 4 -11q0 -14 -12 -24q-55 -44 -90 -46q-17 -1 -31.5 4.5t-20 10t-18.5 17.5
q-24 23 -42 23h-7q-23 -4 -59 -30q-9 -6 -18 -6q-11 0 -18 8q-5 6 -5 13q0 14 16 26q56 41 96 43z" />
    <glyph glyph-name="odieresis" unicode="&#xf6;" horiz-adv-x="498" 
d="M437 661l6 28q2 12 11.5 20t22.5 8q11 0 17.5 -6t6.5 -16q0 -3 -1 -6l-6 -28q-2 -11 -11.5 -19t-22.5 -8q-24 0 -24 21q0 3 1 6zM285 661l6 28q2 12 11.5 20t22.5 8q11 0 17.5 -6t6.5 -16q0 -3 -1 -6l-5 -28q-3 -11 -12.5 -19t-23.5 -8q-23 0 -23 21q0 3 1 6zM279 -4h-61
q-62 0 -99 36t-37 96q0 20 4 42l33 154q17 79 76 131.5t132 52.5h61q61 0 97.5 -38.5t36.5 -100.5q0 -22 -5 -45l-33 -154q-16 -77 -74.5 -125.5t-130.5 -48.5zM229 48h61q48 0 85.5 34t48.5 85l35 162q3 16 3 32q0 42 -23 69t-62 27h-61q-47 0 -86 -37.5t-50 -90.5
l-34 -162q-4 -16 -4 -30q0 -40 23.5 -64.5t63.5 -24.5z" />
    <glyph glyph-name="divide" unicode="&#xf7;" horiz-adv-x="441" 
d="M158 378h287q12 0 18.5 -6.5t6.5 -16.5q0 -4 -1 -7q-2 -12 -12.5 -20t-23.5 -8h-288q-12 1 -18.5 7t-6.5 16q0 3 1 6q2 11 12.5 20t24.5 9zM296 507l8 39q3 12 14 21.5t26 9.5q11 0 18.5 -7.5t7.5 -17.5v-6l-8 -37q-3 -14 -14.5 -23.5t-25.5 -9.5q-12 0 -19.5 7t-7.5 17
q0 4 1 7zM220 150l8 38q3 13 14 22t26 9q11 0 18.5 -7t7.5 -18v-6l-8 -36q-3 -15 -14.5 -24t-25.5 -9q-12 0 -19.5 6.5t-7.5 17.5q0 3 1 7z" />
    <glyph glyph-name="oslash" unicode="&#xf8;" horiz-adv-x="487" 
d="M427 502l42 65q11 16 29 16q7 0 12 -2q10 -5 10 -16q0 -10 -6 -20l-44 -66q47 -39 47 -110q0 -22 -5 -45l-33 -154q-16 -77 -74.5 -125.5t-130.5 -48.5h-61q-30 0 -54 9l-49 -74q-10 -15 -28 -15q-7 0 -12 3q-10 6 -10 17q0 8 5 15l51 79q-39 36 -39 98q0 20 4 42l33 154
q17 79 76 131.5t132 52.5h61q23 0 44 -6zM152 84l243 370q-11 3 -23 3h-61q-48 0 -86.5 -37.5t-49.5 -90.5l-35 -162q-3 -16 -3 -30q0 -31 15 -53zM419 167l35 162q3 16 3 32q0 40 -21 66l-245 -374q15 -5 33 -5h61q48 0 85.5 34t48.5 85z" />
    <glyph glyph-name="ugrave" unicode="&#xf9;" horiz-adv-x="499" 
d="M392 54l91 424q2 12 12.5 21.5t23.5 9.5q11 0 17.5 -7t6.5 -17v-5l-93 -436q-4 -18 -19 -31t-36 -13h-177q-56 0 -92.5 33.5t-36.5 91.5q0 20 5 42l66 313q3 11 13.5 20t23.5 9q11 0 17.5 -7t6.5 -17q0 -2 -1 -5l-66 -313q-3 -14 -3 -28q0 -38 22 -61.5t56 -23.5h163z
M439 597l-134 69q-13 7 -13 20q0 9 6 17q11 16 28 16q7 0 12 -3l136 -72q12 -7 12 -20q0 -9 -5 -16q-11 -14 -27 -14q-8 0 -15 3z" />
    <glyph glyph-name="uacute" unicode="&#xfa;" horiz-adv-x="499" 
d="M392 54l91 424q2 12 12.5 21.5t23.5 9.5q11 0 17.5 -7t6.5 -17v-5l-93 -436q-4 -18 -19 -31t-36 -13h-177q-56 0 -92.5 33.5t-36.5 91.5q0 20 5 42l66 313q3 11 13.5 20t23.5 9q11 0 17.5 -7t6.5 -17q0 -2 -1 -5l-66 -313q-3 -14 -3 -28q0 -38 22 -61.5t56 -23.5h163z
M300 644l166 72q7 3 14 3q17 0 21 -16q1 -4 1 -7q0 -20 -28 -31l-159 -68q-9 -3 -17 -3q-16 0 -20 14q-1 3 -1 6q0 20 23 30z" />
    <glyph glyph-name="ucircumflex" unicode="&#xfb;" horiz-adv-x="499" 
d="M392 54l91 424q2 12 12.5 21.5t23.5 9.5q11 0 17.5 -7t6.5 -17v-5l-93 -436q-4 -18 -19 -31t-36 -13h-177q-56 0 -92.5 33.5t-36.5 91.5q0 20 5 42l66 313q3 11 13.5 20t23.5 9q11 0 17.5 -7t6.5 -17q0 -2 -1 -5l-66 -313q-3 -14 -3 -28q0 -38 22 -61.5t56 -23.5h163z
M380 660l-86 -74q-10 -10 -24 -10q-10 0 -17 7q-5 5 -5 13q0 12 10 21l101 91q20 20 46 20q21 0 32 -18l66 -91q4 -7 4 -14q0 -12 -12 -21q-10 -8 -21 -8q-13 0 -20 10l-53 74q-4 5 -9.5 5t-11.5 -5z" />
    <glyph glyph-name="udieresis" unicode="&#xfc;" horiz-adv-x="499" 
d="M392 54l91 424q2 12 12.5 21.5t23.5 9.5q11 0 17.5 -7t6.5 -17v-5l-93 -436q-4 -18 -19 -31t-36 -13h-177q-56 0 -92.5 33.5t-36.5 91.5q0 20 5 42l66 313q3 11 13.5 20t23.5 9q11 0 17.5 -7t6.5 -17q0 -2 -1 -5l-66 -313q-3 -14 -3 -28q0 -38 22 -61.5t56 -23.5h163z
M286 661l6 28q2 12 11.5 20t22.5 8q11 0 17.5 -6t6.5 -16q0 -3 -1 -6l-5 -28q-3 -11 -12.5 -19t-23.5 -8q-23 0 -23 21q0 3 1 6zM438 661l6 28q2 12 11.5 20t22.5 8q11 0 17.5 -6t6.5 -16q0 -3 -1 -6l-5 -28q-3 -11 -12.5 -19t-22.5 -8q-24 0 -24 21q0 3 1 6z" />
    <glyph glyph-name="yacute" unicode="&#xfd;" horiz-adv-x="440" 
d="M239 63l223 423q13 24 37 23q22 -1 22 -20q0 -8 -4 -16l-357 -677q-11 -20 -33 -19q-11 1 -17 7t-6 15q0 6 3 12l102 193l-12 2q-27 7 -30 34l-42 433v2q0 12 9.5 22t23.5 12q12 1 19 -5.5t8 -16.5l41 -423q1 -8 5 -8t8 7zM270 642l166 71q7 3 14 3q17 0 21 -16
q1 -3 1 -6q0 -20 -28 -32l-159 -67q-9 -4 -17 -4q-16 0 -20 14q-1 4 -1 7q0 20 23 30z" />
    <glyph glyph-name="thorn" unicode="&#xfe;" horiz-adv-x="475" 
d="M15 -153l176 824q2 13 12 21t23 8q11 0 18 -6.5t7 -16.5q0 -3 -1 -6l-34 -162h159q34 0 59.5 -12.5t39.5 -33.5t20.5 -45t6.5 -51q0 -25 -5 -48l-32 -152q-17 -76 -73 -121.5t-122 -45.5h-161l-33 -153q-3 -13 -13.5 -21.5t-23.5 -8.5q-10 0 -16.5 6.5t-6.5 17.5v6z
M204 452l-85 -398h161q41 0 77 32t47 81l32 150q4 21 4 40q0 43 -21 69t-56 26h-159z" />
    <glyph glyph-name="ydieresis" unicode="&#xff;" horiz-adv-x="440" 
d="M239 63l223 423q13 24 37 23q22 -1 22 -20q0 -8 -4 -16l-357 -677q-11 -20 -33 -19q-11 1 -16.5 7t-5.5 15q0 6 2 12l102 193l-12 2q-27 7 -30 34l-42 433v2q0 12 9.5 22t23.5 11q12 2 19 -4.5t8 -16.5l41 -423q1 -8 5 -8t8 7zM256 659l6 27q2 13 11.5 20.5t22.5 7.5
q11 0 17.5 -6t6.5 -15q0 -3 -1 -7l-5 -27q-3 -12 -12.5 -19.5t-23.5 -7.5q-23 0 -23 21q0 3 1 6zM408 659l6 27q3 13 12 20.5t22 7.5q11 0 17.5 -6t6.5 -15q0 -3 -1 -7l-5 -27q-3 -12 -12.5 -19.5t-22.5 -7.5q-24 0 -24 20q0 4 1 7z" />
    <glyph glyph-name="Amacron" unicode="&#x100;" horiz-adv-x="605" 
d="M46 38l310 602q14 27 40.5 43.5t55.5 16.5t48 -16.5t22 -43.5l54 -605q1 -12 -9.5 -23t-26.5 -11q-11 -2 -18.5 4.5t-8.5 16.5l-19 185h-294l-97 -184q-5 -11 -15.5 -17.5t-21.5 -5.5q-24 1 -24 22q0 8 4 16zM489 265l-32 360q-1 17 -17 17t-25 -17l-186 -360h260z
M401 927h202q22 0 22 -21q0 -4 -1 -8q-3 -13 -12 -21t-21 -8h-203q-10 0 -16 6t-6 16v7q3 13 13 21t22 8z" />
    <glyph glyph-name="amacron" unicode="&#x101;" horiz-adv-x="472" 
d="M294 739h203q22 0 22 -21q0 -3 -1 -8q-3 -13 -12 -20.5t-21 -7.5h-203q-10 0 -16.5 5.5t-6.5 15.5q0 4 1 7q3 14 12.5 21.5t21.5 7.5zM369 455h-175q-25 0 -25 21q0 3 1 6q2 11 11.5 19t22.5 8h180q51 0 81 -31t30 -80q0 -17 -4 -35l-68 -321q-4 -18 -19 -30t-34 -12
h-185q-52 0 -85.5 32.5t-33.5 81.5q0 15 3 30q13 60 65 102.5t113 42.5h169l15 70q2 14 2 26q0 32 -17 51t-47 19zM197 56h169l38 178h-169q-35 0 -67 -27t-40 -63q-2 -9 -2 -18q0 -30 20.5 -50t50.5 -20z" />
    <glyph glyph-name="Abreve" unicode="&#x102;" horiz-adv-x="605" 
d="M46 38l310 602q14 27 40.5 43.5t55.5 16.5t48 -16.5t22 -43.5l54 -605q1 -12 -9.5 -23t-26.5 -12q-11 -1 -18.5 5.5t-8.5 16.5l-19 185h-294l-97 -184q-5 -11 -15.5 -17.5t-21.5 -5.5q-24 1 -24 22q0 8 4 16zM489 265l-32 360q-1 17 -17 17t-25 -17l-186 -360h260z
M502 791h-61q-38 0 -61 23t-23 58q0 10 2 21t11.5 19t21.5 8q10 0 16.5 -6.5t6.5 -15.5v-5q-2 -6 -2 -12q0 -18 11.5 -29t30.5 -11h55q20 0 38 14.5t23 35.5q2 13 11.5 21t21.5 8q11 0 17 -6.5t6 -15.5v-5q-9 -42 -46 -72t-79 -30z" />
    <glyph glyph-name="abreve" unicode="&#x103;" horiz-adv-x="472" 
d="M396 604h-62q-37 0 -60.5 22.5t-23.5 57.5q0 10 2.5 21t12 19t21.5 8q10 0 16.5 -6.5t6.5 -15.5q0 -2 -1 -5q-1 -6 -1 -11q0 -18 11.5 -29.5t29.5 -11.5h55q21 0 38.5 15t22.5 36q3 12 12.5 20t21.5 8q10 0 16.5 -6.5t6.5 -15.5q0 -2 -1 -5q-9 -42 -45.5 -71.5
t-78.5 -29.5zM369 455h-175q-25 0 -25 21q0 3 1 6q2 11 11.5 19t22.5 8h180q51 0 81 -31t30 -80q0 -17 -4 -35l-68 -321q-4 -18 -19 -30t-34 -12h-185q-52 0 -85.5 32.5t-33.5 81.5q0 15 3 30q13 60 65 102.5t113 42.5h169l14 70q3 14 3 26q0 32 -17 51t-47 19zM197 56h169
l38 178h-169q-35 0 -67 -27t-40 -63q-2 -9 -2 -18q0 -30 20 -50t51 -20z" />
    <glyph glyph-name="Aogonek" unicode="&#x104;" horiz-adv-x="605" 
d="M522 640l54 -605q1 -12 -9.5 -23t-26.5 -11q-1 -1 -3 -1t-4 1q-40 -46 -39 -80q0 -9 7 -15.5t17 -6.5q16 0 30 17q10 11 19 11h3q13 -1 13 -12q0 -4 -3 -8q-12 -21 -31.5 -32t-40.5 -11t-36 12t-15 34q0 4 1 9q5 49 58 93q-3 5 -3 10l-19 185h-294l-97 -184
q-5 -11 -15.5 -17.5t-21.5 -5.5q-24 1 -24 22q0 8 4 16l310 602q14 27 40.5 43.5t55.5 16.5t48 -16.5t22 -43.5zM489 265l-32 360q-1 17 -17 17t-25 -17l-186 -360h260z" />
    <glyph glyph-name="aogonek" unicode="&#x105;" horiz-adv-x="472" 
d="M204 509h180q51 0 81 -31t30 -80q0 -17 -4 -35l-68 -321q-4 -18 -19 -30t-34 -12h-38q-43 -49 -42 -84q1 -9 7.5 -15.5t16.5 -6.5q16 0 30 17q10 11 19 11h3q13 -1 13 -12q0 -4 -2 -8q-13 -21 -32.5 -32t-39.5 -11q-22 0 -37 12t-15 34q0 4 1 9q5 43 51 86h-120
q-52 0 -85.5 32.5t-33.5 81.5q0 15 3 30q13 60 65 102.5t113 42.5h169l15 70q2 14 2 26q0 32 -17 51t-47 19h-175q-25 0 -25 21q0 3 1 6q2 11 11.5 19t22.5 8zM366 56l38 178h-169q-35 0 -67 -27t-40 -63q-2 -9 -2 -18q0 -30 20.5 -50t50.5 -20h169z" />
    <glyph glyph-name="Cacute" unicode="&#x106;" horiz-adv-x="553" 
d="M455 700h170q11 0 18 -7t7 -17v-5q-3 -11 -14 -19.5t-23 -8.5h-170q-175 0 -215 -186l-46 -220q-6 -25 -6 -48q0 -61 36.5 -96.5t105.5 -35.5h169q12 0 19.5 -6.5t7.5 -16.5q0 -3 -1 -5q-2 -12 -13 -20.5t-23 -8.5h-171q-94 0 -144 46.5t-50 127.5q0 30 7 63l47 220
q51 243 289 243zM366 831l166 72q7 3 14 3q17 0 21 -16q1 -4 1 -7q0 -20 -27 -31l-159 -68q-9 -3 -17 -3q-17 0 -21 14q-1 3 -1 6q0 20 23 30z" />
    <glyph glyph-name="cacute" unicode="&#x107;" horiz-adv-x="429" 
d="M264 640l166 72q7 3 14 3q17 0 21 -16q1 -4 1 -7q0 -20 -28 -31l-159 -68q-9 -3 -17 -3q-16 0 -20 14q-1 3 -1 6q0 20 23 30zM355 509h113q11 0 17 -6t6 -15q0 -3 -1 -6q-2 -12 -11.5 -19.5t-22.5 -7.5h-112q-72 0 -113 -37.5t-57 -112.5l-20 -95q-7 -31 -7 -56
q0 -100 112 -100h112q11 0 17 -6t6 -15q0 -3 -1 -6q-2 -12 -11.5 -19.5t-21.5 -7.5h-113q-161 0 -161 139q0 32 9 72l20 94q43 204 240 204z" />
    <glyph glyph-name="Cdotaccent" unicode="&#x10a;" horiz-adv-x="553" 
d="M455 700h170q11 0 18 -7t7 -17v-5q-3 -11 -14 -19.5t-23 -8.5h-170q-175 0 -215 -186l-46 -220q-6 -25 -6 -48q0 -61 36.5 -96.5t105.5 -35.5h169q12 0 19 -6.5t7 -16.5v-5q-2 -12 -13 -20.5t-23 -8.5h-171q-94 0 -144 46.5t-50 127.5q0 30 7 63l47 220q51 243 289 243z
M469 849l5 27q3 12 12 20t23 8q11 0 17.5 -6t6.5 -16q0 -3 -1 -6l-6 -27q-2 -12 -12 -20t-23 -8q-23 0 -23 21q0 3 1 7z" />
    <glyph glyph-name="cdotaccent" unicode="&#x10b;" horiz-adv-x="429" 
d="M357 658l6 27q2 12 11.5 20t22.5 8q11 0 17.5 -6t6.5 -16q0 -3 -1 -6l-5 -27q-3 -12 -13 -20t-23 -8q-23 0 -23 21q0 3 1 7zM355 509h113q11 0 17 -6t6 -15q0 -3 -1 -6q-2 -12 -11.5 -19.5t-22.5 -7.5h-112q-72 0 -113 -37.5t-57 -112.5l-20 -95q-7 -31 -7 -56
q0 -100 112 -100h112q11 0 17 -6t6 -15q0 -3 -1 -6q-2 -12 -11.5 -19.5t-22.5 -7.5h-112q-161 0 -161 139q0 32 9 72l20 94q43 204 240 204z" />
    <glyph glyph-name="Ccaron" unicode="&#x10c;" horiz-adv-x="553" 
d="M455 700h170q11 0 18 -7t7 -17v-5q-3 -11 -14 -19.5t-23 -8.5h-170q-175 0 -215 -186l-46 -220q-6 -25 -6 -48q0 -61 36.5 -96.5t105.5 -35.5h169q12 0 19.5 -6.5t7.5 -16.5q0 -3 -1 -5q-2 -12 -13 -20.5t-23 -8.5h-171q-94 0 -144 46.5t-50 127.5q0 30 7 63l47 220
q51 243 289 243zM424 778l-62 91q-3 5 -3 11q0 14 13 23q9 7 19 7q14 0 20 -10l54 -74q4 -5 9.5 -5t11.5 5l85 74q11 10 24 10q11 0 18 -8q4 -5 4 -12q0 -12 -12 -23l-104 -91q-19 -18 -40 -18q-25 0 -37 20z" />
    <glyph glyph-name="ccaron" unicode="&#x10d;" horiz-adv-x="429" 
d="M329 587l-62 91q-3 5 -3 11q0 14 13 23q9 7 19 7q14 0 20 -10l54 -74q4 -5 9.5 -5t11.5 5l85 74q11 10 24 10q11 0 18 -8q4 -5 4 -12q0 -12 -11 -23l-105 -91q-19 -18 -39 -18q-26 0 -38 20zM355 509h113q11 0 17 -6t6 -15q0 -3 -1 -6q-2 -12 -11.5 -19.5t-22.5 -7.5
h-112q-72 0 -113 -37.5t-57 -112.5l-20 -95q-7 -31 -7 -56q0 -100 112 -100h112q11 0 17 -6t6 -15q0 -3 -1 -6q-2 -12 -11.5 -19.5t-22.5 -7.5h-112q-161 0 -161 139q0 32 9 72l20 94q43 204 240 204z" />
    <glyph glyph-name="Dcaron" unicode="&#x10e;" horiz-adv-x="640" 
d="M442 778l-62 91q-3 5 -3 11q0 14 13 23q9 7 19 7q14 0 20 -10l54 -74q4 -5 9.5 -5t11.5 5l85 74q11 10 24 10q11 0 18 -8q4 -5 4 -12q0 -12 -12 -23l-104 -91q-19 -18 -40 -18q-25 0 -37 20zM103 47l129 606q5 20 21.5 33.5t37.5 13.5h193q195 0 195 -164q0 -35 -9 -79
l-47 -220q-23 -107 -99.5 -172t-188.5 -65h-193q-18 0 -29 10t-11 26q0 5 1 11zM560 237l46 220q8 34 8 62q0 124 -142 124h-180l-124 -586h179q82 0 139 50t74 130z" />
    <glyph glyph-name="dcaron" unicode="&#x10f;" horiz-adv-x="632" 
d="M573 671l-133 -627q-4 -18 -20.5 -31t-34.5 -13h-174q-34 0 -59.5 12.5t-39.5 33.5t-20.5 45t-6.5 50q0 25 5 48l33 153q16 75 72 121t123 46h161l34 162q3 13 13 21t23 8q11 0 18 -6.5t7 -16.5q0 -3 -1 -6zM383 57l84 398h-161q-40 0 -76.5 -32t-46.5 -81l-32 -150
q-5 -21 -5 -40q0 -43 21.5 -69t55.5 -26h160zM634 610l13 60q3 12 13 21t24 9q11 0 18.5 -7t7.5 -18q0 -2 -1 -5l-14 -68q-6 -28 -30 -48.5t-50 -26.5q-12 -1 -19.5 5t-7.5 16v3q1 16 18 24q23 11 28 35z" />
    <glyph glyph-name="Dcroat" unicode="&#x110;" horiz-adv-x="640" 
d="M103 47l129 606q5 20 21.5 33.5t37.5 13.5h193q195 0 195 -164q0 -35 -9 -79l-47 -220q-23 -107 -99.5 -172t-188.5 -65h-193q-18 0 -29 10t-11 26q0 5 1 11zM560 237l46 220q8 34 8 62q0 124 -142 124h-180l-124 -586h179q82 0 139 50t74 130zM403 927h229q22 0 22 -21
q0 -4 -1 -8q-2 -13 -11.5 -21t-21.5 -8h-230q-10 0 -16 6t-6 16v7q3 13 13 21t22 8z" />
    <glyph glyph-name="dcroat" unicode="&#x111;" horiz-adv-x="523" 
d="M563 621h64q17 0 17 -16q0 -3 -1 -7q-5 -22 -25 -22h-65l-113 -532q-4 -18 -20 -31t-35 -13h-174q-34 0 -59.5 12.5t-39.5 33.5t-20.5 44.5t-6.5 50.5q0 25 5 48l33 153q16 75 72 121t123 46h161l14 67h-91q-17 0 -17 16v6q5 23 26 23h92l10 50q3 13 13 21t23 8
q11 0 18 -6.5t7 -16.5q0 -3 -1 -6zM383 57l84 398h-161q-40 0 -76.5 -32t-46.5 -81l-32 -150q-5 -21 -5 -40q0 -43 21.5 -69t55.5 -26h160z" />
    <glyph glyph-name="Emacron" unicode="&#x112;" horiz-adv-x="562" 
d="M392 931h202q22 0 22 -21q0 -4 -1 -8q-2 -13 -11.5 -21t-21.5 -8h-202q-11 0 -17 6t-6 16q0 3 1 7q2 13 12 21t22 8zM103 47l129 606q5 20 21.5 33.5t37.5 13.5h340q14 0 21 -6.5t7 -16.5q0 -3 -1 -7q-3 -12 -13 -20.5t-24 -8.5h-329l-52 -248h268q13 0 20.5 -6.5
t7.5 -16.5q0 -3 -1 -6q-2 -13 -13 -21.5t-24 -8.5h-271l-58 -275h326q28 0 28 -23q0 -3 -1 -6q-3 -13 -13 -21.5t-25 -8.5h-342q-18 0 -29 10t-11 27q0 5 1 10z" />
    <glyph glyph-name="emacron" unicode="&#x113;" horiz-adv-x="476" 
d="M296 738h202q22 0 22 -21q0 -4 -1 -8q-2 -13 -11.5 -21t-21.5 -8h-203q-10 0 -16 6t-6 16q0 3 1 7q2 13 12 21t22 8zM100 237l17 78q19 89 84 141.5t147 52.5q78 0 119 -35.5t41 -101.5q0 -27 -7 -57l-10 -47q-3 -18 -18.5 -30t-33.5 -12h-280q-10 -50 -10 -82
q0 -47 23 -68.5t77 -21.5h151q25 0 25 -21q0 -3 -1 -6q-2 -12 -11.5 -19.5t-22.5 -7.5h-154q-80 0 -114.5 31.5t-34.5 98.5q0 42 13 107zM433 276l9 43q4 23 4 41q0 95 -110 95q-59 0 -101.5 -37t-56.5 -98l-9 -44h264z" />
    <glyph glyph-name="Edotaccent" unicode="&#x116;" horiz-adv-x="562" 
d="M446 853l5 27q3 12 12.5 20t22.5 8q11 0 17.5 -6t6.5 -16q0 -3 -1 -6l-5 -27q-3 -12 -13 -20t-23 -8q-23 0 -23 21q0 3 1 7zM103 47l129 606q5 20 21.5 33.5t37.5 13.5h340q14 0 21 -6.5t7 -16.5q0 -3 -1 -7q-3 -12 -13 -20.5t-24 -8.5h-329l-52 -248h268q13 0 20.5 -6.5
t7.5 -16.5q0 -3 -1 -6q-2 -13 -13 -21.5t-24 -8.5h-271l-58 -275h326q28 0 28 -23q0 -3 -1 -6q-3 -13 -13.5 -21.5t-24.5 -8.5h-342q-18 0 -29 10t-11 27q0 5 1 10z" />
    <glyph glyph-name="edotaccent" unicode="&#x117;" horiz-adv-x="476" 
d="M350 660l5 27q3 12 12.5 20t22.5 8q11 0 17.5 -6t6.5 -16q0 -3 -1 -6l-6 -27q-2 -12 -12 -20t-23 -8q-23 0 -23 21q0 3 1 7zM100 237l17 78q19 89 84 141.5t147 52.5q78 0 119 -35.5t41 -101.5q0 -27 -7 -57l-10 -47q-3 -18 -18.5 -30t-33.5 -12h-280q-10 -50 -10 -82
q0 -47 23 -68.5t77 -21.5h151q25 0 25 -21q0 -3 -1 -6q-2 -12 -11.5 -19.5t-22.5 -7.5h-154q-80 0 -114.5 31.5t-34.5 98.5q0 42 13 107zM433 276l9 43q4 23 4 41q0 95 -110 95q-59 0 -101.5 -37t-56.5 -98l-9 -44h264z" />
    <glyph glyph-name="Eogonek" unicode="&#x118;" horiz-adv-x="562" 
d="M169 59h326q28 0 28 -23q0 -3 -1 -6q-3 -13 -13.5 -21.5t-24.5 -8.5h-63q-49 -52 -47 -88q0 -10 7 -16.5t17 -6.5q16 0 29 16q10 12 19 12h4q12 -2 12 -12q0 -4 -2 -8q-12 -21 -31.5 -32t-39.5 -11q-22 0 -37 12t-15 34q0 5 1 10q5 45 56 90h-252q-18 0 -29 10t-11 27
q0 5 1 10l129 606q5 20 21.5 33.5t37.5 13.5h340q14 0 21 -6.5t7 -16.5q0 -3 -1 -7q-3 -12 -13 -20.5t-24 -8.5h-329l-52 -248h268q13 0 20.5 -6.5t7.5 -16.5q0 -3 -1 -6q-2 -13 -13 -21.5t-24 -8.5h-271z" />
    <glyph glyph-name="eogonek" unicode="&#x119;" horiz-adv-x="476" 
d="M100 237l17 78q19 89 84 141.5t147 52.5q78 0 119 -35.5t41 -101.5q0 -27 -7 -57l-10 -47q-3 -18 -18.5 -30t-33.5 -12h-280q-10 -50 -10 -82q0 -47 23 -68.5t77 -21.5h151q25 0 25 -21q0 -3 -1 -6q-2 -12 -11.5 -19.5t-22.5 -7.5h-48q-48 -51 -46 -87q1 -9 7.5 -15.5
t16.5 -6.5q16 0 30 16q9 11 19 11h3q13 -1 13 -12q0 -4 -3 -8q-12 -21 -31.5 -32t-39.5 -11q-22 0 -37 12.5t-15 33.5q0 5 1 10q5 45 55 89h-79q-80 0 -114.5 31.5t-34.5 98.5q0 42 13 107zM433 276l9 43q4 23 4 41q0 95 -110 95q-59 0 -101.5 -37t-56.5 -98l-9 -44h264z
" />
    <glyph glyph-name="Ecaron" unicode="&#x11a;" horiz-adv-x="562" 
d="M418 779l-63 91q-3 4 -3 10q0 14 13 24q9 7 20 7q13 0 20 -10l54 -74q3 -5 9 -5t12 5l84 73q11 11 24 11q12 0 18 -8q5 -5 5 -12q0 -12 -12 -23l-104 -91q-19 -18 -40 -18q-26 0 -37 20zM103 47l129 606q5 20 21.5 33.5t37.5 13.5h340q14 0 21 -6.5t7 -16.5q0 -3 -1 -7
q-3 -12 -13 -20.5t-24 -8.5h-329l-52 -248h268q13 0 20.5 -6.5t7.5 -16.5q0 -3 -1 -6q-2 -13 -13 -21.5t-24 -8.5h-271l-58 -275h326q28 0 28 -23q0 -3 -1 -6q-3 -13 -13.5 -21.5t-24.5 -8.5h-342q-18 0 -29 10t-11 27q0 5 1 10z" />
    <glyph glyph-name="ecaron" unicode="&#x11b;" horiz-adv-x="476" 
d="M322 586l-63 91q-3 5 -3 10q0 14 13 24q9 7 20 7q13 0 20 -10l54 -74q3 -5 9 -5t12 5l84 73q11 11 24 11q12 0 18 -8q5 -5 5 -12q0 -12 -12 -23l-104 -91q-19 -18 -40 -18q-26 0 -37 20zM100 237l17 78q19 89 84 141.5t147 52.5q78 0 119 -35.5t41 -101.5q0 -27 -7 -57
l-10 -47q-3 -18 -18.5 -30t-33.5 -12h-280q-10 -50 -10 -82q0 -47 23 -68.5t77 -21.5h151q25 0 25 -21q0 -3 -1 -6q-2 -12 -11.5 -19.5t-22.5 -7.5h-154q-80 0 -114.5 31.5t-34.5 98.5q0 43 13 107zM433 276l9 44q4 22 4 40q0 95 -110 95q-59 0 -101.5 -37t-56.5 -98l-9 -44
h264z" />
    <glyph glyph-name="Gbreve" unicode="&#x11e;" horiz-adv-x="643" 
d="M562 302h-113q-13 0 -20 6.5t-7 16.5v6q3 11 14 20t23 9h129q18 0 29 -10.5t11 -26.5q0 -5 -1 -11l-57 -265q-4 -20 -20.5 -33.5t-37.5 -13.5h-206q-94 0 -144 46.5t-50 127.5q0 30 7 63l47 220q51 243 289 243h189q11 0 18 -7t7 -17q0 -2 -1 -5q-2 -11 -13 -19.5
t-23 -8.5h-189q-175 0 -214 -186l-47 -220q-5 -25 -5 -48q0 -61 36 -96.5t105 -35.5h192zM521 791h-62q-37 0 -60.5 23t-23.5 58q0 10 2.5 21t11.5 19t22 8q10 0 16.5 -6.5t6.5 -15.5q0 -3 -1 -5q-1 -6 -1 -12q0 -18 11.5 -29t29.5 -11h55q21 0 38.5 14.5t22.5 35.5
q3 13 12.5 21t21.5 8q10 0 16.5 -6.5t6.5 -15.5q0 -3 -1 -5q-9 -42 -45.5 -72t-78.5 -30z" />
    <glyph glyph-name="gbreve" unicode="&#x11f;" horiz-adv-x="497" 
d="M319 509h176q17 0 26.5 -9t9.5 -24q0 -5 -1 -10l-99 -462q-25 -120 -77.5 -175t-157.5 -55h-152q-25 0 -25 21q0 3 1 6q2 11 11.5 19t22.5 8h153q71 0 106 39t57 133h-161q-56 0 -92 33.5t-36 91.5q0 20 5 42l32 152q6 30 21.5 61t39.5 61t61 49t79 19zM383 56l84 396
h-160q-43 0 -80 -38t-50 -97l-32 -150q-3 -14 -3 -28q0 -37 22.5 -60t56.5 -23h162zM407 600h-61q-37 0 -60.5 23t-23.5 58q0 10 2.5 21t11.5 19t21 8q10 0 16.5 -6.5t6.5 -15.5v-5q-1 -6 -1 -12q0 -18 11.5 -29t29.5 -11h55q21 0 38.5 14.5t22.5 35.5q3 13 12.5 21t21.5 8
q10 0 16.5 -6.5t6.5 -15.5q0 -3 -1 -5q-9 -42 -46 -72t-79 -30z" />
    <glyph glyph-name="Gdotaccent" unicode="&#x120;" horiz-adv-x="643" 
d="M562 302h-113q-13 0 -20 6.5t-7 16.5v6q3 11 14 20t23 9h129q18 0 29 -10.5t11 -26.5q0 -5 -1 -11l-57 -265q-4 -20 -20.5 -33.5t-37.5 -13.5h-206q-94 0 -144 46.5t-50 127.5q0 30 7 63l47 220q51 243 289 243h189q11 0 18 -7t7 -17q0 -2 -1 -5q-2 -11 -13 -19.5
t-23 -8.5h-189q-175 0 -214 -186l-47 -220q-5 -25 -5 -48q0 -61 36 -96.5t105 -35.5h192zM473 849l6 27q3 12 12 20t22 8q11 0 17.5 -6t6.5 -16v-6l-6 -27q-3 -12 -12.5 -20t-22.5 -8q-24 0 -24 21q0 3 1 7z" />
    <glyph glyph-name="gdotaccent" unicode="&#x121;" horiz-adv-x="497" 
d="M319 509h176q17 0 26.5 -9t9.5 -24q0 -5 -1 -9l-99 -463q-25 -120 -77.5 -175t-157.5 -55h-152q-25 0 -25 21q0 3 1 6q2 11 11.5 19t22.5 8h153q71 0 106 39t57 133h-161q-56 0 -92 33.5t-36 91.5q0 20 5 42l32 152q6 30 21.5 61.5t39.5 61t61 48.5t79 19zM383 56l84 396
h-160q-43 0 -80 -38t-50 -97l-32 -150q-3 -14 -3 -28q0 -37 22.5 -60t56.5 -23h162zM374 658l6 27q2 12 11.5 20t22.5 8q11 0 17.5 -6t6.5 -16v-6l-6 -27q-3 -12 -12.5 -19.5t-22.5 -7.5q-24 0 -24 20q0 3 1 7z" />
    <glyph glyph-name="Gcommaaccent" unicode="&#x122;" horiz-adv-x="643" 
d="M562 302h-113q-13 0 -20 6.5t-7 16.5v6q3 11 14 20t23 9h129q18 0 29 -10.5t11 -26.5q0 -5 -1 -11l-57 -265q-4 -20 -20.5 -33.5t-37.5 -13.5h-206q-94 0 -144 46.5t-50 127.5q0 30 7 63l47 220q51 243 289 243h189q11 0 18 -7t7 -17q0 -2 -1 -5q-2 -11 -13 -19.5
t-23 -8.5h-189q-175 0 -214 -186l-47 -220q-5 -25 -5 -48q0 -61 36 -96.5t105 -35.5h192zM302 -121l12 57q2 11 11 18.5t20 7.5q10 0 16 -6t6 -15q0 -2 -1 -5l-13 -63q-6 -25 -27 -43t-44 -24q-10 -1 -16.5 4t-6.5 14v2q0 12 16 20q22 12 27 33z" />
    <glyph glyph-name="gcommaaccent" unicode="&#x123;" horiz-adv-x="497" 
d="M319 509h176q17 0 26.5 -9t9.5 -24q0 -5 -1 -9l-99 -463q-25 -120 -77.5 -175t-157.5 -55h-152q-25 0 -25 21q0 3 1 6q2 11 11.5 19t22.5 8h153q71 0 106 39t57 133h-161q-56 0 -92 33.5t-36 91.5q0 20 5 42l32 152q6 30 21.5 61.5t39.5 61t61 48.5t79 19zM383 56l84 396
h-160q-43 0 -80 -38t-50 -97l-32 -150q-3 -14 -3 -27q0 -38 22.5 -61t56.5 -23h162zM423 643l-12 -57q-3 -12 -11.5 -19t-19.5 -7q-10 0 -16 6t-6 15v5l14 63q5 25 26 43t45 24q11 1 17 -4.5t5 -15.5q0 -12 -15 -20q-23 -11 -27 -33z" />
    <glyph glyph-name="Hbar" unicode="&#x126;" horiz-adv-x="755" 
d="M749 565h77q12 0 18.5 -6t6.5 -16q0 -3 -1 -6q-3 -13 -12.5 -21t-23.5 -8h-77l-101 -476q-3 -14 -14 -23t-24 -9q-12 0 -19 6.5t-7 16.5v7l63 292h-376l-62 -290q-3 -14 -13.5 -23t-24.5 -9q-11 0 -18 6.5t-7 16.5v7l102 478h-77q-9 0 -17 5.5t-8 17.5v7q3 11 13.5 19
t23.5 8h77l23 105q2 13 13 21.5t24 8.5q12 0 19 -6.5t7 -17.5q0 -4 -1 -8l-22 -103h375l23 105q2 13 13 21.5t25 8.5q11 0 18 -6.5t7 -17.5q0 -4 -1 -8zM647 380l27 128h-375l-28 -128h376z" />
    <glyph glyph-name="hbar" unicode="&#x127;" horiz-adv-x="592" 
d="M272 509h163q56 0 92 -34t36 -92q0 -20 -4 -41l-67 -314q-3 -13 -13.5 -20.5t-23.5 -7.5q-24 0 -24 21q0 3 1 7l66 312q4 15 4 29q0 39 -22.5 62.5t-56.5 23.5h-163l-90 -427q-3 -13 -13.5 -20.5t-22.5 -7.5q-25 0 -25 21q0 3 1 7l117 550h-60q-20 1 -20 16q0 4 1 8
q2 8 10 14t18 6h60l10 49q3 13 13 21t23 8q11 0 18 -6.5t7 -15.5q0 -3 -1 -7l-10 -49h149q19 0 19 -16q0 -3 -1 -6q-5 -22 -28 -22h-148z" />
    <glyph glyph-name="Itilde" unicode="&#x128;" horiz-adv-x="248" 
d="M100 30l136 640q3 13 13.5 21.5t24.5 8.5q11 0 18 -6.5t7 -17.5q0 -4 -1 -8l-135 -636q-3 -14 -14 -23t-24 -9q-12 0 -19 6.5t-7 16.5q0 3 1 7zM253 888q17 1 30.5 -3.5t20 -9.5t15.5 -14q1 -1 2 -3q9 -8 14 -12.5t14.5 -8t20.5 -2.5q16 1 52 28q8 6 17 6q13 0 19 -9
q4 -4 4 -11q0 -14 -11 -24q-56 -44 -91 -46q-17 -1 -31.5 4.5t-20 10t-18.5 17.5q-24 23 -42 23h-7q-23 -4 -59 -30q-9 -6 -18 -6q-11 0 -18 8q-4 6 -4 13q0 14 16 26q55 41 95 43z" />
    <glyph glyph-name="itilde" unicode="&#x129;" horiz-adv-x="200" 
d="M81 28l96 452q3 13 12.5 21t22.5 8q12 0 18.5 -6t6.5 -16q0 -4 -1 -7l-96 -452q-2 -13 -12 -20.5t-24 -7.5q-24 0 -24 21q0 3 1 7zM188 693q17 1 30.5 -3.5t20 -9.5t15.5 -14q1 -1 2 -3q9 -8 14 -12.5t14.5 -8t20.5 -2.5q16 1 52 28q8 6 17 6q13 0 19 -8q4 -5 4 -12
q0 -14 -11 -24q-56 -44 -91 -46q-17 -1 -31.5 4.5t-20 10t-18.5 17.5q-24 23 -42 23h-7q-23 -4 -60 -30q-8 -6 -17 -6q-11 0 -17 8q-5 6 -5 14q0 13 15 25q56 41 96 43z" />
    <glyph glyph-name="Imacron" unicode="&#x12a;" horiz-adv-x="248" 
d="M223 931h203q22 0 22 -21q0 -4 -1 -8q-3 -13 -12 -21t-22 -8h-202q-11 0 -17 6t-6 16q0 3 1 7q3 13 12.5 21t21.5 8zM100 30l136 640q3 13 13.5 21.5t24.5 8.5q11 0 18 -6.5t7 -17.5q0 -4 -1 -8l-135 -636q-3 -14 -14 -23t-24 -9q-12 0 -19 6.5t-7 16.5q0 3 1 7z" />
    <glyph glyph-name="imacron" unicode="&#x12b;" horiz-adv-x="200" 
d="M81 28l96 452q3 13 12.5 21t22.5 8q12 0 18.5 -6t6.5 -16q0 -4 -1 -7l-96 -452q-2 -13 -12 -20.5t-24 -7.5q-24 0 -24 21q0 3 1 7zM158 736h203q21 0 21 -21v-8q-3 -13 -12.5 -21t-21.5 -8h-202q-11 0 -17 6t-6 16v7q3 13 13 21t22 8z" />
    <glyph glyph-name="Iogonek" unicode="&#x12e;" horiz-adv-x="248" 
d="M298 668l-135 -636q-3 -14 -14 -23t-24 -9q-4 0 -8 1q-40 -46 -38 -79q0 -9 7 -15.5t17 -6.5q15 0 29 15q9 12 19 12h4q12 -2 12 -13q0 -3 -2 -7q-13 -21 -32.5 -32t-39.5 -11q-22 0 -36.5 12t-14.5 34q0 5 1 10q5 48 59 93q-3 5 -3 11q0 3 1 6l136 640q3 13 13.5 21.5
t24.5 8.5q11 0 18 -6.5t7 -17.5q0 -4 -1 -8z" />
    <glyph glyph-name="iogonek" unicode="&#x12f;" horiz-adv-x="200" 
d="M236 480l-96 -452q-4 -21 -26 -27q-48 -51 -46 -89q0 -9 7 -15.5t16 -6.5q16 0 30 17q10 11 20 11h3q12 -1 12 -12q0 -4 -2 -8q-12 -21 -32 -32t-40 -11q-22 0 -36.5 12t-14.5 34v9q6 47 59 94q-10 5 -10 17q0 3 1 7l96 452q3 13 12.5 21t22.5 8q12 0 18.5 -6t6.5 -16
q0 -4 -1 -7zM275 685l-5 -27q-3 -12 -13 -19.5t-23 -7.5q-23 0 -23 20q0 3 1 7l6 27q2 12 11.5 20t22.5 8q11 0 17.5 -6t6.5 -16q0 -3 -1 -6z" />
    <glyph glyph-name="Idotaccent" unicode="&#x130;" horiz-adv-x="248" 
d="M100 30l136 640q3 13 13.5 21.5t23.5 8.5q12 0 19 -6.5t7 -17.5q0 -4 -1 -8l-135 -636q-3 -14 -14 -23t-24 -9q-12 0 -19 6.5t-7 16.5q0 3 1 7zM277 853l6 27q2 12 11.5 20t22.5 8q11 0 17.5 -6t6.5 -16v-6l-6 -27q-3 -12 -12.5 -20t-22.5 -8q-24 0 -24 21q0 3 1 7z" />
    <glyph glyph-name="dotlessi" unicode="&#x131;" horiz-adv-x="200" 
d="M81 28l96 452q3 13 12.5 21t22.5 8q12 0 18.5 -6t6.5 -16q0 -4 -1 -7l-96 -452q-2 -13 -12 -20.5t-24 -7.5q-24 0 -24 21q0 3 1 7z" />
    <glyph glyph-name="IJ" unicode="&#x132;" horiz-adv-x="573" 
d="M622 668l-102 -484q-8 -37 -17.5 -65.5t-19 -48t-24 -32.5t-27 -20.5t-33 -11.5t-37 -5t-44.5 -1q-13 0 -20 6.5t-7 16.5q0 3 1 6q2 11 13 19.5t23 8.5q26 0 38.5 1t27 5.5t21.5 12t15.5 24t14.5 37.5t14 56l101 477q3 13 13.5 21.5t24.5 8.5q12 0 18.5 -6.5t6.5 -17.5
q0 -4 -1 -8zM100 30l136 640q3 13 13.5 21.5t24.5 8.5q11 0 18 -6.5t7 -17.5q0 -4 -1 -8l-135 -636q-3 -14 -14 -23t-24 -9q-12 0 -19 6.5t-7 16.5q0 3 1 7z" />
    <glyph glyph-name="ij" unicode="&#x133;" horiz-adv-x="399" 
d="M287 68l88 412q3 12 13 20.5t23 8.5q11 0 17.5 -6t6.5 -17v-6l-88 -413q-10 -47 -27 -82t-52 -74l-74 -82q-10 -11 -25 -11q-11 0 -18 6q-7 7 -7 17q0 13 10 23l68 75q50 57 65 129zM81 28l96 452q3 13 12.5 21t22.5 8q12 0 18.5 -6t6.5 -16q0 -4 -1 -7l-96 -452
q-2 -13 -12 -20.5t-24 -7.5q-24 0 -24 21q0 3 1 7zM213 647l4 19q2 13 12 21t23 8q11 0 18 -6t7 -16q0 -3 -1 -7l-4 -19q-3 -12 -13 -20t-23 -8q-24 0 -24 22q0 3 1 6zM410 647l5 20q2 12 12.5 20t23.5 8q11 0 17.5 -6t6.5 -16q0 -3 -1 -6l-4 -20q-2 -12 -12 -19.5t-23 -7.5
q-12 0 -18.5 5.5t-6.5 15.5v6z" />
    <glyph glyph-name="Kcommaaccent" unicode="&#x136;" horiz-adv-x="566" 
d="M349 414l260 275q11 11 27 11q12 0 19 -6.5t7 -16.5q0 -3 -1 -7q-2 -9 -12 -19l-292 -304l177 -299q3 -6 3 -13q0 -3 -1 -5q-2 -13 -13 -21.5t-24 -8.5q-16 0 -22 11l-161 282q-12 23 -22 23h-71l-61 -284q-3 -14 -13.5 -23t-24.5 -9q-12 0 -18.5 6.5t-6.5 16.5q0 3 1 7
l136 640q3 13 13 21.5t24 8.5q12 0 19 -6.5t7 -16.5q0 -3 -1 -7l-62 -293h65q3 0 6.5 1t7.5 4t7 5.5t7.5 6.5t7 7t6.5 7zM247 -121l12 57q2 11 10.5 18.5t20.5 7.5q9 0 15 -6t6 -15v-5l-14 -63q-5 -25 -26 -43t-44 -24q-11 -1 -17 4t-6 14v2q0 12 16 20q22 12 27 33z" />
    <glyph glyph-name="kcommaaccent" unicode="&#x137;" horiz-adv-x="459" 
d="M81 29l137 642q2 13 12 21t24 8q11 0 17.5 -6t6.5 -16v-7l-79 -368h69q8 0 18 9l184 177q11 11 26 11q11 0 18 -7t7 -16q0 -12 -13 -24l-189 -180l122 -228q2 -5 2 -10q0 -16 -15 -27q-10 -8 -22 -8q-16 0 -22 12l-108 209l-6 11q-1 3 -5 6.5t-9 3.5h-70l-45 -212
q-2 -13 -12.5 -21.5t-23.5 -8.5q-11 0 -18 6t-7 16q0 3 1 7zM199 -121l12 57q3 11 11.5 18.5t20.5 7.5q9 0 15 -6t6 -15v-5l-14 -63q-5 -25 -26 -43t-45 -24q-10 -1 -16 4t-6 14v2q0 12 15 20q23 12 27 33z" />
    <glyph glyph-name="Lacute" unicode="&#x139;" horiz-adv-x="521" 
d="M103 47l133 623q3 13 13.5 21.5t24.5 8.5q11 0 18 -6.5t7 -16.5v-7l-130 -611h296q12 0 19.5 -6.5t7.5 -16.5v-6q-3 -13 -14 -21.5t-24 -8.5h-311q-19 0 -30 10t-11 27q0 5 1 10zM351 831l166 72q7 3 13 3q17 0 22 -16q1 -4 1 -7q0 -20 -28 -31l-159 -68q-9 -3 -17 -3
q-16 0 -21 14q-1 3 -1 6q0 20 24 30z" />
    <glyph glyph-name="lacute" unicode="&#x13a;" horiz-adv-x="193" 
d="M81 29l137 642q2 13 12.5 21t23.5 8q11 0 17.5 -6.5t6.5 -16.5v-8l-136 -639q-3 -13 -13.5 -21.5t-23.5 -8.5q-11 0 -18 6t-7 16q0 3 1 7zM173 767l166 72q7 3 14 3q17 0 21 -16q1 -3 1 -7q0 -19 -28 -31l-159 -67q-9 -4 -17 -4q-16 0 -21 14v6q0 20 23 30z" />
    <glyph glyph-name="Lcommaaccent" unicode="&#x13b;" horiz-adv-x="521" 
d="M103 47l133 623q3 13 13.5 21.5t24.5 8.5q11 0 18 -6.5t7 -16.5v-7l-130 -611h296q12 0 19.5 -6.5t7.5 -16.5v-6q-3 -13 -14 -21.5t-24 -8.5h-311q-19 0 -30 10t-11 27q0 5 1 10zM249 -121l12 57q3 11 11.5 18.5t19.5 7.5q10 0 16 -6t6 -15q0 -2 -1 -5l-13 -63
q-5 -25 -26 -43t-45 -24q-10 -1 -16 4t-6 14v2q0 12 15 20q23 12 27 33z" />
    <glyph glyph-name="lcommaaccent" unicode="&#x13c;" horiz-adv-x="193" 
d="M81 29l137 642q2 13 12.5 21t23.5 8q11 0 17.5 -6.5t6.5 -16.5v-8l-136 -639q-3 -13 -13.5 -21.5t-23.5 -8.5q-11 0 -18 6t-7 16q0 3 1 7zM53 -121l12 57q2 11 10.5 18.5t20.5 7.5q9 0 15 -6t6 -15v-5l-14 -63q-5 -25 -26 -43t-44 -24q-11 -1 -17 4t-6 14v2q0 12 16 20
q22 12 27 33z" />
    <glyph glyph-name="Lcaron" unicode="&#x13d;" horiz-adv-x="521" 
d="M103 47l133 623q3 13 13.5 21.5t24.5 8.5q11 0 18 -6.5t7 -16.5v-7l-130 -611h296q12 0 19.5 -6.5t7.5 -16.5v-6q-3 -13 -14 -21.5t-24 -8.5h-311q-19 0 -30 10t-11 27q0 5 1 10zM438 610l13 60q2 12 12.5 21t24.5 9q11 0 18.5 -7t7.5 -18q0 -3 -1 -5l-14 -68
q-6 -28 -30 -48.5t-50 -26.5q-13 -1 -20 5t-7 16v3q0 15 18 23q23 12 28 36z" />
    <glyph glyph-name="lcaron" unicode="&#x13e;" horiz-adv-x="286" 
d="M81 29l137 642q2 13 12.5 21t23.5 8q11 0 17.5 -6.5t6.5 -16.5v-8l-136 -639q-3 -13 -13.5 -21.5t-23.5 -8.5q-11 0 -18 6t-7 16q0 3 1 7zM329 610l13 60q2 12 12.5 21t24.5 9q11 0 18 -7.5t7 -17.5v-5l-15 -68q-6 -28 -29.5 -48.5t-50.5 -26.5q-12 -1 -19.5 5t-7.5 16
q0 2 1 3q0 15 18 23q23 12 28 36z" />
    <glyph glyph-name="Ldot" unicode="&#x13f;" horiz-adv-x="521" 
d="M103 47l133 623q3 13 13.5 21.5t24.5 8.5q11 0 18 -6.5t7 -16.5v-7l-130 -611h296q12 0 19.5 -6.5t7.5 -16.5v-6q-3 -13 -14 -21.5t-24 -8.5h-311q-19 0 -30 10t-11 27q0 5 1 10zM397 341l9 39q2 12 13 21.5t26 9.5q12 0 19.5 -7.5t7.5 -17.5q0 -3 -1 -6l-8 -37
q-3 -14 -14.5 -23.5t-25.5 -9.5q-12 0 -19 7t-7 18v6z" />
    <glyph glyph-name="ldot" unicode="&#x140;" horiz-adv-x="263" 
d="M81 29l137 642q2 13 12.5 21t23.5 8q11 0 17.5 -6.5t6.5 -16.5v-8l-136 -639q-3 -13 -13.5 -21.5t-23.5 -8.5q-11 0 -18 6t-7 16q0 3 1 7zM241 303l8 39q3 12 14 21.5t26 9.5q12 0 19.5 -7.5t7.5 -17.5q0 -3 -1 -6l-8 -37q-3 -14 -14.5 -23.5t-25.5 -9.5q-12 0 -19.5 7
t-7.5 18q0 3 1 6z" />
    <glyph glyph-name="Lslash" unicode="&#x141;" horiz-adv-x="554" 
d="M186 295l80 375q3 13 13.5 21.5t24.5 8.5q12 0 19 -6.5t7 -16.5q0 -3 -1 -7l-71 -333l139 113q11 6 20 6q14 0 20 -13q2 -5 2 -10q0 -19 -21 -31l-175 -134l-44 -209h296q12 0 19.5 -6.5t7.5 -16.5v-6q-3 -13 -13.5 -21.5t-24.5 -8.5h-311q-18 0 -29.5 10t-11.5 27
q0 5 2 10l38 179l-46 -36q-9 -4 -17 -4q-13 0 -19 12q-2 4 -2 9q0 19 21 31z" />
    <glyph glyph-name="lslash" unicode="&#x142;" horiz-adv-x="393" 
d="M202 306l77 364q3 13 13.5 21.5t24.5 8.5q11 0 18 -6.5t7 -17.5q0 -4 -1 -8l-68 -320l126 102q11 6 20 6q14 0 20 -12q2 -5 2 -11q0 -18 -21 -30l-161 -124l-53 -247q-3 -14 -13.5 -23t-24.5 -9q-12 0 -19 6.5t-7 16.5q0 4 1 7l44 208l-62 -49q-8 -4 -16 -4q-13 0 -19 12
q-2 4 -2 10q0 18 21 31z" />
    <glyph glyph-name="Nacute" unicode="&#x143;" horiz-adv-x="676" 
d="M428 831l166 72q7 3 14 3q17 0 21 -16q1 -4 1 -7q0 -20 -27 -31l-159 -68q-9 -3 -17 -3q-17 0 -21 14q-1 3 -1 6q0 20 23 30zM548 79l126 591q3 13 13.5 21.5t23.5 8.5q12 0 19 -6.5t7 -16.5q0 -3 -1 -7l-126 -593q-7 -33 -34 -55t-61 -22q-23 0 -40 12.5t-22 32.5
l-141 581q-4 18 -17 16q-13 -1 -17 -21l-126 -591q-2 -13 -13 -21.5t-24 -8.5q-12 0 -19 6.5t-7 16.5q0 3 1 7l126 593q7 33 34 55t61 22q23 0 40 -12.5t22 -32.5l142 -581q4 -18 16 -16q13 2 17 21z" />
    <glyph glyph-name="nacute" unicode="&#x144;" horiz-adv-x="507" 
d="M221 509h177q56 0 92 -34t36 -92q0 -20 -4 -41l-67 -313q-2 -12 -13 -20.5t-24 -8.5q-11 0 -17 6.5t-6 16.5v6l67 313q3 16 3 31q0 37 -21 59.5t-58 22.5h-163l-90 -425q-3 -13 -13.5 -21.5t-22.5 -8.5t-18.5 6.5t-6.5 16.5q0 3 1 6l92 436q4 18 19.5 31t36.5 13z
M303 640l166 72q7 3 14 3q17 0 21 -16q1 -4 1 -7q0 -20 -28 -31l-159 -68q-9 -3 -17 -3q-16 0 -20 14q-1 3 -1 6q0 20 23 30z" />
    <glyph glyph-name="Ncommaaccent" unicode="&#x145;" horiz-adv-x="676" 
d="M548 79l126 591q3 13 13.5 21.5t23.5 8.5q12 0 19 -6.5t7 -16.5q0 -3 -1 -7l-126 -593q-7 -33 -34 -55t-61 -22q-23 0 -40 12.5t-22 32.5l-141 581q-4 18 -17 16q-13 -1 -17 -21l-126 -591q-2 -13 -13 -21.5t-24 -8.5q-12 0 -19 6.5t-7 16.5q0 3 1 7l126 593
q7 33 34.5 55t60.5 22q23 0 40 -12.5t22 -32.5l142 -581q4 -18 16 -16q13 2 17 21zM302 -121l12 57q2 11 11 18.5t20 7.5q10 0 16 -6t6 -15q0 -2 -1 -5l-13 -63q-6 -25 -27 -43t-44 -24q-10 -1 -16.5 4t-6.5 14v2q0 12 16 20q22 12 27 33z" />
    <glyph glyph-name="ncommaaccent" unicode="&#x146;" horiz-adv-x="507" 
d="M221 509h177q56 0 92 -34t36 -92q0 -20 -4 -41l-67 -313q-2 -12 -13 -20.5t-24 -8.5q-11 0 -17 6.5t-6 16.5v6l67 313q3 16 3 31q0 37 -21 59.5t-58 22.5h-163l-90 -425q-3 -13 -13.5 -21.5t-22.5 -8.5t-18.5 6.5t-6.5 16.5q0 3 1 6l92 436q4 18 19.5 31t36.5 13z
M212 -121l13 57q2 11 10.5 18.5t20.5 7.5q9 0 15 -6t6 -15v-5l-14 -63q-5 -25 -26 -43t-44 -24q-11 -1 -17 4t-6 14v2q0 12 16 20q22 12 26 33z" />
    <glyph glyph-name="Ncaron" unicode="&#x147;" horiz-adv-x="676" 
d="M462 775l-62 91q-3 5 -3 10q0 14 13 24q9 7 19 7q14 0 20 -10l54 -74q4 -5 9.5 -5t11.5 5l85 73q11 11 24 11q11 0 18 -8q4 -5 4 -12q0 -12 -12 -23l-104 -91q-19 -18 -40 -18q-25 0 -37 20zM548 79l126 591q3 13 13.5 21.5t23.5 8.5q12 0 19 -6.5t7 -16.5q0 -3 -1 -7
l-126 -593q-7 -33 -34 -55t-61 -22q-23 0 -40 12.5t-22 32.5l-141 581q-4 18 -17 16q-13 -1 -17 -21l-126 -591q-2 -13 -13 -21.5t-24 -8.5q-12 0 -19 6.5t-7 16.5q0 3 1 7l126 593q7 33 34 55t61 22q23 0 40 -12.5t22 -32.5l142 -581q4 -18 16 -16q13 2 17 21z" />
    <glyph glyph-name="ncaron" unicode="&#x148;" horiz-adv-x="507" 
d="M221 509h177q56 0 92 -34t36 -92q0 -20 -4 -41l-67 -313q-2 -12 -13 -20.5t-24 -8.5q-11 0 -17 6.5t-6 16.5v6l67 313q3 16 3 31q0 37 -21 59.5t-58 22.5h-163l-90 -425q-3 -13 -13.5 -21.5t-22.5 -8.5t-18.5 6.5t-6.5 16.5q0 3 1 6l92 436q4 18 19.5 31t36.5 13z
M337 584l-63 91q-3 5 -3 10q0 14 13 24q9 7 20 7q13 0 20 -10l54 -74q4 -5 9.5 -5t11.5 5l84 73q12 11 25 11q11 0 17 -8q5 -5 5 -12q0 -12 -12 -23l-104 -91q-19 -18 -40 -18q-26 0 -37 20z" />
    <glyph glyph-name="Eng" unicode="&#x14a;" horiz-adv-x="676" 
d="M548 77l126 593q3 13 13.5 21.5t23.5 8.5q27 0 27 -21q0 -4 -1 -9l-140 -656q-8 -37 -17.5 -65.5t-19 -48t-23.5 -32.5t-27 -21t-33 -11.5t-37 -4.5t-45 -1q-12 0 -19 7t-7 17v5q3 11 13.5 19.5t23.5 8.5q35 0 51 2t32 14t24.5 34t17.5 64q-8 -1 -16 -1q-23 0 -40 12.5
t-22 32.5l-141 581q-4 18 -17 16q-13 -1 -17 -21l-126 -591q-2 -13 -13 -21.5t-24 -8.5q-12 0 -19 6.5t-7 16.5q0 3 1 7l126 593q7 33 34 55t61 22q23 0 40 -12.5t22 -32.5l142 -581q4 -18 16 -16t17 19z" />
    <glyph glyph-name="eng" unicode="&#x14b;" horiz-adv-x="507" 
d="M221 509h177q56 0 92 -34t36 -92q0 -20 -4 -41l-59 -275q-9 -47 -26.5 -82.5t-52.5 -73.5l-74 -82q-9 -11 -25 -11q-11 0 -17 6q-8 7 -8 17q0 13 10 23l68 75q50 57 66 129l58 274q3 16 3 31q0 37 -21 59.5t-58 22.5h-163l-90 -425q-3 -13 -13.5 -21.5t-22.5 -8.5
t-18.5 6.5t-6.5 16.5q0 3 1 6l92 436q4 18 19.5 31t36.5 13z" />
    <glyph glyph-name="Omacron" unicode="&#x14c;" 
d="M427 931h202q22 0 22 -21q0 -4 -1 -8q-2 -13 -11.5 -21t-21.5 -8h-203q-10 0 -16 6t-6 16q0 3 1 7q2 13 12 21t22 8zM455 700h45q196 0 196 -164q0 -35 -10 -79l-46 -220q-23 -107 -99.5 -172t-188.5 -65h-46q-94 0 -144 47t-50 127q0 30 7 63l47 220q51 243 289 243z
M229 457l-46 -220q-6 -25 -6 -48q0 -61 36.5 -96.5t104.5 -35.5h46q82 0 138.5 50t73.5 130l47 220q7 34 7 62q0 124 -142 124h-45q-174 0 -214 -186z" />
    <glyph glyph-name="omacron" unicode="&#x14d;" horiz-adv-x="498" 
d="M307 740h202q22 0 22 -21q0 -4 -1 -8q-2 -13 -11.5 -21t-21.5 -8h-202q-11 0 -17 6t-6 16q0 3 1 7q3 13 12.5 21t21.5 8zM279 -4h-61q-62 0 -99 35.5t-37 96.5q0 20 4 42l33 154q17 79 76 131.5t132 52.5h61q61 0 97.5 -38.5t36.5 -100.5q0 -22 -5 -45l-33 -154
q-16 -77 -74.5 -125.5t-130.5 -48.5zM229 48h61q48 0 85.5 34t48.5 85l35 162q3 16 3 32q0 42 -23 69t-62 27h-61q-47 0 -86 -37.5t-50 -90.5l-34 -162q-4 -16 -4 -30q0 -40 23.5 -64.5t63.5 -24.5z" />
    <glyph glyph-name="Ohungarumlaut" unicode="&#x150;" 
d="M311 835l165 71q8 3 14 3q18 0 22 -16q1 -3 1 -6q0 -20 -28 -32l-159 -67q-9 -4 -17 -4q-16 0 -21 14q-1 4 -1 7q0 20 24 30zM527 835l166 71q7 3 14 3q17 0 21 -16q1 -3 1 -6q0 -20 -28 -32l-159 -67q-9 -4 -17 -4q-16 0 -20 14q-1 4 -1 7q0 20 23 30zM455 700h45
q196 0 196 -164q0 -35 -10 -79l-46 -220q-23 -107 -99.5 -172t-188.5 -65h-46q-94 0 -144 47t-50 127q0 30 7 63l47 220q51 243 289 243zM229 457l-46 -220q-6 -25 -6 -48q0 -61 36 -96.5t105 -35.5h46q82 0 138.5 50t73.5 130l47 220q7 34 7 62q0 124 -142 124h-45
q-174 0 -214 -186z" />
    <glyph glyph-name="ohungarumlaut" unicode="&#x151;" horiz-adv-x="498" 
d="M407 644l166 72q7 3 14 3q17 0 21 -16q1 -4 1 -7q0 -20 -28 -31l-158 -68q-9 -3 -18 -3q-16 0 -20 14q-1 3 -1 6q0 20 23 30zM191 644l166 72q7 3 13 3q18 0 22 -16q1 -4 1 -7q0 -20 -28 -31l-159 -68q-9 -3 -17 -3q-16 0 -21 14q-1 3 -1 6q0 20 24 30zM279 -4h-61
q-62 0 -99 36t-37 96q0 20 4 42l33 154q17 79 76 131.5t132 52.5h61q61 0 97.5 -38.5t36.5 -100.5q0 -22 -5 -45l-33 -154q-16 -77 -74.5 -125.5t-130.5 -48.5zM229 48h61q48 0 85.5 34t48.5 85l35 162q3 16 3 32q0 42 -23 69t-62 27h-61q-48 0 -86.5 -37.5t-49.5 -90.5
l-35 -162q-3 -16 -3 -30q0 -40 23.5 -64.5t63.5 -24.5z" />
    <glyph glyph-name="OE" unicode="&#x152;" horiz-adv-x="995" 
d="M724 700h341q13 0 20 -6.5t7 -16.5v-7q-3 -12 -13.5 -20.5t-24.5 -8.5h-328l-53 -248h269q13 0 20.5 -6.5t7.5 -16.5q0 -3 -1 -6q-3 -13 -13.5 -21.5t-24.5 -8.5h-271l-58 -275h326q28 0 28 -23q0 -3 -1 -6q-2 -13 -12.5 -21.5t-24.5 -8.5h-342q-27 0 -27 21l5 71
q-73 -92 -202 -92h-46q-94 0 -144 47t-50 127q0 30 7 63l47 220q51 243 289 243h45q135 0 166 -85l24 64q9 21 34 21zM576 237l47 220q7 34 7 62q0 124 -142 124h-45q-174 0 -214 -186l-46 -220q-6 -25 -6 -48q0 -61 36.5 -96.5t104.5 -35.5h46q82 0 138.5 50t73.5 130z" />
    <glyph glyph-name="oe" unicode="&#x153;" horiz-adv-x="833" 
d="M327 508h61q46 0 78.5 -25t42.5 -67q30 44 77.5 68.5t100.5 24.5q78 0 119 -35.5t41 -101.5q0 -27 -7 -57l-10 -47q-4 -18 -19 -30t-34 -12h-279q-10 -51 -10 -83q0 -48 23 -68.5t76 -20.5h152q25 0 25 -21q0 -3 -1 -6q-3 -12 -12 -19.5t-22 -7.5h-154q-63 0 -95.5 21
t-41.5 64q-26 -41 -69 -65t-90 -24h-61q-62 0 -99 35.5t-37 96.5q0 20 4 42l33 154q17 79 76 131.5t132 52.5zM424 167l35 162q3 16 3 32q0 42 -23 69t-62 27h-61q-47 0 -86 -37.5t-50 -90.5l-34 -162q-4 -16 -4 -30q0 -40 23.5 -64.5t63.5 -24.5h61q48 0 85.5 34t48.5 85z
M772 276l9 44q4 22 4 40q0 95 -110 95q-59 0 -101.5 -36.5t-56.5 -98.5l-10 -44h265z" />
    <glyph glyph-name="Racute" unicode="&#x154;" horiz-adv-x="609" 
d="M394 831l166 72q7 3 14 3q17 0 21 -16q1 -4 1 -7q0 -20 -27 -31l-159 -68q-9 -3 -17 -3q-17 0 -21 14q-1 3 -1 6q0 20 23 30zM290 700h225q66 0 108 -42t42 -104q0 -19 -4 -37q-14 -67 -69.5 -117.5t-122.5 -59.5l-19 -2l96 -294q1 -4 1 -8q0 -3 -1 -6
q-3 -13 -13.5 -21.5t-23.5 -8.5q-20 0 -25 17l-104 316h-154l-64 -303q-3 -13 -13.5 -21.5t-24.5 -8.5q-12 0 -18.5 6.5t-6.5 16.5q0 3 1 7l132 623q5 20 21 33.5t37 13.5zM239 390h210q50 0 95.5 37.5t56.5 89.5q2 13 2 25q0 43 -28.5 72t-72.5 29h-210z" />
    <glyph glyph-name="racute" unicode="&#x155;" horiz-adv-x="348" 
d="M374 519h31q12 0 18.5 -6t6.5 -15v-6q-3 -12 -12.5 -19.5t-22.5 -7.5h-32q-69 0 -111.5 -37.5t-56.5 -105.5l-63 -294q-2 -12 -12.5 -20t-23.5 -8q-24 0 -24 21q0 3 1 7l99 465q5 26 30 26q20 0 20 -18v-8l-8 -41q56 67 160 67zM224 643l166 72q7 3 14 3q17 0 21 -16
q1 -3 1 -7q0 -19 -27 -31l-159 -67q-9 -4 -17 -4q-16 0 -21 14q-1 3 -1 7q0 19 23 29z" />
    <glyph glyph-name="Rcommaaccent" unicode="&#x156;" horiz-adv-x="609" 
d="M290 700h225q66 0 108 -42t42 -104q0 -19 -4 -37q-14 -67 -69.5 -117.5t-122.5 -59.5l-19 -2l96 -294q1 -4 1 -8q0 -3 -1 -6q-3 -13 -13.5 -21.5t-23.5 -8.5q-20 0 -25 17l-104 316h-154l-64 -303q-3 -13 -13.5 -21.5t-24.5 -8.5q-12 0 -18.5 6.5t-6.5 16.5q0 3 1 7
l132 623q5 20 21 33.5t37 13.5zM239 390h210q50 0 95.5 37.5t56.5 89.5q2 13 2 25q0 43 -28.5 72t-72.5 29h-210zM277 -121l13 57q2 11 10.5 18.5t20.5 7.5q9 0 15 -6t6 -15v-5l-14 -63q-5 -25 -26 -43t-44 -24q-11 -1 -17 4t-6 14v2q0 12 16 20q22 12 26 33z" />
    <glyph glyph-name="rcommaaccent" unicode="&#x157;" horiz-adv-x="348" 
d="M374 519h31q12 0 18.5 -6t6.5 -15v-6q-3 -12 -12.5 -19.5t-22.5 -7.5h-32q-69 0 -111.5 -37.5t-56.5 -105.5l-63 -294q-2 -13 -12.5 -20.5t-23.5 -7.5q-24 0 -24 21q0 3 1 7l99 465q5 26 30 26q20 0 20 -18v-8l-8 -41q56 67 160 67zM44 -121l13 57q2 11 10.5 18.5
t20.5 7.5q9 0 15 -6t6 -15v-5l-14 -63q-5 -25 -26 -43t-44 -24q-11 -1 -17 4t-6 14v2q0 12 16 20q22 12 26 33z" />
    <glyph glyph-name="Rcaron" unicode="&#x158;" horiz-adv-x="609" 
d="M429 778l-63 91q-3 5 -3 11q0 14 13 23q9 7 20 7q13 0 20 -10l54 -74q4 -5 9.5 -5t11.5 5l84 74q12 10 25 10q11 0 17 -8q5 -5 5 -12q0 -12 -12 -23l-104 -91q-19 -18 -40 -18q-26 0 -37 20zM290 700h225q66 0 108 -42t42 -104q0 -19 -4 -37q-14 -67 -69.5 -117.5
t-122.5 -59.5l-19 -2l96 -294q1 -4 1 -8q0 -3 -1 -6q-3 -13 -13.5 -21.5t-23.5 -8.5q-20 0 -25 17l-104 316h-154l-64 -303q-3 -13 -13.5 -21.5t-24.5 -8.5q-12 0 -18.5 6.5t-6.5 16.5q0 3 1 7l132 623q5 20 21 33.5t37 13.5zM239 390h210q50 0 95.5 37.5t56.5 89.5
q2 13 2 25q0 43 -28.5 72t-72.5 29h-210z" />
    <glyph glyph-name="rcaron" unicode="&#x159;" horiz-adv-x="348" 
d="M374 519h31q12 0 18.5 -6t6.5 -15v-6q-3 -12 -12.5 -19.5t-22.5 -7.5h-32q-69 0 -111.5 -37.5t-56.5 -105.5l-63 -294q-2 -13 -12.5 -20.5t-23.5 -7.5q-24 0 -24 21q0 3 1 7l99 465q5 26 30 26q20 0 20 -18v-8l-8 -41q56 67 160 67zM258 588l-62 91q-3 4 -3 10
q0 14 13 24q9 7 19 7q14 0 20 -10l54 -74q4 -5 9.5 -5t12.5 5l84 73q11 11 24 11q11 0 18 -8q4 -5 4 -12q0 -12 -11 -23l-104 -91q-19 -18 -40 -18q-26 0 -38 20z" />
    <glyph glyph-name="Sacute" unicode="&#x15a;" horiz-adv-x="531" 
d="M269 0h-192q-11 0 -18 7t-7 16q0 3 1 6q2 11 13 19.5t23 8.5h193q77 0 123.5 36t63.5 116q4 18 4 33q0 40 -30.5 58t-105.5 33q-27 5 -41.5 8.5t-37.5 10t-35.5 13t-28 17t-23.5 23t-13.5 30t-5.5 38.5q0 22 6 50q38 177 259 177h169q12 0 19 -6.5t7 -16.5q0 -3 -1 -6
q-2 -11 -13 -19.5t-23 -8.5h-170q-81 0 -127 -28t-60 -92q-4 -20 -4 -36q0 -20 7.5 -35t18 -24t32 -16.5t39 -11.5t50.5 -10q89 -16 131.5 -44.5t42.5 -89.5q0 -21 -5 -47q-23 -109 -88 -159t-173 -50zM356 835l166 72q8 3 14 3q17 0 22 -16v-7q0 -20 -27 -31l-159 -68
q-9 -3 -17 -3q-16 0 -21 14q-1 3 -1 6q0 20 23 30z" />
    <glyph glyph-name="sacute" unicode="&#x15b;" horiz-adv-x="457" 
d="M323 509h151q12 0 18.5 -6t6.5 -16v-5q-3 -12 -12.5 -20t-21.5 -8h-154q-51 0 -86.5 -20t-44.5 -63q-2 -11 -2 -20q0 -28 24.5 -41.5t81.5 -20.5l34 -6q132 -18 132 -106q0 -14 -3 -31q-17 -80 -74 -113t-148 -33h-140q-10 0 -16.5 6t-6.5 15q0 3 1 6q2 12 12 19.5
t22 7.5h140q130 0 149 91q2 8 2 16q0 27 -23 45t-67 23l-42 5q-68 8 -103.5 32t-35.5 71q0 15 3 32q15 71 71 105.5t132 34.5zM279 644l165 72q8 3 14 3q17 0 22 -16q1 -4 1 -7q0 -20 -28 -31l-159 -68q-9 -3 -17 -3q-16 0 -21 14q-1 3 -1 6q0 20 24 30z" />
    <glyph glyph-name="Scedilla" unicode="&#x15e;" horiz-adv-x="531" 
d="M575 643h-170q-81 0 -127 -28t-60 -92q-4 -20 -4 -36q0 -20 7.5 -35t18 -24t32 -17t39 -11.5t50.5 -9.5q89 -16 131.5 -44.5t42.5 -89.5q0 -21 -5 -47q-23 -107 -86 -157t-168 -52h-12l-8 -36q31 0 44 -9.5t13 -30.5q0 -12 -3 -28q-9 -40 -32 -57.5t-64 -17.5h-33
q-16 0 -16 14q0 2 1 4q4 19 21 19h33q20 0 27.5 9t12.5 29q2 10 2 16q0 19 -26 19q-22 1 -22 22q0 5 1 10l8 37h-146q-11 0 -18 7t-7 16q0 3 1 6q2 11 13 19.5t23 8.5h193q77 0 123.5 36t63.5 116q4 18 4 33q0 40 -30.5 58t-105.5 33q-27 5 -41.5 8.5t-37.5 10t-35.5 13
t-28 17t-23.5 23t-13.5 30t-5.5 38.5q0 22 6 50q38 177 259 177h169q12 0 19 -6.5t7 -16.5q0 -3 -1 -6q-2 -11 -13 -19.5t-23 -8.5z" />
    <glyph glyph-name="scedilla" unicode="&#x15f;" horiz-adv-x="457" 
d="M284 289l34 -6q132 -18 132 -106q0 -15 -3 -31q-17 -78 -71.5 -111t-142.5 -35h-7l-7 -36q30 0 43.5 -9t13.5 -31q0 -12 -3 -28q-9 -40 -32 -57.5t-65 -17.5h-32q-16 0 -16 14v4q4 19 22 19h33q20 0 27.5 9t11.5 29q3 10 3 16q0 19 -26 19q-23 1 -23 22q0 5 2 10l7 37
h-100q-10 0 -16.5 6t-6.5 15q0 3 1 6q2 11 12 19t22 8h140q130 0 149 91q2 8 2 16q0 27 -23 45t-67 23l-42 5q-68 8 -103.5 32t-35.5 71q0 15 3 32q15 71 71 105.5t132 34.5h151q12 0 18.5 -6t6.5 -16v-5q-3 -12 -12.5 -20t-21.5 -8h-154q-51 0 -86.5 -20t-44.5 -63
q-2 -11 -2 -20q0 -28 24.5 -41.5t81.5 -20.5z" />
    <glyph glyph-name="Scaron" unicode="&#x160;" horiz-adv-x="531" 
d="M390 779l-62 91q-3 4 -3 10q0 14 13 24q9 7 19 7q14 0 20 -10l54 -74q4 -5 9.5 -5t11.5 5l85 73q11 11 24 11q11 0 18 -8q4 -5 4 -12q0 -12 -11 -23l-104 -91q-19 -18 -40 -18q-26 0 -38 20zM269 0h-192q-11 0 -18 7t-7 16q0 3 1 6q2 11 13 19.5t23 8.5h193q78 0 124 36
t63 116q4 18 4 33q0 40 -30.5 58t-105.5 33q-27 5 -41.5 8.5t-37.5 10t-35.5 13t-28 17t-23.5 23t-13.5 30t-5.5 38.5q0 22 6 50q38 177 259 177h169q12 0 19 -6.5t7 -16.5q0 -3 -1 -6q-2 -11 -13 -19.5t-23 -8.5h-170q-81 0 -127 -28t-60 -92q-4 -20 -4 -36q0 -20 7.5 -35
t18 -24t32.5 -16.5t39 -11.5t50 -10q89 -16 131.5 -44.5t42.5 -89.5q0 -21 -5 -47q-23 -109 -88 -159t-173 -50z" />
    <glyph glyph-name="scaron" unicode="&#x161;" horiz-adv-x="457" 
d="M323 509h151q12 0 18.5 -6t6.5 -16v-5q-3 -12 -12.5 -20t-21.5 -8h-154q-51 0 -86.5 -20t-44.5 -63q-2 -11 -2 -20q0 -28 24.5 -41.5t81.5 -20.5l34 -6q132 -18 132 -106q0 -15 -3 -31q-17 -80 -74 -113t-148 -33h-140q-10 0 -16.5 6t-6.5 15q0 3 1 6q2 11 12 19t22 8
h140q130 0 149 91q2 8 2 16q0 27 -23 45t-67 23l-42 5q-68 8 -103.5 32t-35.5 71q0 15 3 32q15 71 71 105.5t132 34.5zM312 588l-62 91q-3 4 -3 10q0 14 13 24q9 7 19 7q14 0 20 -10l54 -74q4 -5 10 -5t12 5l84 73q11 11 24 11q11 0 18 -8q4 -5 4 -12q0 -12 -11 -23
l-104 -91q-19 -18 -40 -18q-26 0 -38 20z" />
    <glyph glyph-name="Tcedilla" unicode="&#x162;" horiz-adv-x="583" 
d="M216 700h448q12 0 19 -7t7 -16v-6q-3 -11 -13.5 -19.5t-22.5 -8.5h-194l-142 -672q30 0 43 -9t13 -30q0 -12 -3 -28q-9 -41 -31.5 -58t-64.5 -17h-33q-16 0 -16 13q0 2 1 5q1 8 7 13t14 5h33q19 0 27 9t12 29q4 15 4 19q0 12 -23 12q-23 1 -23 20v6l3 13q-18 5 -18 26v7
l136 636h-195q-11 0 -18 7t-7 17v5q3 11 14 20t23 9z" />
    <glyph glyph-name="tcedilla" unicode="&#x163;" horiz-adv-x="362" 
d="M269 47h37q11 0 17.5 -6.5t6.5 -16.5q0 -3 -1 -6q-2 -12 -12 -20t-23 -8h-37q-25 0 -47 5l-6 -31q30 0 43.5 -9t13.5 -31q0 -12 -3 -28q-9 -40 -32 -57.5t-65 -17.5h-32q-16 0 -16 14v4q4 19 22 19h33q19 0 27 9t12 29q3 10 3 16q0 19 -26 19q-23 1 -23 22q0 5 1 10
l11 47q-41 26 -41 88q0 26 7 59l63 296h-53q-11 0 -17.5 5.5t-6.5 15.5v6q3 13 13 21t23 8h53l18 84q3 12 13 20.5t23 8.5q11 0 18 -6.5t7 -16.5q0 -3 -1 -6l-18 -84h128q13 0 19.5 -6t6.5 -16v-7q-3 -12 -12.5 -19.5t-23.5 -7.5h-130l-63 -296q-6 -27 -6 -47
q0 -32 18 -47.5t58 -15.5z" />
    <glyph glyph-name="Tcaron" unicode="&#x164;" horiz-adv-x="583" 
d="M216 700h448q12 0 19 -7t7 -16v-6q-3 -11 -13.5 -19.5t-23.5 -8.5h-193l-130 -614q-3 -11 -14 -20t-23 -9q-11 0 -18 7t-7 16v6l131 613h-195q-11 0 -18 7t-7 17v5q3 11 14 20t23 9zM416 778l-62 91q-3 5 -3 11q0 14 13 23q9 7 19 7q14 0 20 -10l54 -74q4 -5 9.5 -5
t11.5 5l85 74q11 10 24 10q11 0 18 -8q4 -5 4 -12q0 -12 -12 -23l-104 -91q-19 -18 -40 -18q-25 0 -37 20z" />
    <glyph glyph-name="tcaron" unicode="&#x165;" horiz-adv-x="388" 
d="M214 509l18 84q3 12 13 20.5t23 8.5q11 0 18 -6.5t7 -16.5q0 -3 -1 -6l-18 -84h128q13 0 19.5 -6t6.5 -16v-7q-3 -12 -12.5 -19.5t-23.5 -7.5h-130l-63 -296q-6 -28 -6 -47q0 -32 18 -47.5t58 -15.5h37q11 0 17.5 -6.5t6.5 -16.5q0 -3 -1 -6q-2 -12 -12 -20t-23 -8h-37
q-125 0 -125 107q0 27 7 60l63 296h-53q-11 0 -17.5 5.5t-6.5 15.5v6q3 13 13 21t23 8h53zM419 635l13 60q3 13 13.5 22t23.5 9q11 0 18.5 -7.5t7.5 -17.5q0 -3 -1 -6l-14 -68q-6 -28 -30 -48t-50 -27q-12 -1 -19.5 5t-7.5 17v3q1 15 19 23q22 12 27 35z" />
    <glyph glyph-name="Tbar" unicode="&#x166;" horiz-adv-x="583" 
d="M216 700h448q12 0 19 -7t7 -16v-6q-3 -11 -13.5 -20t-22.5 -8h-194l-130 -614q-2 -11 -13.5 -20t-23.5 -9q-11 0 -18 7t-7 16v6l131 613h-195q-11 0 -18 7t-7 17v5q3 11 14 20t23 9zM375 927h229q22 0 22 -21q0 -4 -1 -8q-2 -13 -11.5 -21t-21.5 -8h-230q-10 0 -16 6
t-6 16v7q3 13 13 21t22 8z" />
    <glyph glyph-name="tbar" unicode="&#x167;" horiz-adv-x="362" 
d="M214 509l18 84q3 12 13 20.5t23 8.5q11 0 18 -6.5t7 -16.5q0 -3 -1 -6l-18 -84h128q13 0 19.5 -6t6.5 -16v-7q-3 -12 -12.5 -19.5t-23.5 -7.5h-130l-63 -296q-6 -28 -6 -47q0 -32 18 -47.5t58 -15.5h37q11 0 17.5 -6.5t6.5 -16.5q0 -3 -1 -6q-2 -12 -12 -20t-23 -8h-37
q-125 0 -125 107q0 27 7 60l63 296h-53q-11 0 -17.5 5.5t-6.5 15.5v6q3 13 13 21t23 8h53zM214 736h230q22 0 22 -21q0 -4 -1 -8q-2 -13 -11.5 -21t-21.5 -8h-230q-10 0 -16 6t-6 16v7q3 13 12.5 21t21.5 8z" />
    <glyph glyph-name="Utilde" unicode="&#x168;" horiz-adv-x="660" 
d="M136 206l99 465q2 11 13.5 20t23.5 9q11 0 18 -7t7 -17q0 -2 -1 -5l-98 -465q-5 -21 -5 -41q0 -51 28 -80t70 -29h121q55 0 94.5 41t54.5 109l98 463q3 13 14 22t23 9q11 0 18.5 -7t7.5 -17q0 -3 -1 -5l-98 -465q-20 -93 -80.5 -150.5t-143.5 -57.5h-121q-65 0 -107 39.5
t-42 111.5q0 27 7 57zM458 884q17 1 30.5 -3.5t20 -9.5t15.5 -14q1 -1 2 -3q9 -8 14 -12.5t14.5 -8t20.5 -2.5q16 1 52 28q8 6 17 6q13 0 19 -9q4 -4 4 -11q0 -14 -11 -24q-56 -44 -91 -46q-17 -1 -31.5 4.5t-20 10t-18.5 17.5q-24 23 -42 23h-7q-23 -4 -59 -30
q-9 -6 -18 -6q-11 0 -18 8q-4 6 -4 13q0 14 15 26q56 41 96 43z" />
    <glyph glyph-name="utilde" unicode="&#x169;" horiz-adv-x="499" 
d="M392 54l91 424q2 12 12.5 21.5t23.5 9.5q11 0 17.5 -7t6.5 -17v-5l-93 -436q-4 -18 -19 -31t-36 -13h-177q-56 0 -92.5 33.5t-36.5 91.5q0 20 5 42l66 313q3 11 13.5 20t23.5 9q11 0 17.5 -7t6.5 -17q0 -2 -1 -5l-66 -313q-3 -14 -3 -28q0 -38 22 -61.5t56 -23.5h163z
M338 697q17 1 30.5 -3.5t19.5 -9.5t16 -14q0 -1 2 -3q9 -8 14 -12.5t14.5 -8t20.5 -2.5q16 1 52 28q8 6 17 6q13 0 19 -9q4 -4 4 -11q0 -14 -12 -24q-55 -44 -90 -46q-17 -1 -31.5 4.5t-20 10t-18.5 17.5q-24 23 -42 23h-7q-23 -4 -59 -30q-9 -6 -18 -6q-11 0 -18 8
q-5 6 -5 13q0 14 16 26q56 41 96 43z" />
    <glyph glyph-name="Umacron" unicode="&#x16a;" horiz-adv-x="660" 
d="M136 206l99 465q2 11 13.5 20t23.5 9q11 0 18 -7t7 -17q0 -2 -1 -5l-98 -465q-5 -21 -5 -41q0 -51 28 -80t70 -29h121q55 0 94.5 41t54.5 109l98 463q3 13 14 22t23 9q11 0 18.5 -7t7.5 -17v-5l-99 -465q-20 -93 -80.5 -150.5t-143.5 -57.5h-121q-65 0 -107 39.5
t-42 111.5q0 27 7 57zM428 927h203q21 0 21 -21v-8q-3 -13 -12.5 -21t-21.5 -8h-202q-11 0 -17 6t-6 16q0 3 1 7q3 13 12.5 21t21.5 8z" />
    <glyph glyph-name="umacron" unicode="&#x16b;" horiz-adv-x="499" 
d="M392 54l91 424q2 12 12.5 21.5t23.5 9.5q11 0 17.5 -7t6.5 -17v-5l-93 -436q-4 -18 -19 -31t-36 -13h-177q-56 0 -92.5 33.5t-36.5 91.5q0 20 5 42l66 313q3 11 13.5 20t23.5 9q11 0 17.5 -7t6.5 -17q0 -2 -1 -5l-66 -313q-3 -14 -3 -28q0 -38 22 -61.5t56 -23.5h163z
M308 740h202q22 0 22 -21q0 -4 -1 -8q-2 -13 -11.5 -21t-21.5 -8h-202q-11 0 -17 6t-6 16q0 3 1 7q3 13 12.5 21t21.5 8z" />
    <glyph glyph-name="Uring" unicode="&#x16e;" horiz-adv-x="660" 
d="M527 924q35 0 58.5 -23t23.5 -57q0 -10 -2 -20q-9 -40 -45 -69.5t-78 -29.5q-36 0 -59 22.5t-23 56.5q0 10 2 20q9 41 45 70.5t78 29.5zM517 878q-21 0 -39.5 -16t-23.5 -38q-1 -6 -1 -11q0 -19 11.5 -30.5t29.5 -11.5q22 0 40.5 15.5t23.5 37.5q1 6 1 11q0 19 -12 31
t-30 12zM136 206l99 465q2 11 13.5 20t23.5 9q11 0 18 -7t7 -17q0 -2 -1 -5l-98 -465q-5 -21 -5 -41q0 -51 28 -80t70 -29h121q55 0 94.5 41t54.5 109l98 463q3 13 14 22t23 9q11 0 18.5 -7t7.5 -17q0 -3 -1 -5l-98 -465q-20 -93 -80.5 -150.5t-143.5 -57.5h-121
q-65 0 -107 39.5t-42 111.5q0 27 7 57z" />
    <glyph glyph-name="uring" unicode="&#x16f;" horiz-adv-x="499" 
d="M392 54l91 424q2 12 12.5 21.5t23.5 9.5q11 0 17.5 -7t6.5 -17v-5l-93 -436q-4 -18 -19 -31t-36 -13h-177q-56 0 -92.5 33.5t-36.5 91.5q0 20 5 42l66 313q3 11 13.5 20t23.5 9q11 0 17.5 -7t6.5 -17q0 -2 -1 -5l-66 -313q-3 -14 -3 -28q0 -38 22 -61.5t56 -23.5h163z
M406 737q36 0 59.5 -23t23.5 -57q0 -10 -2 -20q-9 -40 -45 -69.5t-78 -29.5q-36 0 -59 22.5t-23 56.5q0 10 2 20q9 41 45 70.5t77 29.5zM397 691q-21 0 -39.5 -16t-23.5 -38q-1 -6 -1 -11q0 -19 11.5 -30.5t29.5 -11.5q22 0 40.5 15.5t22.5 37.5q2 6 2 11q0 19 -12 31
t-30 12z" />
    <glyph glyph-name="Uhungarumlaut" unicode="&#x170;" horiz-adv-x="660" 
d="M312 831l166 72q7 3 14 3q17 0 21 -16q1 -4 1 -7q0 -20 -28 -31l-159 -68q-9 -3 -17 -3q-16 0 -20 14q-2 3 -2 6q0 20 24 30zM528 831l166 72q7 3 14 3q17 0 21 -16q1 -4 1 -7q0 -20 -28 -31l-158 -68q-9 -3 -17 -3q-17 0 -21 14q-1 3 -1 6q0 20 23 30zM136 206l99 465
q2 11 13.5 20t23.5 9q11 0 18 -7t7 -17q0 -2 -1 -5l-98 -465q-5 -21 -5 -41q0 -51 28 -80t70 -29h121q55 0 94.5 41t54.5 109l98 463q3 13 14 22t23 9q11 0 18.5 -7t7.5 -17q0 -2 -1 -5l-98 -465q-20 -93 -80.5 -150.5t-143.5 -57.5h-121q-65 0 -107 39.5t-42 111.5
q0 27 7 57z" />
    <glyph glyph-name="uhungarumlaut" unicode="&#x171;" horiz-adv-x="499" 
d="M392 54l91 424q2 12 12.5 21.5t23.5 9.5q11 0 17.5 -7t6.5 -17v-5l-93 -436q-4 -18 -19 -31t-36 -13h-177q-56 0 -92.5 33.5t-36.5 91.5q0 20 5 42l66 313q3 11 13.5 20t23.5 9q11 0 17.5 -7t6.5 -16q0 -3 -1 -6l-66 -313q-3 -14 -3 -28q0 -38 22 -61.5t56 -23.5h163z
M408 644l166 72q7 3 14 3q17 0 21 -16q1 -4 1 -7q0 -20 -28 -31l-158 -68q-9 -3 -18 -3q-16 0 -20 14q-1 3 -1 6q0 20 23 30zM192 644l166 72q7 3 13 3q18 0 22 -16q1 -4 1 -7q0 -20 -28 -31l-159 -68q-9 -3 -17 -3q-16 0 -21 14q-1 3 -1 6q0 20 24 30z" />
    <glyph glyph-name="Uogonek" unicode="&#x172;" horiz-adv-x="660" 
d="M561 206l98 463q3 13 14 22t23 9q11 0 18.5 -7t7.5 -17v-5l-99 -465q-20 -93 -80.5 -150.5t-143.5 -57.5h-8q-46 -51 -45 -87q1 -9 7.5 -15.5t16.5 -6.5q16 0 30 16q9 12 18 12q2 0 4 -1q13 -1 13 -12q0 -3 -2 -7q-13 -21 -32.5 -32.5t-39.5 -11.5q-22 0 -36.5 12.5
t-14.5 34.5v9q5 43 55 89h-87q-65 0 -107 39.5t-42 111.5q0 27 7 57l99 465q2 11 13.5 20t23.5 9q11 0 18 -7t7 -17q0 -2 -1 -5l-98 -465q-5 -21 -5 -41q0 -51 28 -80t70 -29h121q55 0 94.5 41t54.5 109z" />
    <glyph glyph-name="uogonek" unicode="&#x173;" horiz-adv-x="499" 
d="M392 54l91 424q2 12 12.5 21.5t23.5 9.5q11 0 17.5 -7t6.5 -17v-5l-93 -436q-4 -18 -19 -31t-36 -13h-40q-44 -50 -43 -85q1 -9 7.5 -15.5t16.5 -6.5q16 0 30 16q9 12 18 12q2 0 4 -1q13 -1 13 -12q0 -3 -2 -7q-13 -21 -32.5 -32.5t-39.5 -11.5q-22 0 -36.5 12.5
t-14.5 34.5v9q6 43 53 87h-111q-56 0 -92.5 33.5t-36.5 91.5q0 20 5 42l66 313q3 11 13.5 20t23.5 9q11 0 17.5 -7t6.5 -17q0 -2 -1 -5l-66 -313q-3 -14 -3 -28q0 -38 22 -61.5t56 -23.5h163z" />
    <glyph glyph-name="Wcircumflex" unicode="&#x174;" horiz-adv-x="750" 
d="M132 62l47 605q1 15 13 24t25 9t20 -7.5t6 -18.5l-48 -596q-1 -3 -1 -5q0 -14 9 -15t20 16l201 319q14 22 40 22q25 0 30 -20l65 -321q2 -8 5 -12t8 -4q11 1 17 20l207 598q3 10 13.5 17t22.5 7q11 0 18.5 -6t7.5 -17q0 -5 -2 -10l-211 -605q-10 -28 -33.5 -45t-51.5 -17
q-24 0 -40.5 12.5t-20.5 32.5l-55 275l-174 -276q-12 -19 -33.5 -31.5t-45.5 -12.5q-27 0 -43 15.5t-16 40.5v6zM545 847l-85 -74q-11 -10 -24 -10q-11 0 -17 7q-5 5 -5 13q0 12 9 21l102 91q20 20 45 20q21 0 33 -18l65 -91q4 -7 4 -14q0 -12 -11 -21q-10 -8 -22 -8
q-13 0 -19 10l-54 74q-3 5 -9 5t-12 -5z" />
    <glyph glyph-name="wcircumflex" unicode="&#x175;" horiz-adv-x="731" 
d="M495 656l-86 -74q-10 -10 -23 -10q-11 0 -17 7q-5 5 -5 13q0 12 9 21l102 91q19 20 45 20q21 0 32 -18l66 -91q4 -7 4 -14q0 -12 -12 -21q-10 -8 -21 -8q-13 0 -20 10l-53 74q-4 5 -9.5 5t-11.5 -5zM565 74l187 407q14 29 37 28q22 -1 22 -22q0 -8 -5 -18l-188 -412
q-12 -25 -37 -41t-54 -16q-28 0 -45 15.5t-19 40.5l-19 315l-154 -315q-12 -25 -36.5 -40.5t-53.5 -15.5q-28 0 -45.5 16t-18.5 41l-11 419q0 14 11 23.5t25 9.5q11 0 17 -6.5t6 -15.5l13 -413q1 -18 16.5 -18t24.5 18l190 391q12 23 40.5 23t29.5 -23l25 -391
q2 -18 17.5 -18t24.5 18z" />
    <glyph glyph-name="Ycircumflex" unicode="&#x176;" horiz-adv-x="547" 
d="M358 389l240 295q12 15 29 15h4q23 -2 23 -23q0 -11 -8 -20l-272 -337l-61 -289q-3 -13 -13.5 -21.5t-24.5 -8.5q-11 0 -18 6.5t-7 16.5v7l62 289l-132 335q-2 4 -2 9q0 13 10 23.5t25 12.5h6q16 0 21 -14zM444 847l-86 -74q-11 -10 -24 -10q-11 0 -17 7q-5 5 -5 13
q0 12 10 21l101 91q20 20 46 20q21 0 32 -18l65 -91q4 -7 4 -14q0 -12 -11 -21q-10 -8 -21 -8q-13 0 -20 10l-53 74q-4 5 -9.5 5t-11.5 -5z" />
    <glyph glyph-name="ycircumflex" unicode="&#x177;" horiz-adv-x="440" 
d="M239 63l223 423q13 24 37 23q22 -1 22 -20q0 -8 -4 -16l-357 -677q-11 -20 -33 -19q-11 1 -17 7t-6 15q0 6 3 12l102 193l-12 2q-27 7 -30 34l-42 433v2q0 12 9.5 22t23.5 11q12 2 19 -4.5t8 -16.5l41 -423q1 -8 5 -8t8 7zM350 657l-86 -74q-10 -9 -23 -9q-11 0 -17 7
q-5 5 -5 13q0 12 9 20l102 92q19 19 45 19q21 0 32 -18l66 -91q4 -6 4 -13q0 -12 -12 -21q-10 -8 -21 -8q-13 0 -20 10l-53 73q-4 6 -9.5 6t-11.5 -6z" />
    <glyph glyph-name="Ydieresis" unicode="&#x178;" horiz-adv-x="547" 
d="M358 389l240 295q12 15 29 15h4q23 -2 23 -23q0 -11 -8 -20l-272 -337l-61 -289q-3 -13 -13.5 -21.5t-24.5 -8.5q-11 0 -18 6.5t-7 16.5v7l62 289l-132 335q-2 4 -2 9q0 13 10 23.5t25 12.5h6q16 0 21 -14zM350 848l5 28q3 12 12.5 20t22.5 8q11 0 17.5 -6t6.5 -16
q0 -3 -1 -6l-6 -28q-2 -11 -12 -19t-23 -8q-23 0 -23 21q0 3 1 6zM502 848l6 28q2 12 11.5 20t22.5 8q11 0 17.5 -6t6.5 -16q0 -3 -1 -6l-6 -28q-2 -11 -12 -19t-23 -8q-23 0 -23 21q0 3 1 6z" />
    <glyph glyph-name="Zacute" unicode="&#x179;" horiz-adv-x="544" 
d="M225 700h352q26 0 41.5 -15t15.5 -39q0 -7 -2 -14q-4 -22 -25 -43l-472 -503q-12 -14 -12 -20q0 -8 19 -8h335q13 0 20.5 -6.5t7.5 -16.5q0 -3 -1 -6q-2 -13 -13 -21t-24 -8h-351q-25 0 -40.5 15t-15.5 38q0 8 1 15q5 23 20 38l476 508q13 14 13 20q0 8 -19 8h-338
q-11 0 -17.5 7t-6.5 17v5q3 11 13.5 20t22.5 9zM363 835l166 72q7 3 14 3q17 0 21 -16q1 -4 1 -7q0 -20 -28 -31l-158 -68q-9 -3 -17 -3q-17 0 -21 14q-1 3 -1 6q0 20 23 30z" />
    <glyph glyph-name="zacute" unicode="&#x17a;" horiz-adv-x="457" 
d="M279 644l166 71q7 3 14 3q17 0 21 -16q1 -3 1 -6q0 -20 -28 -32l-158 -67q-9 -4 -17 -4q-17 0 -21 14q-1 4 -1 7q0 20 23 30zM199 509h286q15 0 24 -7.5t9 -18.5q0 -4 -1 -7q-3 -14 -16 -28l-369 -393h262q26 0 26 -21q0 -3 -1 -7q-2 -12 -11.5 -19.5t-22.5 -7.5h-305
q-15 0 -23.5 7t-8.5 19q0 3 1 7q3 16 15 28l373 393h-250q-11 0 -17 6t-6 15q0 3 1 6q2 12 11.5 20t22.5 8z" />
    <glyph glyph-name="Zdotaccent" unicode="&#x17b;" horiz-adv-x="544" 
d="M225 700h352q26 0 41.5 -15t15.5 -39q0 -7 -2 -14q-4 -22 -25 -43l-472 -503q-12 -14 -12 -20q0 -8 19 -8h335q13 0 20.5 -6.5t7.5 -16.5q0 -3 -1 -6q-2 -13 -13 -21t-24 -8h-351q-25 0 -40.5 15t-15.5 38q0 8 1 15q5 23 20 38l476 508q13 14 13 20q0 8 -19 8h-338
q-11 0 -17.5 7t-6.5 17v5q3 11 13.5 20t22.5 9zM425 853l6 27q2 12 11.5 20t22.5 8q11 0 17.5 -6t6.5 -16v-6l-6 -27q-3 -12 -12.5 -20t-22.5 -8q-25 0 -24 22q0 3 1 6z" />
    <glyph glyph-name="zdotaccent" unicode="&#x17c;" horiz-adv-x="457" 
d="M199 509h286q15 0 24 -7.5t9 -18.5q0 -4 -1 -7q-3 -14 -16 -28l-369 -393h262q26 0 26 -21q0 -3 -1 -7q-2 -12 -11.5 -19.5t-22.5 -7.5h-305q-15 0 -23.5 7t-8.5 19q0 3 1 7q3 16 15 28l373 393h-250q-11 0 -17 6t-6 15q0 3 1 6q2 12 11.5 20t22.5 8zM341 661l6 28
q2 12 11.5 20t22.5 8q11 0 17.5 -6t6.5 -16v-6l-6 -28q-3 -11 -12.5 -19t-22.5 -8q-24 0 -24 21q0 3 1 6z" />
    <glyph glyph-name="Zcaron" unicode="&#x17d;" horiz-adv-x="544" 
d="M225 700h352q26 0 41.5 -15t15.5 -39q0 -7 -2 -14q-4 -22 -25 -43l-472 -503q-12 -14 -12 -20q0 -8 19 -8h335q13 0 20.5 -6.5t7.5 -16.5q0 -3 -1 -6q-2 -13 -13 -21t-24 -8h-351q-25 0 -40.5 15t-15.5 38q0 8 1 15q5 23 20 38l476 508q13 14 13 20q0 8 -19 8h-338
q-11 0 -17.5 7t-6.5 17v5q3 11 13.5 20t22.5 9zM397 779l-63 91q-3 4 -3 10q0 14 13 24q9 7 20 7q13 0 20 -10l54 -74q4 -5 9.5 -5t11.5 5l84 73q12 11 25 11q11 0 18 -8q4 -5 4 -12q0 -12 -12 -23l-104 -91q-19 -18 -40 -18q-25 0 -37 20z" />
    <glyph glyph-name="zcaron" unicode="&#x17e;" horiz-adv-x="457" 
d="M313 587l-63 92q-3 4 -3 10q0 14 13 24q9 6 20 6q13 0 20 -9l54 -74q4 -6 9.5 -6t11.5 6l84 73q12 10 25 10q11 0 18 -8q4 -5 4 -12q0 -11 -12 -22l-104 -91q-19 -18 -40 -18q-25 0 -37 19zM199 509h286q15 0 24 -7.5t9 -18.5q0 -4 -1 -7q-3 -14 -16 -28l-369 -393h262
q26 0 26 -21q0 -3 -1 -7q-2 -12 -11.5 -19.5t-22.5 -7.5h-305q-15 0 -23.5 7t-8.5 19q0 3 1 7q3 16 15 28l373 393h-250q-11 0 -17 6t-6 15q0 3 1 6q2 12 11.5 20t22.5 8z" />
    <glyph glyph-name="florin" unicode="&#x192;" horiz-adv-x="458" 
d="M264 501h48q27 93 82 140t139 61q13 2 20.5 -4t7.5 -17q0 -3 -1 -6q-4 -22 -27 -26q-65 -10 -103.5 -47t-57.5 -101h124q11 0 17 -5.5t6 -15.5v-6q-3 -11 -12.5 -18.5t-21.5 -7.5h-125l-88 -418q-19 -87 -83.5 -136.5t-152.5 -49.5q-11 0 -17 6t-6 15v6q3 11 12.5 18.5
t21.5 7.5q67 0 110 38t58 109l86 404h-49q-10 0 -16.5 5.5t-6.5 15.5q0 2 1 5q2 12 11.5 19.5t22.5 7.5z" />
    <glyph glyph-name="Acaron" unicode="&#x1cd;" horiz-adv-x="605" 
d="M426 775l-62 91q-3 5 -3 10q0 14 13 24q9 7 20 7q13 0 19 -10l54 -74q4 -5 10 -5t12 5l84 73q11 11 24 11q12 0 18 -8q5 -5 5 -12q0 -12 -12 -23l-104 -91q-19 -18 -40 -18q-26 0 -38 20zM46 38l310 602q14 27 40.5 43.5t55.5 16.5t48 -16.5t22 -43.5l54 -605
q1 -12 -9.5 -22.5t-26.5 -11.5q-11 -2 -18.5 4.5t-8.5 16.5l-19 185h-294l-97 -184q-5 -11 -15.5 -17.5t-21.5 -5.5q-24 1 -24 22q0 8 4 16zM489 265l-32 360q-1 17 -17 17t-25 -17l-186 -360h260z" />
    <glyph glyph-name="acaron" unicode="&#x1ce;" horiz-adv-x="472" 
d="M320 587l-62 91q-3 5 -3 11q0 14 13 23q9 7 19 7q14 0 20 -10l54 -74q4 -5 9.5 -5t11.5 5l85 74q11 10 24 10q11 0 18 -8q4 -5 4 -12q0 -12 -11 -23l-105 -91q-19 -18 -39 -18q-26 0 -38 20zM369 455h-175q-25 0 -25 21q0 3 1 6q2 11 11.5 19t22.5 8h180q51 0 81 -31
t30 -80q0 -17 -4 -35l-68 -321q-4 -18 -19 -30t-34 -12h-185q-52 0 -85.5 32.5t-33.5 81.5q0 15 3 30q13 60 65 102.5t113 42.5h169l15 70q2 14 2 26q0 32 -17 51t-47 19zM197 56h169l38 178h-169q-35 0 -67 -27t-40 -63q-2 -9 -2 -18q0 -30 20 -50t51 -20z" />
    <glyph glyph-name="Icaron" unicode="&#x1cf;" horiz-adv-x="248" 
d="M249 779l-62 91q-4 5 -4 11q0 14 13 23q9 7 20 7q13 0 20 -10l54 -74q4 -5 9.5 -5t11.5 5l84 73q12 11 25 11q11 0 18 -8q4 -5 4 -12q0 -12 -12 -23l-104 -91q-19 -18 -40 -18q-25 0 -37 20zM100 30l136 640q3 13 13.5 21.5t23.5 8.5q12 0 19 -6.5t7 -17.5q0 -4 -1 -8
l-135 -636q-3 -14 -14 -23t-24 -9q-12 0 -19 6.5t-7 16.5q0 3 1 7z" />
    <glyph glyph-name="icaron" unicode="&#x1d0;" horiz-adv-x="200" 
d="M184 584l-63 91q-3 4 -3 10q0 14 14 24q8 7 19 7q13 0 20 -10l54 -74q4 -5 9.5 -5t11.5 5l84 73q12 11 25 11q11 0 17 -8q5 -5 5 -12q0 -12 -12 -23l-104 -91q-19 -18 -40 -18q-26 0 -37 20zM81 28l96 452q3 13 12.5 21t22.5 8q12 0 18.5 -6t6.5 -16q0 -4 -1 -7l-96 -452
q-2 -13 -12 -20.5t-24 -7.5q-24 0 -24 21q0 3 1 7z" />
    <glyph glyph-name="Ocaron" unicode="&#x1d1;" 
d="M453 778l-63 92q-3 4 -3 10q0 14 13 24q9 6 20 6q13 0 20 -9l54 -74q3 -6 9 -6t12 6l84 73q11 10 24 10q12 0 18 -8q5 -5 5 -12q0 -11 -12 -22l-104 -91q-19 -18 -40 -18q-26 0 -37 19zM455 700h45q196 0 196 -164q0 -35 -10 -79l-47 -220q-22 -107 -99 -172t-188 -65
h-46q-94 0 -144 47t-50 127q0 30 7 63l47 220q51 243 289 243zM229 457l-46 -220q-6 -25 -6 -48q0 -61 36 -96.5t105 -35.5h46q82 0 138.5 50t73.5 130l47 220q7 34 7 62q0 124 -142 124h-45q-174 0 -214 -186z" />
    <glyph glyph-name="ocaron" unicode="&#x1d2;" horiz-adv-x="498" 
d="M333 588l-63 91q-3 4 -3 10q0 14 13 24q9 7 20 7q13 0 20 -10l54 -74q3 -5 9 -5t12 5l84 73q11 11 24 11q12 0 18 -8q5 -5 5 -12q0 -12 -12 -23l-104 -91q-19 -18 -40 -18q-26 0 -37 20zM279 -4h-61q-62 0 -99 36t-37 96q0 20 4 42l33 154q17 79 76 131.5t132 52.5h61
q61 0 97.5 -38.5t36.5 -100.5q0 -22 -5 -45l-33 -154q-16 -77 -74.5 -125.5t-130.5 -48.5zM229 48h61q48 0 85.5 34t48.5 85l35 162q3 16 3 32q0 42 -23 69t-62 27h-61q-48 0 -86.5 -37.5t-49.5 -90.5l-35 -162q-3 -16 -3 -30q0 -40 23.5 -64.5t63.5 -24.5z" />
    <glyph glyph-name="Ucaron" unicode="&#x1d3;" horiz-adv-x="660" 
d="M454 775l-63 91q-3 5 -3 10q0 14 13 24q9 7 20 7q13 0 20 -10l54 -74q4 -5 9.5 -5t11.5 5l84 73q12 11 25 11q11 0 17 -8q5 -5 5 -12q0 -12 -12 -23l-104 -91q-19 -18 -40 -18q-26 0 -37 20zM136 206l99 465q2 11 13.5 20t23.5 9q11 0 18 -7t7 -17q0 -2 -1 -5l-98 -465
q-5 -21 -5 -41q0 -51 28 -80t70 -29h121q55 0 94.5 41t54.5 109l98 463q3 13 14 22t23 9q11 0 18.5 -7t7.5 -17q0 -3 -1 -5l-98 -465q-20 -93 -80.5 -150.5t-143.5 -57.5h-121q-65 0 -107 39.5t-42 111.5q0 27 7 57z" />
    <glyph glyph-name="ucaron" unicode="&#x1d4;" horiz-adv-x="499" 
d="M392 54l91 424q2 12 12.5 21.5t23.5 9.5q11 0 17.5 -7t6.5 -17v-5l-93 -436q-4 -18 -19 -31t-36 -13h-177q-56 0 -92.5 33.5t-36.5 91.5q0 20 5 42l66 313q3 11 13.5 20t23.5 9q11 0 17.5 -7t6.5 -17q0 -2 -1 -5l-66 -313q-3 -14 -3 -28q0 -38 22 -61.5t56 -23.5h163z
M334 588l-63 91q-3 4 -3 10q0 14 13 24q9 7 20 7q13 0 20 -10l54 -74q3 -5 9 -5t12 5l84 73q11 11 24 11q12 0 18 -8q5 -5 5 -12q0 -12 -12 -23l-104 -91q-19 -18 -40 -18q-26 0 -37 20z" />
    <glyph glyph-name="Udieresismacron" unicode="&#x1d5;" horiz-adv-x="660" 
d="M136 206l99 465q2 11 13.5 20t23.5 9q11 0 18 -7t7 -17q0 -2 -1 -5l-98 -465q-5 -21 -5 -41q0 -51 28 -80t70 -29h121q55 0 94.5 41t54.5 109l98 463q3 13 14 22t23 9q11 0 18.5 -7t7.5 -17q0 -3 -1 -5l-98 -465q-20 -93 -80.5 -150.5t-143.5 -57.5h-121q-65 0 -107 39.5
t-42 111.5q0 27 7 57zM436 963h202q22 0 22 -21q0 -4 -1 -8q-3 -13 -12 -21t-21 -8h-203q-10 0 -16 6t-6 16v7q3 13 13 21t22 8zM391 777l6 28q2 12 11.5 20t22.5 8q11 0 17.5 -6t6.5 -16q0 -3 -1 -6l-5 -28q-3 -11 -12.5 -19t-23.5 -8q-23 0 -23 21q0 3 1 6zM543 777l6 28
q2 12 11.5 20t22.5 8q11 0 17.5 -6t6.5 -16q0 -3 -1 -6l-6 -28q-2 -11 -11.5 -19t-22.5 -8q-24 0 -24 21q0 3 1 6z" />
    <glyph glyph-name="udieresismacron" unicode="&#x1d6;" horiz-adv-x="499" 
d="M392 54l91 424q2 12 12.5 21.5t23.5 9.5q11 0 17.5 -7t6.5 -17v-5l-93 -436q-4 -18 -19 -31t-36 -13h-177q-56 0 -92.5 33.5t-36.5 91.5q0 20 5 42l66 313q3 11 13.5 20t23.5 9q11 0 17.5 -7t6.5 -17q0 -2 -1 -5l-66 -313q-3 -14 -3 -28q0 -38 22 -61.5t56 -23.5h163z
M315 770h202q22 0 22 -21q0 -4 -1 -8q-2 -13 -11.5 -21t-21.5 -8h-202q-11 0 -17 6t-6 16q0 3 1 7q3 13 12.5 21t21.5 8zM417 563l6 27q2 13 11.5 20.5t22.5 7.5q11 0 17.5 -6t6.5 -15q0 -4 -1 -7l-5 -27q-3 -12 -12.5 -19.5t-22.5 -7.5q-24 0 -24 20q0 3 1 7zM265 563l6 27
q2 12 11.5 20t22.5 8q11 0 17.5 -6t6.5 -15q0 -4 -1 -7l-5 -27q-3 -12 -12.5 -19.5t-23.5 -7.5q-23 0 -23 20q0 3 1 7z" />
    <glyph glyph-name="Udieresisacute" unicode="&#x1d7;" horiz-adv-x="660" 
d="M443 915l166 72q7 3 13 3q17 0 22 -16q1 -4 1 -7q0 -20 -28 -32l-159 -67q-9 -3 -17 -3q-16 0 -21 14q-1 3 -1 6q0 20 24 30zM391 777l5 27q3 13 12.5 20.5t22.5 7.5q11 0 17.5 -5.5t6.5 -15.5q0 -3 -1 -7l-6 -27q-2 -12 -11.5 -19.5t-23.5 -7.5q-23 0 -23 21q0 3 1 6z
M543 777l6 27q2 13 11.5 20.5t22.5 7.5q11 0 17.5 -5.5t6.5 -15.5q0 -3 -1 -7l-6 -27q-2 -12 -11.5 -19.5t-22.5 -7.5q-24 0 -24 21q0 3 1 6zM136 206l99 465q2 11 13.5 20t23.5 9q11 0 18 -7t7 -17q0 -2 -1 -5l-98 -465q-5 -21 -5 -41q0 -51 28 -80t70 -29h121
q55 0 94.5 41t54.5 109l98 463q3 13 14 22t23 9q11 0 18.5 -7t7.5 -17q0 -3 -1 -5l-98 -465q-20 -93 -80.5 -150.5t-143.5 -57.5h-121q-65 0 -107 39.5t-42 111.5q0 27 7 57z" />
    <glyph glyph-name="udieresisacute" unicode="&#x1d8;" horiz-adv-x="499" 
d="M392 54l91 424q2 12 12.5 21.5t23.5 9.5q11 0 17.5 -7t6.5 -17v-5l-93 -436q-4 -18 -19 -31t-36 -13h-177q-56 0 -92.5 33.5t-36.5 91.5q0 20 5 42l66 313q3 11 13.5 20t23.5 9q11 0 17.5 -7t6.5 -17q0 -2 -1 -5l-66 -313q-3 -14 -3 -28q0 -38 22 -61.5t56 -23.5h163z
M315 702l166 72q7 3 13 3q17 0 22 -16q1 -3 1 -7q0 -19 -28 -31l-159 -67q-9 -4 -17 -4q-16 0 -21 14q-1 3 -1 7q0 19 24 29zM265 563l5 27q3 12 12.5 20t22.5 8q11 0 17.5 -6t6.5 -16q0 -3 -1 -6l-6 -27q-2 -12 -11.5 -20t-23.5 -8q-23 0 -23 21q0 3 1 7zM417 563l6 27
q2 12 11.5 20t22.5 8q11 0 17.5 -6t6.5 -16q0 -3 -1 -6l-6 -27q-2 -12 -11.5 -20t-22.5 -8q-24 0 -24 21q0 3 1 7z" />
    <glyph glyph-name="Udieresiscaron" unicode="&#x1d9;" horiz-adv-x="660" 
d="M477 867l-63 92q-3 4 -3 10q0 14 13 24q9 6 20 6q13 0 20 -9l54 -74q3 -6 9 -6t12 6l84 73q11 10 24 10q12 0 18 -7q5 -6 5 -13q0 -11 -12 -22l-104 -91q-19 -18 -40 -18q-26 0 -37 19zM391 777l5 28q3 12 12.5 19.5t22.5 7.5q11 0 17.5 -5.5t6.5 -15.5q0 -3 -1 -6
l-6 -28q-2 -12 -11.5 -19.5t-23.5 -7.5q-23 0 -23 21q0 3 1 6zM543 777l6 28q2 12 11.5 19.5t22.5 7.5q11 0 17.5 -5.5t6.5 -15.5q0 -3 -1 -6l-6 -28q-2 -12 -11.5 -19.5t-22.5 -7.5q-24 0 -24 21q0 3 1 6zM136 206l99 465q2 11 13.5 20t23.5 9q11 0 18 -7t7 -17q0 -2 -1 -5
l-98 -465q-5 -21 -5 -41q0 -51 28 -80t70 -29h121q55 0 94.5 41t54.5 109l98 463q3 13 14 22t23 9q11 0 18.5 -7t7.5 -17q0 -2 -1 -5l-98 -465q-20 -93 -80.5 -150.5t-143.5 -57.5h-121q-65 0 -107 39.5t-42 111.5q0 27 7 57z" />
    <glyph glyph-name="udieresiscaron" unicode="&#x1da;" horiz-adv-x="499" 
d="M392 54l91 424q2 12 12.5 21.5t23.5 9.5q11 0 17.5 -7t6.5 -17v-5l-93 -436q-4 -18 -19 -31t-36 -13h-177q-56 0 -92.5 33.5t-36.5 91.5q0 20 5 42l66 313q3 11 13.5 20t23.5 9q11 0 17.5 -7t6.5 -17q0 -2 -1 -5l-66 -313q-3 -14 -3 -28q0 -38 22 -61.5t56 -23.5h163z
M345 645l-62 91q-3 5 -3 11q0 14 13 23q9 7 19 7q14 0 20 -10l54 -74q4 -5 9.5 -5t11.5 5l85 74q11 10 24 10q11 0 18 -8q4 -5 4 -12q0 -12 -11 -23l-104 -90q-19 -19 -40 -19q-26 0 -38 20zM265 563l5 27q3 12 12.5 20t22.5 8q11 0 17.5 -6t6.5 -16q0 -3 -1 -6l-5 -27
q-3 -12 -12.5 -20t-23.5 -8q-23 0 -23 21q0 3 1 7zM417 563l6 27q2 12 11.5 20t22.5 8q11 0 17.5 -6t6.5 -16q0 -3 -1 -6l-6 -27q-2 -12 -11.5 -20t-22.5 -8q-24 0 -24 21q0 3 1 7z" />
    <glyph glyph-name="Udieresisgrave" unicode="&#x1db;" horiz-adv-x="660" 
d="M572 869l-134 69q-13 6 -13 20q0 8 6 16q11 16 28 16q7 0 12 -3l136 -72q12 -6 12 -20q0 -8 -5 -16q-11 -14 -27 -14q-8 0 -15 4zM391 777l5 27q3 13 12.5 20.5t22.5 7.5q11 0 17.5 -5.5t6.5 -15.5q0 -3 -1 -7l-6 -27q-2 -12 -11.5 -19.5t-23.5 -7.5q-23 0 -23 21
q0 3 1 6zM543 777l6 28q2 12 11.5 19.5t22.5 7.5q11 0 17.5 -5.5t6.5 -15.5q0 -3 -1 -6l-6 -28q-2 -12 -11.5 -19.5t-22.5 -7.5q-24 0 -24 21q0 3 1 6zM136 206l99 465q2 11 13.5 20t23.5 9q11 0 18 -7t7 -17q0 -2 -1 -5l-98 -465q-5 -21 -5 -41q0 -51 28 -80t70 -29h121
q55 0 94.5 41t54.5 109l98 463q3 13 14 22t23 9q11 0 18.5 -7t7.5 -17q0 -3 -1 -5l-98 -465q-20 -93 -80.5 -150.5t-143.5 -57.5h-121q-65 0 -107 39.5t-42 111.5q0 27 7 57z" />
    <glyph glyph-name="udieresisgrave" unicode="&#x1dc;" horiz-adv-x="499" 
d="M392 54l91 424q2 12 12.5 21.5t23.5 9.5q11 0 17.5 -7t6.5 -17v-5l-93 -436q-4 -18 -19 -31t-36 -13h-177q-56 0 -92.5 33.5t-36.5 91.5q0 20 5 42l66 313q3 11 13.5 20t23.5 9q11 0 17.5 -7t6.5 -17q0 -2 -1 -5l-66 -313q-3 -14 -3 -28q0 -38 22 -61.5t56 -23.5h163z
M446 656l-134 69q-13 7 -13 20q0 8 6 16q11 17 28 17q7 0 13 -4l135 -71q13 -7 13 -20q0 -9 -6 -17q-10 -14 -26 -14q-8 0 -16 4zM265 563l6 27q2 13 11.5 20.5t22.5 7.5q11 0 17.5 -6t6.5 -15q0 -3 -1 -7l-5 -27q-3 -12 -12.5 -19.5t-23.5 -7.5q-23 0 -23 21q0 3 1 6z
M417 563l6 27q2 13 11.5 20.5t22.5 7.5q11 0 17.5 -6t6.5 -15q0 -3 -1 -7l-5 -27q-3 -12 -12.5 -19.5t-22.5 -7.5q-24 0 -24 20q0 4 1 7z" />
    <glyph glyph-name="Adieresismacron" unicode="&#x1de;" horiz-adv-x="605" 
d="M46 38l310 602q14 27 40.5 43.5t55.5 16.5t48 -16.5t22 -43.5l54 -605q1 -12 -9.5 -23t-26.5 -12q-11 -1 -18.5 5.5t-8.5 16.5l-19 185h-294l-97 -184q-5 -11 -15.5 -17.5t-21.5 -5.5q-24 1 -24 22q0 8 4 16zM489 265l-32 360q-1 17 -17 17t-25 -17l-186 -360h260z
M396 919h203q22 0 22 -21q0 -4 -1 -8q-3 -13 -12 -21t-21 -8h-203q-10 0 -16 6t-6 16v7q3 13 12.5 21t21.5 8zM363 777l6 27q3 13 12.5 20.5t21.5 7.5t18.5 -5.5t6.5 -15.5q0 -3 -1 -7l-6 -27q-2 -12 -12 -19.5t-23 -7.5q-23 0 -23 21v6zM516 777l5 27q3 13 12.5 20.5
t22.5 7.5q11 0 17.5 -5.5t6.5 -15.5q0 -3 -1 -7l-6 -27q-2 -12 -12 -19.5t-23 -7.5q-23 0 -23 21q0 3 1 6z" />
    <glyph glyph-name="adieresismacron" unicode="&#x1df;" horiz-adv-x="472" 
d="M369 455h-175q-25 0 -25 21q0 3 1 6q2 11 11.5 19t22.5 8h180q51 0 81 -31t30 -80q0 -17 -4 -35l-68 -321q-4 -18 -19 -30t-34 -12h-185q-52 0 -85.5 32.5t-33.5 81.5q0 15 3 30q13 60 65 102.5t113 42.5h169l15 70q2 14 2 26q0 32 -17 51t-47 19zM197 56h169l38 178
h-169q-35 0 -67 -27t-40 -63q-2 -9 -2 -18q0 -30 20 -50t51 -20zM307 807h203q21 0 21 -21v-8q-3 -13 -12.5 -20.5t-21.5 -7.5h-202q-11 0 -17 5.5t-6 15.5q0 4 1 7q3 14 12.5 21.5t21.5 7.5zM272 661l6 27q3 12 12.5 20t21.5 8t18.5 -6t6.5 -16q0 -3 -1 -6l-6 -27
q-2 -12 -12 -19.5t-23 -7.5q-23 0 -23 20v7zM424 661l6 27q3 12 12.5 20t22.5 8q11 0 17.5 -6t6.5 -16q0 -3 -1 -6l-6 -27q-3 -12 -12.5 -19.5t-22.5 -7.5q-23 0 -23 20v7z" />
    <glyph glyph-name="Gcaron" unicode="&#x1e6;" horiz-adv-x="643" 
d="M562 302h-113q-13 0 -20 7t-7 16v6q3 11 14 20t23 9h129q18 0 29 -10.5t11 -26.5q0 -5 -1 -11l-57 -265q-4 -20 -20.5 -33.5t-37.5 -13.5h-206q-94 0 -144 46.5t-50 127.5q0 30 7 63l47 220q51 243 289 243h189q11 0 18 -7t7 -17q0 -2 -1 -5q-2 -11 -13 -19.5t-23 -8.5
h-189q-175 0 -214 -186l-47 -220q-5 -25 -5 -48q0 -61 36 -96.5t105 -35.5h192zM445 775l-62 91q-3 5 -3 10q0 14 12 24q10 7 20 7q14 0 20 -10l54 -74q4 -5 9.5 -5t11.5 5l85 73q11 11 24 11q11 0 18 -8q4 -5 4 -12q0 -12 -12 -23l-104 -91q-19 -18 -40 -18q-25 0 -37 20z
" />
    <glyph glyph-name="gcaron" unicode="&#x1e7;" horiz-adv-x="497" 
d="M332 584l-63 91q-3 5 -3 10q0 14 13 24q9 7 20 7q13 0 20 -10l54 -74q4 -5 9.5 -5t11.5 5l84 73q12 11 25 11q11 0 17 -8q5 -5 5 -12q0 -12 -12 -23l-104 -91q-19 -18 -40 -18q-26 0 -37 20zM319 509h176q17 0 26.5 -9t9.5 -24q0 -5 -1 -9l-99 -463q-25 -120 -77.5 -175
t-157.5 -55h-152q-25 0 -25 21q0 3 1 6q2 11 11.5 19t22.5 8h153q71 0 106 39t57 133h-161q-56 0 -92 33.5t-36 91.5q0 20 4 42l33 152q6 30 21.5 61.5t39.5 61t61 48.5t79 19zM383 56l84 396h-160q-43 0 -80 -38t-50 -97l-32 -150q-3 -14 -3 -28q0 -37 22.5 -60t56.5 -23
h162z" />
    <glyph glyph-name="Oslashacute" unicode="&#x1fe;" horiz-adv-x="619" 
d="M460 833l166 71q7 3 13 3q17 0 22 -16q1 -3 1 -7q0 -19 -28 -31l-159 -67q-9 -4 -17 -4q-16 0 -21 14q-1 3 -1 7q0 20 24 30zM585 684l47 72q10 16 29 16q6 0 12 -2q10 -5 10 -16q0 -10 -7 -20l-48 -74q50 -41 50 -124q0 -35 -10 -79l-46 -220q-23 -107 -99.5 -172
t-188.5 -65h-46q-49 0 -86 13l-50 -76q-11 -15 -29 -15q-7 0 -12 3q-10 7 -10 17q0 8 5 15l52 79q-64 46 -64 138q0 30 7 63l47 220q51 243 289 243h45q61 0 103 -16zM195 93l353 536q-31 14 -78 14h-45q-174 0 -214 -186l-46 -220q-6 -25 -6 -48q0 -61 36 -96zM558 237
l47 220q7 34 7 62q0 51 -24 81l-351 -533q28 -10 63 -10h46q82 0 138.5 50t73.5 130z" />
    <glyph glyph-name="oslashacute" unicode="&#x1ff;" horiz-adv-x="487" 
d="M297 643l166 72q7 3 14 3q17 0 21 -16q1 -3 1 -7q0 -19 -27 -31l-159 -67q-9 -4 -17 -4q-17 0 -21 14q-1 3 -1 7q0 19 23 29zM427 502l42 65q11 16 29 16q7 0 12 -2q10 -5 10 -16q0 -10 -6 -20l-44 -66q47 -38 47 -110q0 -22 -5 -45l-33 -154q-16 -77 -74.5 -125.5
t-130.5 -48.5h-61q-30 0 -54 9l-49 -74q-10 -15 -28 -15q-7 0 -12 3q-10 7 -10 17q0 8 5 15l51 79q-39 36 -39 98q0 20 4 42l33 154q17 79 76 131.5t132 52.5h61q23 0 44 -6zM152 84l243 370q-11 3 -23 3h-61q-48 0 -86.5 -37.5t-49.5 -90.5l-35 -162q-3 -16 -3 -30
q0 -31 15 -53zM419 167l35 162q3 16 3 32q0 40 -21 66l-245 -374q15 -5 33 -5h61q48 0 85.5 34t48.5 85z" />
    <glyph glyph-name="Scommaaccent" unicode="&#x218;" horiz-adv-x="531" 
d="M269 0h-192q-11 0 -18 6.5t-7 16.5q0 3 1 6q2 11 13 19.5t23 8.5h193q78 0 124 36t63 116q4 18 4 33q0 40 -30.5 58t-105.5 33q-27 5 -41.5 8.5t-37.5 10t-35.5 13t-28 17t-23.5 23t-13.5 30t-5.5 38.5q0 22 6 50q38 177 259 177h169q12 0 19 -6.5t7 -16.5q0 -3 -1 -6
q-2 -11 -13 -19.5t-23 -8.5h-170q-81 0 -127 -28t-60 -92q-4 -20 -4 -36q0 -20 7.5 -35t18 -24t32.5 -16.5t39 -11.5t50 -10q89 -16 131.5 -44.5t42.5 -89.5q0 -21 -5 -47q-23 -109 -88 -159t-173 -50zM214 -121l12 57q3 11 11.5 18.5t20.5 7.5q9 0 15 -6t6 -15v-5l-14 -63
q-5 -25 -26 -43t-44 -24q-11 -1 -17 4t-6 13v3q0 12 16 20q22 11 26 33z" />
    <glyph glyph-name="scommaaccent" unicode="&#x219;" horiz-adv-x="457" 
d="M323 509h151q12 0 18.5 -6t6.5 -16v-5q-3 -12 -12.5 -20t-21.5 -8h-154q-51 0 -86.5 -20t-44.5 -63q-2 -11 -2 -20q0 -28 24.5 -41.5t81.5 -20.5l34 -6q132 -18 132 -106q0 -15 -3 -31q-17 -80 -74 -113t-148 -33h-140q-10 0 -16.5 6t-6.5 15q0 3 1 6q2 11 12 19t22 8
h140q130 0 149 91q2 8 2 16q0 27 -23 45t-67 23l-42 5q-68 8 -103.5 32t-35.5 71q0 15 3 32q15 71 71 105.5t132 34.5zM175 -121l12 57q2 11 10.5 18.5t20.5 7.5q9 0 15 -6t6 -15v-5l-14 -63q-5 -25 -26 -43t-44 -24q-11 -1 -17 4t-6 14v2q0 12 16 20q22 12 27 33z" />
    <glyph glyph-name="uni021A" unicode="&#x21a;" horiz-adv-x="583" 
d="M216 700h448q12 0 19 -7t7 -16v-6q-3 -11 -13.5 -19.5t-23.5 -8.5h-193l-130 -614q-2 -11 -13.5 -20t-23.5 -9q-11 0 -18 7t-7 16v6l131 613h-195q-11 0 -18 7t-7 17v5q3 11 14 20t23 9zM241 -121l12 57q2 11 11 18.5t20 7.5q10 0 16 -6t6 -15q0 -2 -1 -5l-13 -63
q-5 -25 -26.5 -43t-44.5 -24q-10 -1 -16.5 4t-6.5 14v2q0 12 16 20q22 12 27 33z" />
    <glyph glyph-name="uni021B" unicode="&#x21b;" horiz-adv-x="362" 
d="M214 509l18 84q3 12 13 20.5t23 8.5q11 0 18 -6.5t7 -16.5q0 -3 -1 -6l-18 -84h128q13 0 19.5 -6t6.5 -16v-7q-3 -12 -12.5 -19.5t-23.5 -7.5h-130l-63 -296q-6 -27 -6 -47q0 -32 18 -47.5t58 -15.5h37q11 0 17.5 -6.5t6.5 -16.5q0 -3 -1 -6q-2 -12 -12 -20t-23 -8h-37
q-125 0 -125 107q0 27 7 60l63 296h-53q-11 0 -17.5 5.5t-6.5 15.5v6q3 13 13 21t23 8h53zM160 -121l12 57q3 11 11.5 18.5t19.5 7.5q10 0 16 -6t6 -15q0 -2 -1 -5l-13 -63q-5 -25 -26 -43t-45 -24q-10 -1 -16.5 4t-6.5 14v2q1 12 16 20q22 12 27 33z" />
    <glyph glyph-name="uni0228" unicode="&#x228;" horiz-adv-x="562" 
d="M169 59h326q28 0 28 -23q0 -3 -1 -6q-3 -13 -13.5 -21.5t-24.5 -8.5h-205l-8 -36q31 0 44.5 -9t13.5 -31q0 -12 -4 -28q-8 -40 -31 -57.5t-65 -17.5h-32q-16 0 -16 14v4q4 19 22 19h32q20 0 28 9t12 29q2 10 2 16q0 19 -26 19q-22 1 -22 22q0 5 1 10l8 37h-96
q-18 0 -29 10t-11 27q0 5 1 10l129 606q5 20 21.5 33.5t37.5 13.5h340q14 0 21 -6.5t7 -16.5q0 -3 -1 -7q-3 -12 -13 -20.5t-24 -8.5h-329l-52 -248h268q13 0 20.5 -6.5t7.5 -16.5q0 -3 -1 -6q-2 -13 -13 -21.5t-24 -8.5h-271z" />
    <glyph glyph-name="uni0229" unicode="&#x229;" horiz-adv-x="476" 
d="M100 237l17 78q19 89 84 141.5t147 52.5q78 0 119 -35.5t41 -101.5q0 -27 -7 -57l-10 -47q-3 -18 -18.5 -30t-33.5 -12h-280q-10 -50 -10 -82q0 -47 23 -68.5t77 -21.5h151q25 0 25 -21q0 -3 -1 -6q-2 -12 -11.5 -19.5t-22.5 -7.5h-154l-8 -36q31 0 44.5 -9t13.5 -31
q0 -12 -4 -28q-8 -40 -31 -57.5t-65 -17.5h-32q-16 0 -16 14v4q4 19 22 19h32q20 0 28 9t12 29q2 10 2 16q0 19 -26 19q-22 1 -22 22q0 5 1 10l9 40q-58 7 -83.5 38t-25.5 89q0 42 13 107zM433 276l9 43q4 23 4 41q0 95 -110 95q-59 0 -101.5 -37t-56.5 -98l-9 -44h264z" />
    <glyph glyph-name="uni022A" unicode="&#x22a;" 
d="M455 700h45q196 0 196 -164q0 -35 -10 -79l-46 -220q-23 -107 -99.5 -172t-188.5 -65h-46q-94 0 -144 47t-50 127q0 30 7 63l47 220q51 243 289 243zM229 457l-46 -220q-6 -25 -6 -49q0 -60 36.5 -95.5t104.5 -35.5h46q82 0 138.5 50t73.5 130l47 220q7 34 7 62
q0 124 -142 124h-45q-174 0 -214 -186zM431 959h202q22 0 22 -21q0 -4 -1 -8q-2 -13 -11.5 -21t-21.5 -8h-202q-11 0 -17 6t-6 16q0 3 1 7q3 13 12.5 21t21.5 8zM388 775l6 27q3 12 12.5 20t21.5 8q11 0 17.5 -6t6.5 -16v-6l-6 -27q-3 -12 -12.5 -20t-22.5 -8q-24 0 -24 21
q0 3 1 7zM540 775l6 27q3 12 12.5 20t22.5 8q11 0 17 -6t6 -16v-6l-6 -27q-3 -12 -12.5 -19.5t-22.5 -7.5q-23 0 -23 20v7z" />
    <glyph glyph-name="uni022B" unicode="&#x22b;" horiz-adv-x="498" 
d="M317 797h203q22 0 22 -21q0 -4 -1 -8q-3 -13 -12 -21t-22 -8h-202q-11 0 -17 6t-6 16q0 3 1 7q3 13 12.5 21t21.5 8zM283 652l6 28q2 12 11.5 19.5t22.5 7.5q11 0 17.5 -5.5t6.5 -15.5q0 -3 -1 -6l-5 -28q-3 -12 -12.5 -19.5t-23.5 -7.5q-23 0 -23 21q0 3 1 6zM435 652
l6 28q2 12 11.5 19.5t22.5 7.5q11 0 17.5 -5.5t6.5 -15.5q0 -3 -1 -6l-5 -28q-3 -12 -12.5 -19.5t-22.5 -7.5q-24 0 -24 21q0 3 1 6zM279 -4h-61q-62 0 -99 35.5t-37 96.5q0 20 4 42l33 154q17 79 76 131.5t132 52.5h61q61 0 97.5 -38.5t36.5 -100.5q0 -22 -5 -45l-33 -154
q-16 -77 -74.5 -125.5t-130.5 -48.5zM229 48h61q48 0 85.5 34t48.5 85l35 162q3 16 3 32q0 42 -23 69t-62 27h-61q-47 0 -86 -37.5t-50 -90.5l-34 -162q-4 -16 -4 -30q0 -40 23.5 -64.5t63.5 -24.5z" />
    <glyph glyph-name="circumflex" unicode="&#x2c6;" horiz-adv-x="316" 
d="M287 656l-85 -74q-11 -10 -24 -10q-11 0 -17 7q-5 5 -5 13q0 12 10 21l101 91q20 20 46 20q21 0 32 -18l65 -91q4 -7 4 -14q0 -12 -11 -21q-10 -8 -21 -8q-13 0 -20 10l-53 74q-4 5 -10 5t-12 -5z" />
    <glyph glyph-name="caron" unicode="&#x2c7;" horiz-adv-x="316" 
d="M241 584l-62 91q-3 5 -3 10q0 14 13 24q9 7 20 7q13 0 19 -10l54 -74q4 -5 10 -5t12 5l84 73q11 11 24 11q11 0 18 -8q4 -5 4 -12q0 -12 -11 -23l-104 -91q-19 -18 -40 -18q-26 0 -38 20z" />
    <glyph glyph-name="breve" unicode="&#x2d8;" horiz-adv-x="327" 
d="M322 600h-61q-38 0 -61 23t-23 58q0 10 2 21t11.5 19t21.5 8q10 0 16.5 -6.5t6.5 -15.5v-5q-2 -6 -2 -12q0 -18 11.5 -29t30.5 -11h55q20 0 38 14.5t23 35.5q3 13 12.5 21t21.5 8q10 0 16 -6.5t6 -15.5v-5q-9 -42 -46 -72t-79 -30z" />
    <glyph glyph-name="dotaccent" unicode="&#x2d9;" horiz-adv-x="117" 
d="M170 658l6 27q2 12 11.5 20t22.5 8q11 0 17.5 -6t6.5 -16q0 -3 -1 -6l-5 -27q-3 -12 -13 -19.5t-23 -7.5q-23 0 -23 20q0 3 1 7z" />
    <glyph glyph-name="ring" unicode="&#x2da;" horiz-adv-x="262" 
d="M287 733q36 0 59 -23t23 -57q0 -10 -2 -20q-9 -40 -45 -69.5t-78 -29.5q-36 0 -59 22.5t-23 56.5q0 10 3 20q8 41 44 70.5t78 29.5zM277 687q-21 0 -39.5 -16t-23.5 -38q-1 -6 -1 -11q0 -19 11.5 -30.5t30.5 -11.5q21 0 39.5 15.5t23.5 37.5q1 6 1 11q0 19 -12 31t-30 12
z" />
    <glyph glyph-name="ogonek" unicode="&#x2db;" horiz-adv-x="224" 
d="M89 0h26q-54 -54 -53 -94q1 -9 7.5 -15.5t16.5 -6.5q16 0 30 16q9 12 17 12q3 0 5 -1q13 -1 13 -12q0 -3 -2 -7q-13 -21 -32.5 -32.5t-39.5 -11.5q-22 0 -37 12.5t-15 34.5q0 4 1 9q6 48 63 96z" />
    <glyph glyph-name="tilde" unicode="&#x2dc;" horiz-adv-x="377" 
d="M276 693q17 1 30.5 -3.5t19.5 -9.5t16 -14q1 -1 2 -3q9 -8 14 -12.5t14.5 -8t20.5 -2.5q16 1 52 28q8 6 17 6q13 0 19 -8q4 -5 4 -12q0 -14 -12 -24q-55 -44 -90 -46q-17 -1 -31.5 4.5t-20 10t-18.5 17.5q-24 23 -42 23h-7q-23 -4 -59 -30q-9 -6 -18 -6q-11 0 -18 8
q-4 6 -4 13q0 14 15 26q56 41 96 43z" />
    <glyph glyph-name="hungarumlaut" unicode="&#x2dd;" horiz-adv-x="484" 
d="M183 640l166 72q8 3 14 3q18 0 22 -16q1 -4 1 -7q0 -20 -28 -31l-159 -68q-9 -3 -17 -3q-16 0 -21 14q-1 3 -1 6q0 20 23 30zM400 640l166 72q7 3 14 3q17 0 21 -16q1 -4 1 -7q0 -20 -28 -31l-159 -68q-9 -3 -17 -3q-16 0 -20 14q-1 3 -1 6q0 20 23 30z" />
    <glyph glyph-name="Bdotbelow" unicode="&#x1e04;" horiz-adv-x="624" 
d="M291 700h224q66 0 108 -42t42 -105q0 -18 -4 -37q-10 -48 -42.5 -87.5t-78.5 -62.5q39 -17 61.5 -52.5t22.5 -80.5q0 -19 -4 -39q-17 -80 -87 -137t-151 -57h-240q-18 0 -29 10t-11 26q0 5 1 11l129 606q5 20 21.5 33.5t37.5 13.5zM452 333h-226l-58 -276h226
q55 0 104 40.5t61 96.5q3 15 3 29q0 47 -31 78.5t-79 31.5zM239 390h210q51 0 95.5 37t55.5 89q3 13 3 26q0 43 -28.5 72t-72.5 29h-210zM246 -112l6 27q3 12 12 20t22 8q24 0 24 -21v-7l-6 -27q-2 -11 -12 -19t-23 -8q-24 0 -24 21q0 3 1 6z" />
    <glyph glyph-name="bdotbelow" unicode="&#x1e05;" horiz-adv-x="497" 
d="M76 44l133 627q3 13 13.5 21t22.5 8q11 0 18 -6.5t7 -15.5q0 -3 -1 -7l-34 -162h161q56 0 92 -34t36 -92q0 -20 -4 -41l-33 -153q-6 -30 -21.5 -61t-39.5 -60.5t-61 -48.5t-79 -19h-174q-16 0 -26.5 10.5t-10.5 25.5q0 4 1 8zM223 455l-84 -398h159q43 0 80.5 38t49.5 97
l32 150q3 14 3 28q0 38 -22.5 61.5t-56.5 23.5h-161zM204 -112l6 27q3 12 12 20t22 8q25 0 25 -21q0 -4 -1 -7l-6 -27q-2 -11 -12 -19t-23 -8q-23 0 -23 21v6z" />
    <glyph glyph-name="Ddotbelow" unicode="&#x1e0c;" horiz-adv-x="640" 
d="M103 47l129 606q5 20 21.5 33.5t37.5 13.5h193q195 0 195 -164q0 -35 -9 -79l-47 -220q-23 -107 -99.5 -172t-188.5 -65h-193q-18 0 -29 10t-11 26q0 5 1 11zM560 237l46 220q8 34 8 62q0 124 -142 124h-180l-124 -586h179q82 0 139 50t74 130zM246 -112l6 27q3 12 12 20
t22 8q25 0 25 -21q0 -4 -1 -7l-6 -27q-2 -11 -12 -19t-23 -8q-23 0 -23 20v7z" />
    <glyph glyph-name="ddotbelow" unicode="&#x1e0d;" horiz-adv-x="497" 
d="M573 671l-133 -627q-4 -18 -20 -31t-35 -13h-174q-34 0 -59.5 12.5t-39.5 33.5t-20.5 44.5t-6.5 50.5q0 25 5 48l33 153q16 75 72 121t123 46h161l34 162q3 13 13 21t23 8q11 0 18 -6.5t7 -16.5q0 -3 -1 -6zM383 57l84 398h-161q-40 0 -76.5 -32t-46.5 -81l-32 -150
q-5 -21 -5 -40q0 -43 21.5 -69t55.5 -26h160zM188 -112l5 27q3 12 12.5 20t22.5 8q24 0 24 -21q0 -4 -1 -7l-6 -27q-2 -11 -12 -19t-23 -8q-23 0 -23 20q0 4 1 7z" />
    <glyph glyph-name="Dlinebelow" unicode="&#x1e0e;" horiz-adv-x="640" 
d="M103 47l129 606q5 20 21.5 33.5t37.5 13.5h193q195 0 195 -164q0 -35 -9 -79l-47 -220q-23 -107 -99.5 -172t-188.5 -65h-193q-18 0 -29 10t-11 26q0 5 1 11zM560 237l46 220q8 34 8 62q0 124 -142 124h-180l-124 -586h179q82 0 139 50t74 130zM188 -84h203q22 0 22 -21
q0 -4 -1 -8q-3 -13 -12 -21t-21 -8h-203q-10 0 -16.5 6t-6.5 16q0 3 1 7q3 14 12.5 21.5t21.5 7.5z" />
    <glyph glyph-name="dlinebelow" unicode="&#x1e0f;" horiz-adv-x="497" 
d="M573 671l-133 -627q-4 -18 -20 -31t-35 -13h-174q-34 0 -59.5 12.5t-39.5 33.5t-20.5 44.5t-6.5 50.5q0 25 5 48l33 153q16 75 72 121t123 46h161l34 162q3 13 13 21t23 8q11 0 18 -6.5t7 -16.5q0 -3 -1 -6zM383 57l84 398h-161q-40 0 -76.5 -32t-46.5 -81l-32 -150
q-5 -21 -5 -40q0 -43 21.5 -69t55.5 -26h160zM121 -85h203q22 0 22 -21q0 -4 -1 -8q-3 -13 -12 -21t-21 -8h-203q-10 0 -16.5 6t-6.5 16q0 3 1 7q3 13 12.5 21t21.5 8z" />
    <glyph glyph-name="Dcircumflexbelow" unicode="&#x1e12;" horiz-adv-x="640" 
d="M103 47l129 606q5 20 21.5 33.5t37.5 13.5h193q195 0 195 -164q0 -35 -9 -79l-47 -220q-23 -107 -99.5 -172t-188.5 -65h-193q-18 0 -29 10t-11 26q0 5 1 11zM560 237l46 220q8 34 8 62q0 124 -142 124h-180l-124 -586h179q82 0 139 50t74 130zM267 -104l-85 -74
q-11 -9 -24 -9q-11 0 -17 6q-5 5 -5 13q0 12 10 21l101 91q20 20 46 20q19 0 32 -18l65 -91q4 -6 4 -13q0 -13 -11 -22q-10 -8 -21 -8q-14 0 -20 11l-53 73q-5 5 -10 5t-12 -5z" />
    <glyph glyph-name="dcircumflexbelow" unicode="&#x1e13;" horiz-adv-x="497" 
d="M574 671l-133 -627q-4 -18 -20.5 -31t-34.5 -13h-174q-34 0 -59.5 12.5t-39.5 33.5t-20.5 44.5t-6.5 50.5q0 25 5 48l32 153q17 75 73 121t122 46h162l34 162q3 13 13 21t23 8q11 0 18 -6.5t7 -16.5q0 -3 -1 -6zM383 57l84 398h-161q-40 0 -76.5 -32t-46.5 -82l-32 -149
q-5 -21 -5 -40q0 -43 21.5 -69t55.5 -26h160zM209 -104l-86 -74q-11 -9 -24 -9q-11 0 -17 6q-5 5 -5 13q0 12 10 21l101 91q20 20 46 20q20 0 32 -18l66 -91q4 -6 4 -13q0 -13 -12 -22q-10 -8 -21 -8q-13 0 -20 11l-53 73q-5 5 -9.5 5t-11.5 -5z" />
    <glyph glyph-name="Hdotbelow" unicode="&#x1e24;" horiz-adv-x="687" 
d="M612 380l62 290q3 13 13.5 21.5t24.5 8.5q11 0 18 -6.5t7 -17.5q0 -4 -1 -8l-135 -636q-3 -14 -13.5 -23t-24.5 -9q-12 0 -19 6.5t-7 16.5q0 3 1 7l62 292h-376l-61 -290q-3 -14 -14 -23t-24 -9q-12 0 -19 6.5t-7 16.5q0 3 1 7l136 640q3 13 13.5 21.5t24.5 8.5
q11 0 18 -6.5t7 -17.5q0 -4 -1 -8l-61 -288h375zM295 -112l5 27q3 12 12.5 20t22.5 8q24 0 24 -21q0 -4 -1 -7l-6 -27q-2 -11 -12 -19t-23 -8q-23 0 -23 21q0 3 1 6z" />
    <glyph glyph-name="hdotbelow" unicode="&#x1e25;" horiz-adv-x="515" 
d="M79 28l137 643q2 13 12.5 21t23.5 8q11 0 17.5 -6.5t6.5 -15.5v-7l-35 -162h163q57 0 93 -34t36 -92q0 -20 -5 -41l-66 -314q-3 -13 -13.5 -20.5t-23.5 -7.5q-24 0 -24 21q0 3 1 7l66 312q3 15 3 29q0 39 -22 62.5t-56 23.5h-163l-91 -427q-3 -13 -13 -20.5t-23 -7.5
q-25 0 -25 21q0 3 1 7zM212 -112l5 27q3 12 12.5 20t22.5 8q24 0 24 -21q0 -4 -1 -7l-6 -27q-2 -11 -12 -19t-23 -8q-23 0 -23 21q0 3 1 6z" />
    <glyph glyph-name="Idieresisacute" unicode="&#x1e2e;" horiz-adv-x="248" 
d="M100 30l136 640q3 13 13.5 21.5t24.5 8.5q11 0 18 -6.5t7 -17.5q0 -4 -1 -8l-135 -636q-3 -14 -14 -23t-24 -9q-12 0 -19 6.5t-7 16.5q0 3 1 7zM243 899l165 72q8 3 14 3q17 0 22 -16q1 -4 1 -7q0 -20 -28 -32l-159 -67q-9 -3 -17 -3q-16 0 -21 14q-1 3 -1 6q0 20 24 30z
M185 777l6 28q2 12 11.5 19.5t22.5 7.5q11 0 17.5 -5.5t6.5 -15.5v-6l-6 -28q-3 -12 -12.5 -19.5t-22.5 -7.5q-24 0 -24 21q0 3 1 6zM337 777l6 28q3 12 12 19.5t22 7.5q11 0 17.5 -5.5t6.5 -15.5v-6l-6 -28q-3 -12 -12.5 -19.5t-22.5 -7.5q-24 0 -24 21q0 3 1 6z" />
    <glyph glyph-name="idieresisacute" unicode="&#x1e2f;" horiz-adv-x="200" 
d="M81 28l96 452q3 13 12.5 21t22.5 8q12 0 18.5 -6t6.5 -16q0 -4 -1 -7l-96 -452q-2 -13 -12 -20.5t-24 -7.5q-24 0 -24 21q0 3 1 7zM177 694l166 71q7 3 14 3q17 0 21 -16q1 -3 1 -7q0 -19 -28 -31l-159 -67q-9 -4 -17 -4q-16 0 -20 14q-1 4 -1 7q0 20 23 30zM118 573
l6 28q2 12 11.5 20t22.5 8q11 0 17.5 -6t6.5 -16v-6l-6 -28q-3 -11 -12.5 -19t-22.5 -8q-24 0 -24 21q0 3 1 6zM270 573l6 28q3 12 12 20t22 8q11 0 17.5 -6t6.5 -16v-6l-6 -28q-3 -11 -12.5 -19t-22.5 -8q-24 0 -24 21q0 3 1 6z" />
    <glyph glyph-name="Ldotbelow" unicode="&#x1e36;" horiz-adv-x="521" 
d="M103 47l133 623q3 13 13.5 21.5t24.5 8.5q11 0 18 -6.5t7 -16.5v-7l-130 -611h296q12 0 19.5 -6.5t7.5 -16.5v-6q-3 -13 -14 -21.5t-24 -8.5h-311q-19 0 -30 10t-11 27q0 5 1 10zM246 -112l6 27q3 12 12 20t22 8q25 0 25 -21q0 -4 -1 -7l-6 -27q-2 -11 -12 -19t-23 -8
q-23 0 -23 21v6z" />
    <glyph glyph-name="ldotbelow" unicode="&#x1e37;" horiz-adv-x="193" 
d="M81 29l137 642q2 13 12.5 21t23.5 8q11 0 17.5 -6.5t6.5 -16.5v-8l-136 -639q-3 -13 -13.5 -21.5t-23.5 -8.5q-11 0 -18 6t-7 16q0 3 1 7zM53 -112l6 27q2 12 11.5 20t22.5 8q24 0 24 -21q0 -4 -1 -7l-5 -27q-3 -11 -12.5 -19t-22.5 -8q-24 0 -24 21q0 3 1 6z" />
    <glyph glyph-name="Lcircumflexbelow" unicode="&#x1e3c;" horiz-adv-x="521" 
d="M103 47l133 623q3 13 13.5 21.5t24.5 8.5q11 0 18 -6.5t7 -16.5v-7l-130 -611h296q12 0 19.5 -6.5t7.5 -16.5v-6q-3 -13 -14 -21.5t-24 -8.5h-311q-19 0 -30 10t-11 27q0 5 1 10zM255 -104l-86 -74q-11 -9 -24 -9q-11 0 -17 6q-5 5 -5 13q0 12 10 21l101 91q20 20 46 20
q20 0 32 -18l66 -91q4 -6 4 -13q0 -13 -12 -22q-10 -7 -21 -7q-13 0 -20 10l-53 73q-5 5 -9.5 5t-11.5 -5z" />
    <glyph glyph-name="lcircumflexbelow" unicode="&#x1e3d;" horiz-adv-x="193" 
d="M81 29l137 642q2 13 12 21t24 8q11 0 17.5 -6.5t6.5 -16.5q0 -4 -1 -8l-135 -639q-3 -13 -13.5 -21.5t-23.5 -8.5q-11 0 -18 6t-7 16q0 3 1 7zM72 -104l-85 -74q-11 -9 -25 -9q-11 0 -16 6q-5 5 -5 13q0 12 10 21l101 91q20 20 45 20q20 0 33 -18l65 -91q4 -6 4 -13
q0 -13 -11 -22q-10 -8 -22 -8q-13 0 -19 11l-54 73q-4 5 -9 5t-12 -5z" />
    <glyph glyph-name="Macute" unicode="&#x1e3e;" horiz-adv-x="802" 
d="M415 112l285 539q11 22 34.5 35.5t48.5 13.5q27 0 44 -17t17 -42q0 -8 -2 -15l-126 -596q-3 -13 -13.5 -21.5t-24.5 -8.5q-12 0 -18.5 6.5t-6.5 16.5v7l126 591q1 6 1 10q0 10 -7 11q-10 1 -20 -17l-318 -597q-14 -28 -45 -28t-33 28l-51 597q-2 19 -13 17t-15 -21
l-126 -591q-3 -13 -13.5 -21.5t-23.5 -8.5q-12 0 -19 6.5t-7 16.5q0 3 1 7l126 596q7 30 34 52t58 22q26 0 42.5 -14t18.5 -37zM501 794l166 72q7 3 13 3q17 0 22 -16q1 -4 1 -7q0 -20 -28 -31l-159 -68q-9 -3 -17 -3q-16 0 -21 14q-1 3 -1 6q0 20 24 30z" />
    <glyph glyph-name="macute" unicode="&#x1e3f;" horiz-adv-x="780" 
d="M462 455h-240l-90 -425q-3 -13 -13 -21.5t-23 -8.5q-12 0 -18 6.5t-6 16.5q0 3 1 6l92 436q4 18 19.5 31t35.5 13h452q56 0 92 -34t36 -92q0 -20 -5 -41l-66 -313q-3 -12 -13.5 -20.5t-22.5 -8.5t-18 6.5t-6 16.5q0 3 1 6l66 313q3 14 3 28q0 38 -22.5 61.5t-56.5 23.5
h-139l-91 -425q-2 -13 -12.5 -21.5t-23.5 -8.5q-11 0 -17 6.5t-6 16.5v6zM456 643l166 72q7 3 14 3q17 0 21 -16q1 -3 1 -7q0 -19 -28 -31l-159 -67q-9 -4 -17 -4q-16 0 -20 14q-1 3 -1 7q0 19 23 29z" />
    <glyph glyph-name="Ndotaccent" unicode="&#x1e44;" horiz-adv-x="676" 
d="M548 79l126 591q3 13 13.5 21.5t23.5 8.5q12 0 19 -6.5t7 -16.5q0 -3 -1 -7l-126 -593q-7 -33 -34 -55t-61 -22q-23 0 -40 12.5t-22 32.5l-141 581q-4 18 -17 16q-13 -1 -17 -21l-126 -591q-2 -13 -13 -21.5t-24 -8.5q-12 0 -19 6.5t-7 16.5q0 3 1 7l126 593q7 33 34 55
t61 22q23 0 40 -12.5t22 -32.5l142 -581q4 -18 16 -16q13 2 17 21zM490 849l6 27q3 12 12 20t22 8q11 0 17.5 -6t6.5 -16v-6l-6 -27q-2 -12 -12 -19.5t-23 -7.5q-24 0 -24 20q0 3 1 7z" />
    <glyph glyph-name="ndotaccent" unicode="&#x1e45;" horiz-adv-x="507" 
d="M221 509h177q56 0 92 -34t36 -92q0 -20 -4 -41l-67 -313q-2 -12 -13 -20.5t-24 -8.5q-11 0 -17 6.5t-6 16.5v6l67 313q3 16 3 31q0 37 -21 59.5t-58 22.5h-163l-90 -425q-3 -13 -13.5 -21.5t-22.5 -8.5t-18.5 6.5t-6.5 16.5q0 3 1 6l92 436q4 18 19.5 31t36.5 13z
M365 658l6 27q2 12 11.5 20t22.5 8q11 0 17.5 -6t6.5 -16v-6l-6 -27q-3 -12 -12.5 -19.5t-22.5 -7.5q-24 0 -24 20q0 3 1 7z" />
    <glyph glyph-name="Ndotbelow" unicode="&#x1e46;" horiz-adv-x="676" 
d="M548 79l126 591q3 13 13.5 21.5t23.5 8.5q12 0 19 -6.5t7 -16.5q0 -3 -1 -7l-126 -593q-7 -33 -34 -55t-61 -22q-23 0 -40 12.5t-22 32.5l-141 581q-4 18 -17 16q-13 -1 -17 -21l-126 -591q-2 -13 -13 -21.5t-24 -8.5q-12 0 -19 6.5t-7 16.5q0 3 1 7l126 593
q7 33 34.5 55t60.5 22q23 0 40 -12.5t22 -32.5l142 -581q4 -18 16 -16q13 2 17 21zM279 -112l6 27q2 12 11.5 20t22.5 8q24 0 24 -21q0 -4 -1 -7l-5 -27q-3 -11 -12.5 -19t-22.5 -8q-24 0 -24 21q0 3 1 6z" />
    <glyph glyph-name="ndotbelow" unicode="&#x1e47;" horiz-adv-x="507" 
d="M221 509h177q56 0 92 -34t36 -92q0 -20 -4 -41l-67 -313q-2 -12 -13 -20.5t-24 -8.5q-11 0 -17 6.5t-6 16.5v6l67 313q3 16 3 31q0 37 -21 59.5t-58 22.5h-163l-90 -425q-3 -13 -13.5 -21.5t-22.5 -8.5t-18.5 6.5t-6.5 16.5q0 3 1 6l92 436q4 18 19.5 31t36.5 13z
M205 -112l6 27q3 12 12 20t22 8q25 0 25 -21q0 -4 -1 -7l-6 -27q-2 -11 -12 -19t-23 -8q-23 0 -23 21v6z" />
    <glyph glyph-name="Ncircumflexbelow" unicode="&#x1e4a;" horiz-adv-x="676" 
d="M548 79l126 591q3 13 13.5 21.5t23.5 8.5q12 0 19 -6.5t7 -16.5q0 -3 -1 -7l-126 -593q-7 -33 -34 -55t-61 -22q-23 0 -40 12.5t-22 32.5l-141 581q-4 18 -17 16q-13 -1 -17 -21l-126 -591q-2 -13 -13 -21.5t-24 -8.5q-12 0 -19 6.5t-7 16.5q0 3 1 7l126 593
q7 33 34.5 55t60.5 22q23 0 40 -12.5t22 -32.5l142 -581q4 -18 16 -16q13 2 17 21zM305 -104l-85 -74q-11 -9 -25 -9q-10 0 -16 6q-5 5 -5 13q0 12 9 21l102 91q20 20 46 20q19 0 32 -18l65 -91q4 -6 4 -13q0 -13 -11 -22q-10 -8 -22 -8q-13 0 -19 11l-53 73q-5 5 -10 5
t-12 -5z" />
    <glyph glyph-name="ncircumflexbelow" unicode="&#x1e4b;" horiz-adv-x="507" 
d="M221 509h177q56 0 92 -34t36 -92q0 -20 -4 -41l-67 -313q-2 -12 -13 -20.5t-24 -8.5q-11 0 -17 6.5t-6 16.5v6l67 313q3 16 3 31q0 37 -21 59.5t-58 22.5h-163l-90 -425q-3 -13 -13.5 -21.5t-22.5 -8.5t-18.5 6.5t-6.5 16.5q0 3 1 6l92 436q4 18 19.5 31t36.5 13z
M226 -104l-86 -74q-11 -9 -24 -9q-11 0 -17 6q-5 5 -5 13q0 12 10 21l101 91q20 20 46 20q19 0 32 -18l66 -91q4 -6 4 -13q0 -13 -12 -22q-10 -8 -21 -8q-13 0 -20 11l-53 73q-5 5 -10 5t-11 -5z" />
    <glyph glyph-name="Otildeacute" unicode="&#x1e4c;" 
d="M455 700h45q196 0 196 -164q0 -35 -10 -79l-46 -220q-23 -107 -99.5 -172t-188.5 -65h-46q-94 0 -144 47t-50 127q0 30 7 63l47 220q51 243 289 243zM229 457l-46 -220q-6 -25 -6 -48q0 -61 36.5 -96.5t104.5 -35.5h46q82 0 138.5 50t73.5 130l47 220q7 34 7 62
q0 124 -142 124h-45q-174 0 -214 -186zM448 846q17 1 30.5 -3.5t19.5 -9.5t16 -14q0 -1 2 -3q9 -8 14 -12.5t14.5 -8t20.5 -2.5q16 1 52 28q8 6 17 6q13 0 19 -9q4 -5 4 -11q0 -14 -12 -24q-55 -44 -90 -46q-17 -1 -31.5 4.5t-20 10t-18.5 17.5q-24 23 -42 23h-7
q-23 -4 -59 -30q-9 -6 -18 -6q-11 0 -18 8q-5 6 -5 13q0 14 16 26q56 41 96 43zM422 914l166 72q7 3 14 3q17 0 21 -16q1 -3 1 -7q0 -19 -28 -31l-159 -67q-9 -4 -17 -4q-16 0 -20 14q-1 3 -1 7q0 19 23 29z" />
    <glyph glyph-name="otildeacute" unicode="&#x1e4d;" horiz-adv-x="498" 
d="M279 -4h-61q-62 0 -99 36t-37 96q0 20 4 42l33 154q17 79 76 131.5t132 52.5h61q61 0 97.5 -38.5t36.5 -100.5q0 -22 -5 -45l-33 -154q-16 -77 -74.5 -125.5t-130.5 -48.5zM229 48h61q48 0 85.5 34t48.5 85l35 162q3 16 3 32q0 42 -23 69t-62 27h-61q-48 0 -86.5 -37.5
t-49.5 -90.5l-35 -162q-3 -16 -3 -30q0 -40 23.5 -64.5t63.5 -24.5zM328 661q17 1 30.5 -3.5t19.5 -9.5t16 -14l2 -2q9 -9 14 -13t14.5 -8t20.5 -3q16 1 52 28q8 7 17 7q13 0 19 -9q4 -5 4 -12q0 -13 -12 -24q-55 -43 -90 -46q-17 -1 -31.5 4.5t-20 10t-18.5 17.5
q-24 23 -42 23h-7q-23 -4 -59 -30q-9 -6 -18 -6q-11 0 -18 8q-4 6 -4 13q0 14 15 26q56 42 96 43zM307 735l166 71q7 3 13 3q17 0 22 -16q1 -3 1 -7q0 -19 -28 -31l-159 -67q-9 -4 -17 -4q-16 0 -21 14q-1 3 -1 7q0 19 24 30z" />
    <glyph glyph-name="Omacrongrave" unicode="&#x1e50;" 
d="M455 700h45q196 0 196 -164q0 -35 -10 -79l-46 -220q-23 -107 -99.5 -172t-188.5 -65h-46q-94 0 -144 47t-50 127q0 30 7 63l47 220q51 243 289 243zM229 457l-46 -220q-6 -25 -6 -48q0 -61 36 -96.5t105 -35.5h46q82 0 138.5 50t73.5 130l47 220q7 34 7 62
q0 124 -142 124h-45q-174 0 -214 -186zM401 808h202q22 0 22 -21q0 -4 -1 -8q-3 -13 -12 -21t-21 -8h-203q-10 0 -16 6t-6 16v7q3 13 13 21t22 8zM581 845l-134 68q-13 7 -13 20q0 9 6 17q10 16 28 16q6 0 12 -3l136 -72q12 -7 12 -20q0 -8 -5 -16q-11 -14 -27 -14
q-8 0 -15 4z" />
    <glyph glyph-name="omacrongrave" unicode="&#x1e51;" horiz-adv-x="498" 
d="M462 656l-134 69q-13 6 -13 20q0 8 6 16q11 16 28 16q7 0 13 -3l135 -72q13 -6 13 -20q0 -8 -6 -16q-11 -14 -26 -14q-8 0 -16 4zM282 624h203q22 0 22 -21q0 -4 -1 -8q-3 -13 -12 -21t-22 -8h-202q-10 0 -16.5 6t-6.5 16q0 3 1 7q3 13 12.5 21t21.5 8zM279 -4h-61
q-62 0 -99 35.5t-37 96.5q0 20 4 42l33 154q17 79 76 131.5t132 52.5h61q61 0 97.5 -38.5t36.5 -100.5q0 -22 -5 -45l-33 -154q-16 -77 -74.5 -125.5t-130.5 -48.5zM229 48h61q48 0 85.5 34t48.5 85l35 162q3 16 3 32q0 42 -23 69t-62 27h-61q-47 0 -86 -37.5t-50 -90.5
l-34 -162q-4 -16 -4 -30q0 -40 23.5 -64.5t63.5 -24.5z" />
    <glyph glyph-name="Omacronacute" unicode="&#x1e52;" 
d="M455 700h45q196 0 196 -164q0 -35 -10 -79l-46 -220q-23 -107 -99.5 -172t-188.5 -65h-46q-94 0 -144 47t-50 127q0 30 7 63l47 220q51 243 289 243zM229 457l-46 -220q-6 -25 -6 -48q0 -61 36 -96.5t105 -35.5h46q82 0 138.5 50t73.5 130l47 220q7 34 7 62
q0 124 -142 124h-45q-174 0 -214 -186zM401 808h202q22 0 22 -21q0 -4 -1 -8q-3 -13 -12 -21t-21 -8h-203q-10 0 -16 6t-6 16v7q3 13 13 21t22 8zM427 891l166 72q7 3 14 3q17 0 21 -16q1 -4 1 -7q0 -20 -28 -31l-158 -67q-9 -4 -17 -4q-17 0 -21 14q-1 3 -1 6q0 20 23 30z
" />
    <glyph glyph-name="omacronacute" unicode="&#x1e53;" horiz-adv-x="498" 
d="M300 702l166 72q7 3 13 3q17 0 22 -16q1 -4 1 -7q0 -20 -28 -31l-159 -67q-9 -4 -17 -4q-16 0 -21 14q-1 3 -1 6q0 20 24 30zM282 624h203q22 0 22 -21q0 -4 -1 -8q-3 -13 -12 -21t-22 -8h-202q-10 0 -16.5 6t-6.5 16q0 4 1 7q3 14 12.5 21.5t21.5 7.5zM279 -4h-61
q-62 0 -99 36t-37 96q0 20 4 42l33 154q17 79 76 131.5t132 52.5h61q61 0 97.5 -38.5t36.5 -100.5q0 -22 -5 -45l-33 -154q-16 -77 -74.5 -125.5t-130.5 -48.5zM229 48h61q48 0 85.5 34t48.5 85l35 162q3 16 3 32q0 42 -23 69t-62 27h-61q-48 0 -86.5 -37.5t-49.5 -90.5
l-35 -162q-3 -16 -3 -30q0 -40 23.5 -64.5t63.5 -24.5z" />
    <glyph glyph-name="Sdotbelow" unicode="&#x1e62;" horiz-adv-x="531" 
d="M269 0h-192q-11 0 -18 6.5t-7 16.5q0 3 1 6q2 11 13 19.5t23 8.5h193q78 0 124 36t63 116q4 18 4 33q0 40 -30.5 58t-105.5 33q-27 5 -41.5 8.5t-37.5 10t-35.5 13t-28 17t-23.5 23t-13.5 30t-5.5 38.5q0 22 6 50q38 177 259 177h169q12 0 19 -6.5t7 -16.5q0 -3 -1 -6
q-2 -11 -13 -19.5t-23 -8.5h-170q-81 0 -127 -28t-60 -92q-4 -20 -4 -36q0 -20 7.5 -35t18 -24t32.5 -16.5t39 -11.5t50 -10q89 -16 131.5 -44.5t42.5 -89.5q0 -21 -5 -47q-23 -109 -88 -159t-173 -50zM216 -112l6 27q3 12 12 20t23 8q24 0 24 -21q0 -4 -1 -7l-6 -27
q-2 -12 -12 -19.5t-23 -7.5q-23 0 -23 20v7z" />
    <glyph glyph-name="sdotbelow" unicode="&#x1e63;" horiz-adv-x="457" 
d="M323 509h151q12 0 18.5 -6t6.5 -16v-5q-3 -12 -12.5 -20t-21.5 -8h-154q-51 0 -86.5 -20t-44.5 -63q-2 -11 -2 -20q0 -28 24.5 -41.5t81.5 -20.5l34 -6q132 -18 132 -106q0 -15 -3 -31q-17 -80 -74 -113t-148 -33h-140q-10 0 -16.5 6t-6.5 15q0 3 1 6q2 11 12 19t22 8
h140q130 0 149 91q2 8 2 16q0 27 -23 45t-67 23l-42 5q-68 8 -103.5 32t-35.5 71q0 15 3 32q15 71 71 105.5t132 34.5zM176 -112l6 27q2 12 11.5 20t22.5 8q24 0 24 -21q0 -4 -1 -7l-5 -27q-3 -11 -13 -19t-22 -8q-24 0 -24 21q0 3 1 6z" />
    <glyph glyph-name="Tdotbelow" unicode="&#x1e6c;" horiz-adv-x="583" 
d="M216 700h448q12 0 19 -7t7 -16v-6q-3 -11 -13.5 -19.5t-23.5 -8.5h-193l-130 -614q-2 -11 -13.5 -20t-23.5 -9q-11 0 -18 7t-7 16v6l131 613h-195q-11 0 -18 7t-7 17v5q3 11 14 20t23 9zM240 -112l6 27q2 12 11.5 20t22.5 8q24 0 24 -21q0 -4 -1 -7l-5 -27
q-3 -11 -12.5 -19t-22.5 -8q-24 0 -24 21q0 3 1 6z" />
    <glyph glyph-name="tdotbelow" unicode="&#x1e6d;" horiz-adv-x="362" 
d="M214 509l18 84q3 12 13 20.5t23 8.5q11 0 18 -6.5t7 -16.5q0 -3 -1 -6l-18 -84h128q13 0 19.5 -6t6.5 -16v-7q-3 -12 -12.5 -19.5t-23.5 -7.5h-130l-63 -296q-6 -27 -6 -47q0 -32 18 -47.5t58 -15.5h37q11 0 17.5 -6.5t6.5 -16.5q0 -3 -1 -6q-2 -12 -12 -20t-23 -8h-37
q-125 0 -125 107q0 27 7 60l63 296h-53q-11 0 -17.5 5.5t-6.5 15.5v6q3 13 13 21t23 8h53zM122 -112l6 27q2 12 11.5 20t22.5 8q24 0 24 -21q0 -4 -1 -7l-5 -27q-3 -11 -13 -19t-23 -8q-23 0 -23 21q0 3 1 6z" />
    <glyph glyph-name="Tlinebelow" unicode="&#x1e6e;" horiz-adv-x="583" 
d="M216 700h448q12 0 19 -7t7 -16v-6q-3 -11 -13.5 -19.5t-23.5 -8.5h-193l-130 -614q-2 -11 -13.5 -20t-23.5 -9q-11 0 -18 7t-7 16v6l131 613h-195q-11 0 -18 7t-7 17v5q3 11 14 20t23 9zM173 -85h202q22 0 22 -21q0 -4 -1 -8q-2 -13 -11.5 -21t-21.5 -8h-202q-11 0 -17 6
t-6 16q0 3 1 7q3 14 12.5 21.5t21.5 7.5z" />
    <glyph glyph-name="tlinebelow" unicode="&#x1e6f;" horiz-adv-x="362" 
d="M214 509l18 84q3 12 13 20.5t23 8.5q11 0 18 -6.5t7 -16.5q0 -3 -1 -6l-18 -84h128q13 0 19.5 -6t6.5 -16v-7q-3 -12 -12.5 -19.5t-23.5 -7.5h-130l-63 -296q-6 -27 -6 -47q0 -32 18 -47.5t58 -15.5h37q11 0 17.5 -6.5t6.5 -16.5q0 -3 -1 -6q-2 -12 -12 -20t-23 -8h-37
q-125 0 -125 107q0 27 7 60l63 296h-53q-11 0 -17.5 5.5t-6.5 15.5v6q3 13 13 21t23 8h53zM64 -84h202q22 0 22 -21q0 -4 -1 -8q-2 -13 -11.5 -21t-21.5 -8h-203q-10 0 -16 6t-6 16q0 3 1 7q3 14 12.5 21.5t21.5 7.5z" />
    <glyph glyph-name="Tcircumflexbelow" unicode="&#x1e70;" horiz-adv-x="583" 
d="M216 700h448q12 0 19 -7t7 -16v-6q-3 -11 -13.5 -19.5t-23.5 -8.5h-193l-130 -614q-2 -11 -13.5 -20t-23.5 -9q-11 0 -18 7t-7 16v6l131 613h-195q-11 0 -18 7t-7 17v5q3 11 14 20t23 9zM260 -104l-86 -74q-11 -9 -24 -9q-11 0 -17 6q-5 5 -5 13q0 12 10 21l101 91
q20 20 46 20q20 0 32 -18l66 -91q4 -6 4 -13q0 -13 -12 -22q-10 -7 -21 -7q-13 0 -20 10l-53 73q-5 5 -9.5 5t-11.5 -5z" />
    <glyph glyph-name="tcircumflexbelow" unicode="&#x1e71;" horiz-adv-x="362" 
d="M214 509l18 84q3 12 13.5 20.5t23.5 8.5q11 0 17.5 -6.5t6.5 -16.5q0 -3 -1 -6l-18 -84h129q12 0 19 -6t7 -16q0 -3 -1 -7q-2 -12 -12 -19.5t-24 -7.5h-130l-62 -296q-6 -27 -6 -47q0 -32 17.5 -47.5t57.5 -15.5h37q12 0 18.5 -6.5t6.5 -16.5q0 -3 -1 -6
q-3 -12 -12.5 -20t-23.5 -8h-37q-124 0 -124 107q0 27 7 60l63 296h-54q-11 0 -17.5 5.5t-6.5 15.5q0 3 1 6q3 13 12.5 21t22.5 8h53zM144 -104l-85 -74q-11 -9 -25 -9q-10 0 -16 6q-5 5 -5 13q0 12 9 21l102 91q19 20 45 20q20 0 33 -18l65 -91q4 -6 4 -13q0 -13 -12 -22
q-10 -8 -21 -8q-13 0 -20 11l-53 73q-4 5 -9 5t-12 -5z" />
    <glyph glyph-name="Wgrave" unicode="&#x1e80;" horiz-adv-x="750" 
d="M132 62l47 605q1 15 13 24t25 9t20 -7.5t6 -18.5l-48 -596q-1 -3 -1 -5q0 -14 9 -15t20 16l201 319q14 22 40 22q25 0 30 -20l65 -321q2 -8 5 -12t8 -4q11 1 17 20l207 598q3 10 13.5 17t22.5 7q11 0 18.5 -6t7.5 -17q0 -5 -2 -10l-211 -605q-10 -28 -33.5 -45t-51.5 -17
q-24 0 -40.5 12.5t-20.5 32.5l-55 275l-174 -276q-12 -19 -33.5 -31.5t-45.5 -12.5q-27 0 -43 15.5t-16 40.5v6zM604 784l-134 69q-13 7 -13 20q0 9 6 17q11 16 28 16q7 0 13 -3l135 -72q13 -7 13 -20q0 -9 -6 -16q-10 -14 -26 -14q-8 0 -16 3z" />
    <glyph glyph-name="wgrave" unicode="&#x1e81;" horiz-adv-x="731" 
d="M554 593l-134 69q-13 7 -13 20q0 9 6 17q11 16 28 16q7 0 13 -3l135 -72q13 -7 13 -20q0 -9 -6 -16q-11 -14 -26 -14q-8 0 -16 3zM565 74l187 407q14 29 37 28q22 -1 22 -22q0 -8 -5 -18l-188 -412q-12 -25 -37 -41t-54 -16q-28 0 -45 15.5t-19 40.5l-19 315l-154 -315
q-12 -25 -36.5 -40.5t-53.5 -15.5q-28 0 -45.5 16t-18.5 41l-11 419q0 14 11 23.5t25 9.5q11 0 17 -6.5t6 -15.5l13 -413q1 -18 16.5 -18t24.5 18l190 391q12 23 40.5 23t29.5 -23l25 -391q2 -18 17.5 -18t24.5 18z" />
    <glyph glyph-name="Wacute" unicode="&#x1e82;" horiz-adv-x="750" 
d="M132 62l47 605q1 15 13 24t25 9t20 -7.5t6 -18.5l-48 -596q-1 -3 -1 -5q0 -14 9 -15t20 16l201 319q14 22 40 22q25 0 30 -20l65 -321q2 -8 5 -12t8 -4q11 1 17 20l207 598q3 10 13.5 17t22.5 7q11 0 18.5 -6t7.5 -17q0 -5 -2 -10l-211 -605q-10 -28 -33.5 -45t-51.5 -17
q-24 0 -40.5 12.5t-20.5 32.5l-55 275l-174 -276q-12 -19 -33.5 -31.5t-45.5 -12.5q-27 0 -43 15.5t-16 40.5v6zM465 831l166 72q7 3 14 3q17 0 21 -16q1 -4 1 -7q0 -20 -27 -31l-159 -68q-9 -3 -17 -3q-17 0 -21 14q-1 3 -1 6q0 20 23 30z" />
    <glyph glyph-name="wacute" unicode="&#x1e83;" horiz-adv-x="731" 
d="M415 640l166 72q7 3 14 3q17 0 21 -16q1 -4 1 -7q0 -20 -28 -31l-159 -68q-8 -3 -17 -3q-16 0 -20 14q-1 3 -1 6q0 20 23 30zM565 74l187 407q14 29 37 28q22 -1 22 -22q0 -8 -5 -18l-188 -412q-12 -25 -37 -41t-54 -16q-28 0 -45 15.5t-19 40.5l-19 316l-154 -316
q-12 -25 -36.5 -40.5t-53.5 -15.5q-28 0 -45.5 16t-18.5 41l-11 419q0 14 11 23.5t25 9.5q11 0 17 -6.5t6 -15.5l13 -413q1 -18 16.5 -18t24.5 18l190 391q12 23 40.5 23t29.5 -23l25 -391q2 -18 17.5 -18t24.5 18z" />
    <glyph glyph-name="Wdieresis" unicode="&#x1e84;" horiz-adv-x="750" 
d="M132 62l47 605q1 15 13 24t25 9t20 -7.5t6 -18.5l-48 -596q-1 -3 -1 -5q0 -14 9 -15t20 16l201 319q14 22 40 22q25 0 30 -20l65 -321q2 -8 5 -12t8 -4q11 1 17 20l207 598q3 10 13.5 17t22.5 7q11 0 18.5 -6t7.5 -17q0 -5 -2 -10l-211 -605q-10 -28 -33.5 -45t-51.5 -17
q-24 0 -40.5 12.5t-20.5 32.5l-55 275l-174 -276q-12 -19 -33.5 -31.5t-45.5 -12.5q-27 0 -43 15.5t-16 40.5v6zM451 848l6 28q3 12 12.5 20t21.5 8t18 -6t6 -16v-6l-6 -28q-3 -11 -12.5 -19t-22.5 -8q-24 0 -24 21q0 3 1 6zM603 848l6 28q3 12 12.5 20t22.5 8q11 0 17 -6
t6 -16v-6l-6 -28q-3 -11 -12.5 -19t-22.5 -8q-23 0 -23 21v6z" />
    <glyph glyph-name="wdieresis" unicode="&#x1e85;" horiz-adv-x="731" 
d="M565 74l187 407q14 29 37 28q22 -1 22 -22q0 -8 -5 -18l-188 -412q-12 -25 -37 -41t-54 -16q-28 0 -45 15.5t-19 40.5l-19 315l-154 -315q-12 -25 -36.5 -40.5t-53.5 -15.5q-28 0 -45.5 16t-18.5 41l-11 419q0 14 11 23.5t25 9.5q11 0 17 -6.5t6 -15.5l13 -413
q1 -18 16.5 -18t24.5 18l190 391q12 23 40.5 23t29.5 -23l25 -391q2 -18 17.5 -18t24.5 18zM401 657l6 28q2 12 11.5 20t22.5 8q11 0 17.5 -6t6.5 -16v-6l-6 -28q-3 -11 -12.5 -19t-22.5 -8q-24 0 -24 21q0 3 1 6zM553 657l6 28q3 12 12 20t22 8q11 0 17.5 -6t6.5 -16
q0 -3 -1 -6l-5 -28q-3 -11 -12.5 -19t-22.5 -8q-24 0 -24 21q0 3 1 6z" />
    <glyph glyph-name="Zdotbelow" unicode="&#x1e92;" horiz-adv-x="544" 
d="M225 700h352q26 0 41.5 -15t15.5 -39q0 -7 -2 -14q-4 -22 -25 -43l-472 -503q-12 -14 -12 -20q0 -8 19 -8h335q13 0 20.5 -6.5t7.5 -16.5q0 -3 -1 -6q-2 -13 -13 -21t-24 -8h-351q-25 0 -40.5 15t-15.5 38q0 8 1 15q5 23 20 38l476 508q13 14 13 20q0 8 -19 8h-338
q-11 0 -17.5 7t-6.5 17v5q3 11 13.5 20t22.5 9zM220 -112l5 27q3 12 12.5 20t22.5 8q24 0 24 -21q0 -4 -1 -7l-6 -27q-2 -11 -12 -19t-23 -8q-23 0 -23 21q0 3 1 6z" />
    <glyph glyph-name="zdotbelow" unicode="&#x1e93;" horiz-adv-x="457" 
d="M199 509h286q15 0 24 -7.5t9 -18.5q0 -4 -1 -7q-3 -14 -16 -28l-369 -393h262q26 0 26 -21q0 -3 -1 -7q-2 -12 -11.5 -19.5t-22.5 -7.5h-305q-15 0 -23.5 7t-8.5 19q0 3 1 7q3 16 15 28l373 393h-250q-11 0 -17 6t-6 15q0 3 1 6q2 12 11.5 20t22.5 8zM177 -112l5 27
q3 12 12 20t23 8q24 0 24 -21q0 -4 -1 -7l-6 -27q-2 -11 -12 -19t-23 -8q-23 0 -23 21q0 3 1 6z" />
    <glyph glyph-name="adotbelow" unicode="&#x1ea1;" horiz-adv-x="472" 
d="M369 455h-175q-25 0 -25 21q0 3 1 6q2 11 11.5 19t22.5 8h180q51 0 81 -31t30 -80q0 -17 -4 -35l-68 -321q-4 -18 -19 -30t-34 -12h-185q-52 0 -85.5 32.5t-33.5 81.5q0 15 3 30q13 60 65 102.5t113 42.5h169l15 70q2 14 2 26q0 32 -17 51t-47 19zM197 56h169l38 178
h-169q-35 0 -67 -27t-40 -63q-2 -9 -2 -18q0 -30 20 -50t51 -20zM174 -112l5 27q3 12 12 20t23 8q24 0 24 -21q0 -4 -1 -7l-6 -27q-2 -11 -12 -19t-23 -8q-23 0 -23 20q0 4 1 7z" />
    <glyph glyph-name="Acircumflexdotbelow" unicode="&#x1eac;" horiz-adv-x="605" 
d="M472 847l-85 -74q-11 -10 -24 -10q-11 0 -17 7q-5 5 -5 13q0 12 10 21l101 91q20 20 46 20q21 0 32 -18l65 -91q4 -7 4 -14q0 -12 -11 -21q-10 -8 -21 -8q-13 0 -20 10l-53 74q-4 5 -9.5 5t-12.5 -5zM46 38l310 602q14 27 40.5 43.5t55.5 16.5t48 -16.5t22 -43.5l54 -605
q1 -12 -9.5 -22.5t-26.5 -11.5q-11 -2 -18.5 4.5t-8.5 16.5l-19 185h-294l-97 -184q-5 -11 -15.5 -17.5t-21.5 -5.5q-24 1 -24 22q0 8 4 16zM489 265l-32 360q-1 17 -17 17t-25 -17l-186 -360h260z" />
    <glyph glyph-name="acircumflexdotbelow" unicode="&#x1ead;" horiz-adv-x="472" 
d="M366 659l-85 -74q-11 -9 -24 -9q-11 0 -17 6q-5 6 -5 14q0 11 9 20l102 92q20 19 45 19q21 0 33 -18l65 -91q4 -6 4 -13q0 -13 -11 -22q-10 -7 -22 -7q-13 0 -19 10l-54 73q-3 5 -9 5t-12 -5zM369 455h-175q-25 0 -25 21q0 3 1 6q2 11 11.5 19t22.5 8h180q51 0 81 -31
t30 -80q0 -17 -4 -35l-68 -321q-4 -18 -19 -30t-34 -12h-185q-52 0 -85.5 32.5t-33.5 81.5q0 15 3 30q13 60 65 102.5t113 42.5h169l15 70q2 14 2 26q0 32 -17 51t-47 19zM197 56h169l38 178h-169q-35 0 -67 -27t-40 -63q-2 -9 -2 -18q0 -30 20 -50t51 -20zM174 -112l5 27
q3 12 12 20t23 8q24 0 24 -21q0 -4 -1 -7l-6 -27q-2 -11 -12 -19t-23 -8q-23 0 -23 20q0 4 1 7z" />
    <glyph glyph-name="Edotbelow" unicode="&#x1eb8;" horiz-adv-x="562" 
d="M103 47l129 606q5 20 21.5 33.5t37.5 13.5h340q14 0 21 -6.5t7 -16.5q0 -3 -1 -7q-3 -12 -13 -20.5t-24 -8.5h-329l-52 -248h268q13 0 20.5 -6.5t7.5 -16.5q0 -3 -1 -6q-2 -13 -13 -21.5t-24 -8.5h-271l-58 -275h326q28 0 28 -23q0 -3 -1 -6q-3 -13 -13.5 -21.5
t-24.5 -8.5h-342q-18 0 -29 10t-11 27q0 5 1 10zM246 -112l6 27q3 12 12 20t22 8q25 0 25 -21q0 -4 -1 -7l-6 -27q-2 -11 -12 -19t-23 -8q-23 0 -23 21v6z" />
    <glyph glyph-name="edotbelow" unicode="&#x1eb9;" horiz-adv-x="476" 
d="M100 237l17 78q19 89 84 141.5t147 52.5q78 0 119 -35.5t41 -101.5q0 -27 -7 -57l-10 -47q-3 -18 -18.5 -30t-33.5 -12h-280q-10 -50 -10 -82q0 -47 23 -68.5t77 -21.5h151q25 0 25 -21q0 -3 -1 -6q-2 -12 -11.5 -19.5t-22.5 -7.5h-154q-80 0 -114.5 31.5t-34.5 98.5
q0 42 13 107zM433 276l9 43q4 23 4 41q0 95 -110 95q-59 0 -101.5 -37t-56.5 -98l-9 -44h264zM190 -112l5 27q3 12 12 20t23 8q24 0 24 -21q0 -4 -1 -7l-6 -27q-2 -11 -12 -19t-23 -8q-23 0 -23 21q0 3 1 6z" />
    <glyph glyph-name="Etilde" unicode="&#x1ebc;" horiz-adv-x="562" 
d="M103 47l129 606q5 20 21.5 33.5t37.5 13.5h340q14 0 21 -6.5t7 -16.5q0 -3 -1 -7q-3 -12 -13 -20.5t-24 -8.5h-329l-52 -248h268q13 0 20.5 -6.5t7.5 -16.5q0 -3 -1 -6q-2 -13 -13 -21.5t-24 -8.5h-271l-58 -275h326q28 0 28 -23q0 -3 -1 -6q-3 -13 -13.5 -21.5
t-24.5 -8.5h-342q-18 0 -29 10t-11 27q0 5 1 10zM422 888q17 1 30.5 -3.5t19.5 -9.5t16 -14q0 -1 2 -3q9 -8 14 -12.5t14.5 -8t20.5 -2.5q16 1 52 28q8 6 17 6q13 0 19 -9q4 -4 4 -11q0 -14 -12 -24q-55 -44 -91 -46q-17 -1 -31 4.5t-19.5 10t-18.5 17.5q-24 23 -42 23h-7
q-23 -4 -59 -30q-9 -6 -18 -6q-11 0 -18 8q-5 6 -5 13q0 14 16 26q56 41 96 43z" />
    <glyph glyph-name="etilde" unicode="&#x1ebd;" horiz-adv-x="476" 
d="M100 237l17 78q19 89 84 141.5t147 52.5q78 0 119 -35.5t41 -101.5q0 -27 -7 -57l-10 -47q-3 -18 -18.5 -30t-33.5 -12h-280q-10 -50 -10 -82q0 -47 23 -68.5t77 -21.5h151q25 0 25 -21q0 -3 -1 -6q-2 -12 -11.5 -19.5t-22.5 -7.5h-154q-80 0 -114.5 31.5t-34.5 98.5
q0 42 13 107zM433 276l9 44q4 22 4 40q0 95 -110 95q-59 0 -101.5 -37t-56.5 -98l-9 -44h264zM326 695q17 1 30.5 -3.5t19.5 -9.5t16 -14q0 -1 2 -3q9 -8 14 -12.5t14.5 -8t20.5 -2.5q16 1 52 28q8 6 17 6q13 0 19 -9q4 -4 4 -11q0 -14 -12 -24q-55 -44 -91 -46
q-17 -1 -31 4.5t-19.5 10t-18.5 17.5q-24 23 -42 23h-7q-23 -4 -59 -30q-9 -6 -18 -6q-11 0 -18 8q-5 6 -5 13q0 14 16 26q56 41 96 43z" />
    <glyph glyph-name="Ecircumflexdotbelow" unicode="&#x1ec6;" horiz-adv-x="562" 
d="M103 47l129 606q5 20 21.5 33.5t37.5 13.5h340q14 0 21 -6.5t7 -16.5q0 -3 -1 -7q-3 -12 -13 -20.5t-24 -8.5h-329l-52 -248h268q13 0 20.5 -6.5t7.5 -16.5q0 -3 -1 -6q-2 -13 -13 -21.5t-24 -8.5h-271l-58 -275h326q28 0 28 -23q0 -3 -1 -6q-3 -13 -13 -21.5t-25 -8.5
h-342q-18 0 -29 10t-11 27q0 5 1 10zM464 851l-86 -74q-10 -10 -24 -10q-10 0 -17 7q-5 5 -5 13q0 12 10 21l101 91q20 20 46 20q21 0 32 -18l66 -91q4 -7 4 -14q0 -12 -12 -21q-10 -8 -21 -8q-13 0 -20 10l-53 74q-4 5 -9.5 5t-11.5 -5zM246 -112l6 27q3 12 12 20t22 8
q25 0 25 -21q0 -4 -1 -7l-6 -27q-2 -11 -12 -19t-23 -8q-23 0 -23 21v6z" />
    <glyph glyph-name="ecircumflexdotbelow" unicode="&#x1ec7;" horiz-adv-x="476" 
d="M368 658l-86 -74q-10 -10 -24 -10q-10 0 -17 7q-5 5 -5 13q0 12 10 21l101 91q20 20 46 20q21 0 32 -18l66 -91q4 -7 4 -14q0 -12 -12 -21q-10 -8 -21 -8q-13 0 -20 10l-53 74q-4 5 -9.5 5t-11.5 -5zM100 237l17 78q19 89 84 141.5t147 52.5q78 0 119 -35.5t41 -101.5
q0 -27 -7 -57l-10 -47q-3 -18 -18.5 -30t-33.5 -12h-280q-10 -50 -10 -82q0 -47 23 -68.5t77 -21.5h151q25 0 25 -21q0 -3 -1 -6q-2 -12 -11.5 -19.5t-22.5 -7.5h-154q-80 0 -114.5 31.5t-34.5 98.5q0 42 13 107zM433 276l9 43q4 23 4 41q0 95 -110 95q-59 0 -101.5 -37
t-56.5 -98l-9 -44h264zM190 -112l5 27q3 12 12 20t23 8q24 0 24 -21q0 -4 -1 -7l-6 -27q-2 -11 -12 -19t-23 -8q-23 0 -23 21q0 3 1 6z" />
    <glyph glyph-name="Idotbelow" unicode="&#x1eca;" horiz-adv-x="248" 
d="M100 30l136 640q3 13 13.5 21.5t24.5 8.5q11 0 18 -6.5t7 -17.5q0 -4 -1 -8l-135 -636q-3 -14 -14 -23t-24 -9q-12 0 -19 6.5t-7 16.5q0 3 1 7zM72 -112l6 27q2 12 11.5 20t22.5 8q24 0 24 -21v-7l-6 -27q-3 -11 -12.5 -19t-22.5 -8q-24 0 -24 21q0 3 1 6z" />
    <glyph glyph-name="idotbelow" unicode="&#x1ecb;" horiz-adv-x="200" 
d="M213 647l4 19q2 13 12 21t23 8q11 0 18 -6t7 -16q0 -3 -1 -7l-4 -19q-3 -12 -13 -20t-23 -8q-24 0 -24 22q0 3 1 6zM81 28l96 452q3 13 12.5 21t22.5 8q12 0 18.5 -6t6.5 -16q0 -4 -1 -7l-96 -452q-2 -13 -12 -20.5t-24 -7.5q-24 0 -24 21q0 3 1 7zM51 -112l6 27
q2 12 11.5 20t22.5 8q24 0 24 -21q0 -4 -1 -7l-5 -27q-3 -11 -13 -19t-22 -8q-24 0 -24 21q0 3 1 6z" />
    <glyph glyph-name="Odotbelow" unicode="&#x1ecc;" 
d="M455 700h45q196 0 196 -164q0 -35 -10 -79l-46 -220q-23 -107 -99.5 -172t-188.5 -65h-46q-94 0 -144 47t-50 127q0 30 7 63l47 220q51 243 289 243zM229 457l-46 -220q-6 -25 -6 -48q0 -61 36.5 -96.5t104.5 -35.5h46q82 0 138.5 50t73.5 130l47 220q7 34 7 62
q0 124 -142 124h-45q-174 0 -214 -186zM276 -112l6 27q2 12 11.5 20t22.5 8q24 0 24 -21q0 -4 -1 -7l-5 -27q-3 -11 -13 -19t-22 -8q-24 0 -24 21q0 3 1 6z" />
    <glyph glyph-name="odotbelow" unicode="&#x1ecd;" horiz-adv-x="498" 
d="M279 -4h-61q-62 0 -99 35.5t-37 96.5q0 20 4 42l33 154q17 79 76 131.5t132 52.5h61q61 0 97.5 -38.5t36.5 -100.5q0 -22 -5 -45l-33 -154q-16 -77 -74.5 -125.5t-130.5 -48.5zM229 48h61q48 0 85.5 34t48.5 85l35 162q3 16 3 32q0 42 -23 69t-62 27h-61
q-48 0 -86.5 -37.5t-49.5 -90.5l-35 -162q-3 -16 -3 -30q0 -40 23.5 -64.5t63.5 -24.5zM196 -112l6 27q3 12 12 20t22 8q25 0 25 -21q0 -4 -1 -7l-6 -27q-2 -11 -12 -19t-23 -8q-23 0 -23 21v6z" />
    <glyph glyph-name="Ocircumflexdotbelow" unicode="&#x1ed8;" 
d="M455 700h45q196 0 196 -164q0 -35 -10 -79l-46 -220q-23 -107 -99.5 -172t-188.5 -65h-46q-94 0 -144 47t-50 127q0 30 7 63l47 220q51 243 289 243zM229 457l-46 -220q-6 -25 -6 -48q0 -61 36.5 -96.5t104.5 -35.5h46q82 0 138.5 50t73.5 130l47 220q7 34 7 62
q0 124 -142 124h-45q-174 0 -214 -186zM499 850l-86 -74q-11 -9 -24 -9q-11 0 -17 7q-5 5 -5 13q0 12 10 20l101 92q20 19 46 19q21 0 32 -18l65 -91q5 -6 5 -13q0 -12 -12 -21q-10 -8 -21 -8q-13 0 -20 10l-53 73q-4 6 -9.5 6t-11.5 -6zM275 -112l6 27q3 12 12 20t22 8
q25 0 25 -21q0 -4 -1 -7l-6 -27q-2 -11 -12 -19t-23 -8q-23 0 -23 21v6z" />
    <glyph glyph-name="ocircumflexdotbelow" unicode="&#x1ed9;" horiz-adv-x="498" 
d="M279 -4h-61q-62 0 -99 35.5t-37 96.5q0 20 4 42l33 154q17 79 76 131.5t132 52.5h61q61 0 97.5 -38.5t36.5 -100.5q0 -22 -5 -45l-33 -154q-16 -77 -74.5 -125.5t-130.5 -48.5zM229 48h61q48 0 85.5 34t48.5 85l35 162q3 16 3 32q0 42 -23 69t-62 27h-61
q-48 0 -86.5 -37.5t-49.5 -90.5l-35 -162q-3 -16 -3 -30q0 -40 23.5 -64.5t63.5 -24.5zM379 660l-86 -74q-10 -10 -24 -10q-10 0 -17 7q-5 5 -5 13q0 12 10 21l101 91q20 20 46 20q21 0 32 -18l66 -91q4 -7 4 -14q0 -12 -12 -21q-10 -8 -21 -8q-13 0 -20 10l-53 74
q-4 5 -9.5 5t-11.5 -5zM196 -112l6 27q3 12 12 20t22 8q25 0 25 -21q0 -4 -1 -7l-6 -27q-2 -11 -12 -19t-23 -8q-23 0 -23 21v6z" />
    <glyph glyph-name="Udotbelow" unicode="&#x1ee4;" horiz-adv-x="660" 
d="M136 206l99 465q2 11 13.5 20t23.5 9q11 0 18 -7t7 -17q0 -2 -1 -5l-98 -465q-5 -21 -5 -41q0 -51 28 -80t70 -29h121q55 0 94.5 41t54.5 109l98 463q3 13 14 22t23 9q11 0 18.5 -7t7.5 -17q0 -3 -1 -5l-98 -465q-20 -93 -80.5 -150.5t-143.5 -57.5h-121q-65 0 -107 39.5
t-42 111.5q0 27 7 57zM283 -112l5 27q3 12 12.5 20t22.5 8q24 0 24 -21q0 -4 -1 -7l-5 -27q-3 -11 -13 -19t-23 -8q-23 0 -23 21q0 3 1 6z" />
    <glyph glyph-name="udotbelow" unicode="&#x1ee5;" horiz-adv-x="499" 
d="M392 54l91 424q2 12 12.5 21.5t23.5 9.5q11 0 17.5 -7t6.5 -17v-5l-93 -436q-4 -18 -19 -31t-36 -13h-177q-56 0 -92.5 33.5t-36.5 91.5q0 20 5 42l66 313q3 11 13.5 20t23.5 9q11 0 17.5 -7t6.5 -17q0 -2 -1 -5l-66 -313q-3 -14 -3 -28q0 -38 22 -61.5t56 -23.5h163z
M197 -112l6 27q2 12 11.5 20t22.5 8q24 0 24 -21q0 -4 -1 -7l-5 -27q-3 -11 -12.5 -19t-22.5 -8q-24 0 -24 21q0 3 1 6z" />
    <glyph glyph-name="Ygrave" unicode="&#x1ef2;" horiz-adv-x="547" 
d="M358 389l240 295q12 15 29 15h4q23 -2 23 -23q0 -11 -8 -20l-272 -337l-61 -289q-3 -13 -13.5 -21.5t-24.5 -8.5q-11 0 -18 6.5t-7 16.5v7l62 289l-132 335q-2 4 -2 9q0 13 10 23.5t25 12.5h6q16 0 21 -14zM502 784l-133 69q-13 7 -13 20q0 9 6 17q10 16 28 16q6 0 12 -3
l136 -72q12 -7 12 -20q0 -9 -5 -16q-11 -14 -27 -14q-8 0 -16 3z" />
    <glyph glyph-name="ygrave" unicode="&#x1ef3;" horiz-adv-x="440" 
d="M239 63l223 423q13 24 37 23q22 -1 22 -20q0 -8 -4 -16l-357 -677q-11 -20 -33 -19q-11 1 -17 7t-6 15q0 6 3 12l102 193l-12 2q-27 7 -30 34l-42 433v2q0 12 9.5 22t23.5 11q12 2 19 -4.5t8 -16.5l41 -423q1 -8 5 -8t8 7zM409 595l-134 69q-13 7 -13 20q0 8 6 16
q11 16 28 16q7 0 13 -3l135 -71q13 -7 13 -20q0 -9 -6 -17q-11 -14 -26 -14q-8 0 -16 4z" />
    <glyph glyph-name="endash" unicode="&#x2013;" horiz-adv-x="506" 
d="M481 242h-352q-25 3 -25 23q0 3 1 6q2 11 13 19.5t24 8.5h352q11 0 17.5 -6t6.5 -16q0 -3 -1 -7q-2 -12 -12 -20t-24 -8z" />
    <glyph glyph-name="emdash" unicode="&#x2014;" horiz-adv-x="638" 
d="M612 242h-483q-12 1 -18.5 7t-6.5 16q0 3 1 6q2 11 12.5 19.5t24.5 8.5h483q11 0 17.5 -6t6.5 -16q0 -3 -1 -7q-3 -12 -12.5 -20t-23.5 -8z" />
    <glyph glyph-name="quoteleft" unicode="&#x2018;" horiz-adv-x="182" 
d="M166 568l14 68q6 28 30 48.5t50 26.5q14 1 21.5 -6t5.5 -19q-1 -15 -18 -23q-23 -12 -28 -35l-13 -60q-2 -12 -12.5 -21t-24.5 -9q-11 0 -18.5 7t-7.5 17q0 3 1 6z" />
    <glyph glyph-name="quoteright" unicode="&#x2019;" horiz-adv-x="183" 
d="M207 621l13 60q3 12 13 21t24 9q11 0 18.5 -7t7.5 -17q0 -3 -1 -6l-14 -68q-6 -28 -30 -48.5t-50 -26.5q-12 -1 -19.5 5t-7.5 16v4q1 15 18 23q23 12 28 35z" />
    <glyph glyph-name="quotesinglbase" unicode="&#x201a;" horiz-adv-x="183" 
d="M80 21l12 60q3 12 13.5 21t23.5 9q12 0 19 -7t7 -18v-5l-15 -68q-6 -28 -30 -48.5t-50 -26.5q-12 -1 -19.5 5t-7.5 16q0 2 1 4q0 15 18 23q23 11 28 35z" />
    <glyph glyph-name="quotedblleft" unicode="&#x201c;" horiz-adv-x="318" 
d="M237 628l-13 -60q-3 -12 -13 -21t-24 -9q-11 0 -18.5 7.5t-7.5 17.5q0 3 1 5l14 68q6 28 30 48.5t50 26.5q13 1 20.5 -6t6.5 -18q-1 -15 -19 -23q-22 -12 -27 -36zM373 628l-12 -60q-3 -12 -13.5 -21t-23.5 -9q-12 0 -19 7.5t-7 17.5v5l15 68q6 28 30 48.5t50 26.5
q13 1 20.5 -6t6.5 -18q-1 -15 -19 -23q-23 -12 -28 -36z" />
    <glyph glyph-name="quotedblright" unicode="&#x201d;" horiz-adv-x="318" 
d="M207 621l13 60q2 12 12.5 21t24.5 9q11 0 18.5 -7t7.5 -17q0 -3 -1 -6l-14 -68q-6 -28 -30 -48.5t-50 -26.5q-13 -1 -20 5t-7 16v4q1 15 18 23q23 12 28 35zM344 621l12 60q3 12 13.5 21t23.5 9q12 0 19 -7t7 -17v-6l-15 -68q-6 -28 -30 -48.5t-50 -26.5q-12 -1 -19.5 5
t-7.5 16v4q1 15 19 23q23 12 28 35z" />
    <glyph glyph-name="quotedblbase" unicode="&#x201e;" horiz-adv-x="318" 
d="M216 21l13 60q3 12 13 21t24 9q11 0 18.5 -7t7.5 -18q0 -2 -1 -5l-14 -68q-6 -28 -30 -48.5t-50 -26.5q-12 -1 -19.5 5t-7.5 16v4q1 15 19 23q22 11 27 35zM80 21l12 60q3 12 13.5 21t23.5 9q12 0 19 -7t7 -18v-5l-15 -68q-6 -28 -30 -48.5t-50 -26.5q-12 -1 -19.5 5
t-7.5 16q0 2 1 4q0 15 18 23q23 11 28 35z" />
    <glyph glyph-name="dagger" unicode="&#x2020;" horiz-adv-x="425" 
d="M291 513l32 150q3 13 13.5 21.5t24.5 8.5q11 0 17.5 -6.5t6.5 -17.5v-8l-32 -148h105q12 0 18 -6.5t6 -16.5q0 -3 -1 -7q-2 -12 -12 -20t-23 -8h-105l-103 -481q-2 -14 -12.5 -22.5t-24.5 -8.5q-11 0 -18 6.5t-7 16.5v6l103 483h-107q-10 0 -16.5 6.5t-6.5 16.5q0 3 1 6
q2 11 12.5 20t23.5 9h105z" />
    <glyph glyph-name="daggerdbl" unicode="&#x2021;" horiz-adv-x="508" 
d="M333 514l32 150q3 12 13.5 20.5t23.5 8.5q12 0 18.5 -6.5t6.5 -17.5v-7l-32 -148h143q13 0 20.5 -6.5t7.5 -17.5q0 -3 -1 -6q-3 -12 -13.5 -20.5t-24.5 -8.5h-144l-42 -196h143q13 0 20 -6.5t7 -16.5v-6q-3 -13 -13.5 -21.5t-24.5 -8.5h-144l-37 -169q-2 -14 -13 -22.5
t-24 -8.5q-12 0 -19 6.5t-7 16.5q0 3 1 6l37 171h-146q-12 0 -19 6.5t-7 17.5q0 3 1 6q3 12 14 20.5t25 8.5h144l42 196h-146q-11 0 -18.5 6.5t-7.5 16.5q0 3 1 6q3 13 14 21.5t26 8.5h143z" />
    <glyph glyph-name="bullet" unicode="&#x2022;" horiz-adv-x="319" 
d="M117 311q9 43 47.5 75.5t83.5 32.5q39 0 64 -25.5t25 -62.5q0 -10 -2 -20q-9 -45 -48.5 -76.5t-83.5 -31.5q-40 0 -64.5 24t-24.5 61q0 11 3 23z" />
    <glyph glyph-name="ellipsis" unicode="&#x2026;" horiz-adv-x="466" 
d="M205 24l8 38q3 13 14.5 22t25.5 9q12 0 19.5 -7t7.5 -18q0 -3 -1 -6l-8 -36q-3 -15 -14.5 -24.5t-25.5 -9.5q-12 0 -19 7t-7 18v7zM51 24l8 38q3 13 14 22t25 9q13 0 20 -7t7 -17v-7l-8 -36q-3 -15 -14.5 -24.5t-25.5 -9.5q-12 0 -19 7t-7 18v7zM360 24l8 38q3 13 14 22
t25 9q12 0 19.5 -7t7.5 -18q0 -3 -1 -6l-8 -36q-3 -15 -14.5 -24.5t-24.5 -9.5q-12 0 -19.5 7t-7.5 18q0 3 1 7z" />
    <glyph glyph-name="perthousand" unicode="&#x2030;" horiz-adv-x="872" 
d="M62 40l611 652q10 11 24 11q9 0 15 -5q8 -6 8 -16t-10 -21l-613 -653q-10 -12 -23 -12q-9 0 -14 5q-9 6 -9 16q0 12 11 23zM310 695q43 0 64.5 -19.5t21.5 -60.5q0 -24 -7 -55q-15 -72 -49 -105.5t-88 -33.5q-84 0 -84 83q0 24 7 57q15 71 47.5 102.5t87.5 31.5zM302 656
q-36 0 -56 -23.5t-30 -71.5q-6 -27 -6 -47q0 -55 50 -55q36 0 56.5 25.5t30.5 75.5q6 26 6 43q0 53 -51 53zM779 274q44 0 65 -19t21 -61q0 -24 -7 -55q-15 -72 -49 -105.5t-88 -33.5q-84 0 -84 83q0 24 7 57q15 71 47.5 102.5t87.5 31.5zM518 273q43 0 64 -19t21 -61
q0 -23 -6 -55q-16 -72 -49.5 -105.5t-88.5 -33.5q-84 0 -84 83q0 25 7 57q15 71 47.5 102.5t88.5 31.5zM771 235q-36 0 -56 -23t-30 -72q-6 -27 -6 -47q0 -55 50 -55q36 0 56.5 25.5t30.5 75.5q6 26 6 44q0 52 -51 52zM509 234q-36 0 -55.5 -23t-29.5 -72q-6 -27 -6 -46
q0 -55 50 -55q36 0 56 25.5t31 74.5q5 26 5 44q0 52 -51 52z" />
    <glyph glyph-name="guilsinglleft" unicode="&#x2039;" horiz-adv-x="279" 
d="M135 312l132 88q9 6 20 6q14 0 20 -11q3 -5 3 -11q0 -16 -16 -27l-113 -77q-7 -5 -8 -10q-1 -2 -1 -3q0 -4 4 -8l78 -78q8 -8 8 -18q0 -13 -10 -23q-11 -10 -24 -10q-10 0 -17 7l-97 97q-12 13 -12 29q0 3 1 7q5 24 32 42z" />
    <glyph glyph-name="guilsinglright" unicode="&#x203a;" horiz-adv-x="279" 
d="M217 280l-80 77q-7 6 -7 16q0 12 9 22q11 11 26 11q10 0 16 -6l95 -88q16 -14 16 -33q0 -4 -1 -9q-5 -20 -27 -36l-138 -97q-10 -7 -20 -7q-13 0 -19 10q-4 6 -4 12q0 17 18 29l112 78q7 5 8 11v2q0 4 -4 8z" />
    <glyph glyph-name="fraction" unicode="&#x2044;" horiz-adv-x="430" 
d="M55 32l430 654q10 15 26 15q4 0 8 -2q13 -4 13 -14q0 -7 -6 -17l-432 -657q-8 -13 -21 -13q-7 0 -13 4q-10 5 -10 16q0 7 5 14z" />
    <glyph glyph-name="Euro" unicode="&#x20ac;" horiz-adv-x="589" 
d="M493 700h169q10 0 17 -7t7 -16v-5q-2 -11 -13 -20t-23 -9h-170q-168 0 -208 -170l-4 -15h274q10 0 16 -6t6 -15q0 -3 -1 -6q-2 -11 -11 -18t-21 -7h-274l-23 -111h273q10 0 16 -6t6 -15v-5q-3 -11 -12 -18t-21 -7h-273l-4 -22q-3 -20 -3 -38q0 -59 35.5 -93t104.5 -34
h167q13 0 20 -7t7 -16q0 -3 -1 -5q-2 -12 -13 -20.5t-23 -8.5h-169q-93 0 -142.5 45.5t-49.5 125.5q0 24 4 50l5 23h-47q-22 2 -22 20v5q2 10 11.5 18t21.5 8h46l24 111h-47q-22 3 -22 21q0 3 1 5q2 10 11.5 18t21.5 8h46l3 16q53 226 284 226z" />
    <glyph glyph-name="trademark" unicode="&#x2122;" horiz-adv-x="790" 
d="M643 380l150 286q9 15 24 24.5t30 9.5q17 0 28.5 -11.5t11.5 -28.5q0 -4 -1 -8l-71 -337q-2 -8 -11 -15.5t-18 -7.5q-8 0 -13.5 6t-5.5 14v3l63 298q1 2 1 3q0 6 -4 6q-5 0 -8 -7l-163 -302q-11 -21 -32 -21t-25 25l-26 296q-1 6 -5 6q-6 0 -8 -8l-63 -296
q-1 -8 -10.5 -15.5t-18.5 -7.5q-7 0 -12.5 6t-5.5 13v4l72 337q4 19 21 33.5t37 14.5q18 0 29 -9.5t12 -24.5zM215 700h251q9 0 14.5 -6t5.5 -14v-4q-2 -9 -11 -16t-18 -7h-102l-72 -338q-2 -8 -10.5 -15.5t-16.5 -7.5t-14 6t-6 14v3l72 338h-103q-8 0 -13 5.5t-5 13.5v4
q2 9 11 16.5t17 7.5z" />
    <glyph glyph-name="minus" unicode="&#x2212;" horiz-adv-x="586" 
d="M151 341h431q11 0 18 -6t7 -17q0 -3 -1 -6q-3 -13 -13 -21t-23 -8h-432q-11 0 -18 6.5t-7 16.5q0 3 1 7q2 11 12.5 19.5t24.5 8.5z" />
    <glyph glyph-name="notequal" unicode="&#x2260;" horiz-adv-x="586" 
d="M410 430l140 214q11 17 29 17q7 0 12 -3q11 -4 11 -16q0 -9 -7 -20l-126 -192h132q11 0 18 -6t7 -17q0 -3 -1 -6q-3 -13 -13 -21t-23 -8h-159l-76 -116h210q11 0 18 -6t7 -16q0 -4 -1 -7q-3 -13 -13 -20.5t-23 -7.5h-236l-120 -184q-10 -16 -27 -16q-8 0 -14 4
q-10 6 -10 17q0 7 6 16l107 163h-139q-24 2 -24 23q0 3 1 6q2 11 12.5 19.5t24.5 8.5h162l76 116h-215q-24 4 -24 23q0 4 1 7q2 11 12.5 19.5t24.5 8.5h240z" />
    <glyph glyph-name="lessequal" unicode="&#x2264;" horiz-adv-x="456" 
d="M155 408l334 191q7 4 15 4q15 0 21 -12q3 -4 3 -10q0 -19 -17 -28l-297 -170q-8 -5 -9 -11q-1 -2 -1 -4q0 -4 5 -8l220 -177q9 -7 9 -19q0 -13 -10 -22q-10 -11 -23 -11q-10 0 -18 6l-250 197q-13 10 -13 27q0 5 2 10q5 23 29 37zM90 59h301q12 0 18.5 -6.5t6.5 -16.5v-6
q-6 -26 -35 -29h-303q-12 0 -19 6.5t-7 16.5q0 3 1 6q3 12 13.5 20.5t23.5 8.5z" />
    <glyph glyph-name="greaterequal" unicode="&#x2265;" horiz-adv-x="456" 
d="M405 383l-225 170q-7 6 -7 16q0 12 9 22q11 12 26 12q9 0 14 -4l253 -191q14 -11 14 -29q0 -4 -1 -8q-5 -24 -26 -37l-334 -197q-11 -6 -21 -6q-13 0 -19 11q-3 5 -3 11q0 18 19 30l297 177q7 5 9 12v2q0 5 -5 9zM90 59h301q12 0 18.5 -6.5t6.5 -16.5v-6
q-3 -12 -13.5 -20.5t-23.5 -8.5h-304q-22 3 -22 22v7q3 11 13 20t24 9z" />
    </font>
</defs>
</svg>
